<svg width="50.000000" height="28.000000" viewBox="0 0 50 28" fill="none" xmlns="http://www.w3.org/2000/svg" xmlns:xlink="http://www.w3.org/1999/xlink">
	<desc>
			Created with Pixso.
	</desc>
	<defs/>
	<rect id="Frame 513702" rx="8.000000" width="50.000000" height="28.000000" fill="#F1BF5D" fill-opacity="1.000000"/>
	<path id="-10%" d="M13.4995 13.2681L8.98438 13.2681L8.98438 14.5566L13.4995 14.5566L13.4995 13.2681ZM19.3262 8.81787L17.8291 8.81787L15.2896 10.479L15.2896 11.9487L17.7232 10.3594L17.7847 10.3594L17.7847 19L19.3262 19L19.3262 8.81787ZM25.6255 19.1675C27.9771 19.1675 29.3545 17.25 29.3545 13.9141C29.3545 10.6021 27.9566 8.67773 25.6255 8.67773C23.2876 8.67773 21.8965 10.5986 21.8897 13.9141C21.8897 17.2466 23.2671 19.1641 25.6255 19.1675ZM25.6255 17.8413C24.2481 17.8413 23.4175 16.4604 23.4175 13.9141C23.4209 11.3779 24.2515 9.97998 25.6255 9.97998C26.9927 9.97998 27.8267 11.3779 27.8267 13.9141C27.8267 16.4604 26.9961 17.8413 25.6255 17.8413ZM36.4359 17.0894C36.4359 18.2378 37.164 19.2085 38.5107 19.2085C39.8437 19.2085 40.5751 18.2378 40.5751 17.0894L40.5751 16.5527C40.5751 15.4009 39.8642 14.437 38.5107 14.437C37.1845 14.437 36.4359 15.4043 36.4359 16.5527L36.4359 17.0894ZM31.3158 11.2651C31.3158 12.4136 32.0439 13.3809 33.3905 13.3809C34.7167 13.3809 35.4482 12.417 35.4482 11.2651L35.4482 10.7285C35.4482 9.57324 34.7372 8.60938 33.3905 8.60938C32.0678 8.60938 31.3158 9.57324 31.3158 10.7285L31.3158 11.2651ZM31.7875 19L32.977 19L39.977 8.81787L38.7875 8.81787L31.7875 19ZM37.5946 16.5527C37.5946 15.9819 37.851 15.4316 38.5107 15.4316C39.1977 15.4316 39.4096 15.9819 39.4096 16.5527L39.4096 17.0894C39.4096 17.6636 39.1772 18.2139 38.5107 18.2139C37.8339 18.2139 37.5946 17.6567 37.5946 17.0894L37.5946 16.5527ZM32.4814 10.7285C32.4814 10.1611 32.7274 9.604 33.3905 9.604C34.0775 9.604 34.2895 10.1543 34.2895 10.7285L34.2895 11.2651C34.2895 11.8359 34.057 12.3862 33.3905 12.3862C32.7138 12.3862 32.4814 11.8359 32.4814 11.2651L32.4814 10.7285Z" fill="#FFFFFF" fill-opacity="1.000000" fill-rule="evenodd"/>
</svg>
