<svg width="50.000000" height="28.000000" viewBox="0 0 50 28" fill="none" xmlns="http://www.w3.org/2000/svg" xmlns:xlink="http://www.w3.org/1999/xlink">
	<desc>
			Created with Pixso.
	</desc>
	<defs/>
	<rect id="Frame 513702" rx="8.000000" width="50.000000" height="28.000000" fill="#F1BF5D" fill-opacity="1.000000"/>
	<path id="-16%" d="M13.4995 13.2681L8.98438 13.2681L8.98438 14.5566L13.4995 14.5566L13.4995 13.2681ZM19.3262 8.81787L17.8291 8.81787L15.2896 10.479L15.2896 11.9487L17.7232 10.3594L17.7847 10.3594L17.7847 19L19.3262 19L19.3262 8.81787ZM25.6358 19.1401C27.7618 19.1606 29.1734 17.6294 29.17 15.6743C29.1734 13.7261 27.7583 12.3281 25.9913 12.3281C24.918 12.3281 23.9883 12.8442 23.4654 13.7056L23.3936 13.7056C23.397 11.395 24.272 10.021 25.7623 10.021C26.7432 10.021 27.3584 10.6191 27.5669 11.4634L29.0845 11.4634C28.8521 9.85352 27.584 8.67773 25.7623 8.67773C23.397 8.67773 21.9205 10.7114 21.9205 14.2524C21.917 18.002 23.8243 19.123 25.6358 19.1401ZM25.629 17.8481C24.4463 17.8481 23.5816 16.8535 23.5816 15.7085C23.585 14.5703 24.4908 13.5757 25.6631 13.5757C26.8287 13.5757 27.6831 14.5156 27.6763 15.6948C27.6831 16.8979 26.7911 17.8481 25.629 17.8481ZM36.2918 17.0894C36.2918 18.2378 37.0198 19.2085 38.3665 19.2085C39.6995 19.2085 40.4309 18.2378 40.4309 17.0894L40.4309 16.5527C40.4309 15.4009 39.72 14.437 38.3665 14.437C37.0403 14.437 36.2918 15.4043 36.2918 16.5527L36.2918 17.0894ZM31.1717 11.2651C31.1717 12.4136 31.8997 13.3809 33.2464 13.3809C34.5725 13.3809 35.304 12.417 35.304 11.2651L35.304 10.7285C35.304 9.57324 34.593 8.60938 33.2464 8.60938C31.9236 8.60938 31.1717 9.57324 31.1717 10.7285L31.1717 11.2651ZM31.6433 19L32.8328 19L39.8328 8.81787L38.6433 8.81787L31.6433 19ZM37.4505 16.5527C37.4505 15.9819 37.7068 15.4316 38.3665 15.4316C39.0535 15.4316 39.2654 15.9819 39.2654 16.5527L39.2654 17.0894C39.2654 17.6636 39.033 18.2139 38.3665 18.2139C37.6897 18.2139 37.4505 17.6567 37.4505 17.0894L37.4505 16.5527ZM32.3372 10.7285C32.3372 10.1611 32.5833 9.604 33.2464 9.604C33.9334 9.604 34.1453 10.1543 34.1453 10.7285L34.1453 11.2651C34.1453 11.8359 33.9129 12.3862 33.2464 12.3862C32.5696 12.3862 32.3372 11.8359 32.3372 11.2651L32.3372 10.7285Z" fill="#FFFFFF" fill-opacity="1.000000" fill-rule="evenodd"/>
</svg>
