<svg width="50.000000" height="28.000000" viewBox="0 0 50 28" fill="none" xmlns="http://www.w3.org/2000/svg" xmlns:xlink="http://www.w3.org/1999/xlink">
	<desc>
			Created with Pixso.
	</desc>
	<defs/>
	<rect id="Frame 513702" rx="8.000000" width="50.000000" height="28.000000" fill="#F1BF5D" fill-opacity="1.000000"/>
	<path id="-18%" d="M13.4995 13.2681L8.98438 13.2681L8.98438 14.5566L13.4995 14.5566L13.4995 13.2681ZM19.3262 8.81787L17.8291 8.81787L15.2896 10.479L15.2896 11.9487L17.7232 10.3594L17.7847 10.3594L17.7847 19L19.3262 19L19.3262 8.81787ZM25.5196 19.1401C27.6387 19.1401 29.1358 17.937 29.1426 16.2861C29.1358 15.0044 28.2334 13.9243 27.0953 13.7192L27.0953 13.6611C28.0865 13.4219 28.7564 12.4922 28.7666 11.395C28.7564 9.83643 27.3858 8.67773 25.5196 8.67773C23.6363 8.67773 22.2623 9.83643 22.2725 11.395C22.2623 12.4888 22.9356 13.4219 23.9439 13.6611L23.9439 13.7192C22.7852 13.9243 21.8863 15.0044 21.8965 16.2861C21.8863 17.937 23.3833 19.1401 25.5196 19.1401ZM25.5196 17.8823C24.2481 17.8823 23.4415 17.2056 23.4517 16.187C23.4415 15.1274 24.3165 14.3721 25.5196 14.3721C26.7022 14.3721 27.5772 15.1274 27.5874 16.187C27.5772 17.2056 26.7774 17.8823 25.5196 17.8823ZM25.5196 13.145C24.4908 13.145 23.7593 12.4922 23.7696 11.5215C23.7593 10.5679 24.4668 9.93555 25.5196 9.93555C26.5552 9.93555 27.2593 10.5679 27.2696 11.5215C27.2593 12.4922 26.5347 13.145 25.5196 13.145ZM36.2321 17.0894C36.2321 18.2378 36.9601 19.2085 38.3068 19.2085C39.6398 19.2085 40.3713 18.2378 40.3713 17.0894L40.3713 16.5527C40.3713 15.4009 39.6603 14.437 38.3068 14.437C36.9806 14.437 36.2321 15.4043 36.2321 16.5527L36.2321 17.0894ZM31.112 11.2651C31.112 12.4136 31.84 13.3809 33.1867 13.3809C34.5129 13.3809 35.2443 12.417 35.2443 11.2651L35.2443 10.7285C35.2443 9.57324 34.5334 8.60938 33.1867 8.60938C31.8639 8.60938 31.112 9.57324 31.112 10.7285L31.112 11.2651ZM31.5837 19L32.7731 19L39.7731 8.81787L38.5837 8.81787L31.5837 19ZM37.3908 16.5527C37.3908 15.9819 37.6471 15.4316 38.3068 15.4316C38.9938 15.4316 39.2057 15.9819 39.2057 16.5527L39.2057 17.0894C39.2057 17.6636 38.9733 18.2139 38.3068 18.2139C37.6301 18.2139 37.3908 17.6567 37.3908 17.0894L37.3908 16.5527ZM32.2775 10.7285C32.2775 10.1611 32.5236 9.604 33.1867 9.604C33.8737 9.604 34.0856 10.1543 34.0856 10.7285L34.0856 11.2651C34.0856 11.8359 33.8532 12.3862 33.1867 12.3862C32.5099 12.3862 32.2775 11.8359 32.2775 11.2651L32.2775 10.7285Z" fill="#FFFFFF" fill-opacity="1.000000" fill-rule="evenodd"/>
</svg>
