<svg width="52.000000" height="28.000000" viewBox="0 0 52 28" fill="none" xmlns="http://www.w3.org/2000/svg" xmlns:xlink="http://www.w3.org/1999/xlink">
	<desc>
			Created with Pixso.
	</desc>
	<defs/>
	<rect id="Frame 513702" rx="8.000000" width="52.000000" height="28.000000" fill="#F1BF5D" fill-opacity="1.000000"/>
	<path id="-32%" d="M13.4995 13.2681L8.98438 13.2681L8.98438 14.5566L13.4995 14.5566L13.4995 13.2681ZM18.8791 19.1401C20.9572 19.1401 22.4816 17.896 22.4782 16.2075C22.4816 14.9189 21.7023 13.9927 20.3488 13.7842L20.3488 13.7056C21.4118 13.4321 22.1056 12.5981 22.0988 11.4531C22.1056 9.95605 20.8752 8.67773 18.9167 8.67773C17.0471 8.67773 15.5466 9.80908 15.4987 11.4634L16.9821 11.4634C17.0197 10.5269 17.8981 9.96289 18.8962 9.96289C19.9352 9.96289 20.6188 10.5918 20.612 11.5317C20.6188 12.5161 19.8259 13.1621 18.6979 13.1621L17.84 13.1621L17.84 14.4165L18.6979 14.4165C20.1096 14.4165 20.9264 15.1309 20.9264 16.1562C20.9264 17.144 20.0651 17.8174 18.8688 17.8174C17.7648 17.8174 16.9035 17.25 16.8454 16.3442L15.2834 16.3442C15.3483 18.0054 16.818 19.1401 18.8791 19.1401ZM24.3531 19L31.0523 19L31.0523 17.6841L26.4688 17.6841L26.4688 17.6089L28.4923 15.4897C30.3585 13.6064 30.8883 12.7075 30.8883 11.5659C30.8883 9.93213 29.5553 8.67773 27.6378 8.67773C25.734 8.67773 24.3429 9.91162 24.3429 11.771L25.8092 11.771C25.8023 10.6772 26.5099 9.96289 27.607 9.96289C28.6427 9.96289 29.4288 10.5986 29.4288 11.6138C29.4288 12.5127 28.8922 13.1587 27.7984 14.3174L24.3531 17.8857L24.3531 19ZM38.2506 17.0894C38.2506 18.2378 38.9786 19.2085 40.3253 19.2085C41.6583 19.2085 42.3897 18.2378 42.3897 17.0894L42.3897 16.5527C42.3897 15.4009 41.6788 14.437 40.3253 14.437C38.9991 14.437 38.2506 15.4043 38.2506 16.5527L38.2506 17.0894ZM33.1305 11.2651C33.1305 12.4136 33.8585 13.3809 35.2052 13.3809C36.5313 13.3809 37.2628 12.417 37.2628 11.2651L37.2628 10.7285C37.2628 9.57324 36.5518 8.60938 35.2052 8.60938C33.8824 8.60938 33.1305 9.57324 33.1305 10.7285L33.1305 11.2651ZM33.6021 19L34.7916 19L41.7916 8.81787L40.6021 8.81787L33.6021 19ZM39.4093 16.5527C39.4093 15.9819 39.6656 15.4316 40.3253 15.4316C41.0123 15.4316 41.2242 15.9819 41.2242 16.5527L41.2242 17.0894C41.2242 17.6636 40.9918 18.2139 40.3253 18.2139C39.6485 18.2139 39.4093 17.6567 39.4093 17.0894L39.4093 16.5527ZM34.296 10.7285C34.296 10.1611 34.5421 9.604 35.2052 9.604C35.8922 9.604 36.1041 10.1543 36.1041 10.7285L36.1041 11.2651C36.1041 11.8359 35.8717 12.3862 35.2052 12.3862C34.5284 12.3862 34.296 11.8359 34.296 11.2651L34.296 10.7285Z" fill="#FFFFFF" fill-opacity="1.000000" fill-rule="evenodd"/>
</svg>
