<svg width="128.000000" height="30.000000" viewBox="0 0 128 30" fill="none" xmlns="http://www.w3.org/2000/svg" xmlns:xlink="http://www.w3.org/1999/xlink">
	<desc>
			Created with Pixso.
	</desc>
	<defs/>
	<rect id="Frame 513702" rx="8.000000" width="128.000000" height="30.000000" fill="#5ED270" fill-opacity="1.000000"/>
	<path id="Лучшая цена" d="M12.3984 21L12.8984 21C15.5469 21 16.1836 19.0352 16.3359 15.2969L16.5156 10.8516L20.4883 10.8516L20.4883 21L22.2227 21L22.2227 9.36328L14.8633 9.36328L14.6641 14.8281C14.5391 18.1992 14.1289 19.4336 12.7383 19.4648L12.3984 19.4766L12.3984 21ZM25.7148 24.2734C27.1211 24.2734 28.0039 23.5391 28.5117 22.1641L32.1094 12.2734L30.2852 12.2734L28.0742 19.0469L27.9844 19.0469L25.7734 12.2734L23.9531 12.2734L27.1484 21.1133L26.9375 21.6914C26.5039 22.8516 25.8984 22.9492 24.9648 22.6914L24.5586 24.0859C24.7617 24.1758 25.2031 24.2734 25.7148 24.2734ZM40.4496 12.2734L38.7894 12.2734L38.7894 16.6211C38.2152 16.7734 37.6371 16.8633 36.973 16.8633C35.8129 16.8633 35.098 16.3398 35.098 15.1094L35.098 12.2539L33.4418 12.2539L33.4418 15.1094C33.4418 17.2891 34.8129 18.3281 36.973 18.3281C37.6293 18.3281 38.2347 18.2383 38.7894 18.0977L38.7894 21L40.4496 21L40.4496 12.2734ZM42.7145 12.2734L42.7145 21L53.7457 21L53.7457 12.2734L52.0778 12.2734L52.0778 19.5273L49.0621 19.5273L49.0621 12.2734L47.3981 12.2734L47.3981 19.5273L44.3825 19.5273L44.3825 12.2734L42.7145 12.2734ZM58.5472 21.1914C59.9886 21.1914 60.8011 20.4609 61.1254 19.8086L61.1918 19.8086L61.1918 21L62.8519 21L62.8519 15.2031C62.8519 12.6641 60.8519 12.1602 59.4652 12.1602C57.8871 12.1602 56.43 12.7969 55.8636 14.3867L57.4613 14.75C57.7113 14.1289 58.348 13.5352 59.4886 13.5352C60.5863 13.5352 61.1488 14.1094 61.1488 15.0977L61.1488 15.1367C61.1488 15.7539 60.5121 15.7461 58.9418 15.9258C57.2894 16.1211 55.598 16.5508 55.598 18.5352C55.598 20.25 56.8871 21.1914 58.5472 21.1914ZM58.9144 19.8281C57.9535 19.8281 57.2621 19.3984 57.2621 18.5586C57.2621 17.6484 58.0668 17.3242 59.0511 17.1914C59.6019 17.1211 60.9105 16.9727 61.1527 16.7266L61.1527 17.8516C61.1527 18.8867 60.3285 19.8281 58.9144 19.8281ZM70.3192 21L71.913 21L71.913 12.2734L68.2255 12.2734C66.2177 12.2734 64.9872 13.3125 64.9872 14.9531C64.9872 16.1016 65.5927 16.9492 66.6317 17.3398L64.5927 21L66.331 21L68.2333 17.5859L70.3192 17.5859L70.3192 21ZM70.3192 16.2109L68.1122 16.2109C67.1864 16.2109 66.6474 15.7227 66.6552 14.9766C66.6474 14.2266 67.2333 13.7227 68.2255 13.7227L70.3192 13.7227L70.3192 16.2109ZM85.5323 12.2734L83.88 12.2734L83.88 19.5352L80.0792 19.5352L80.0792 12.2734L78.4151 12.2734L78.4151 21L85.1417 21L85.1417 23.8125L86.8253 23.8125L86.8253 19.6094L85.5323 19.6094L85.5323 12.2734ZM92.3683 21.1758C94.2745 21.1758 95.6183 20.2383 96.005 18.8164L94.3995 18.5273C94.0909 19.3516 93.3526 19.7734 92.3878 19.7734C90.9308 19.7734 89.9542 18.8281 89.9073 17.1484L96.1143 17.1484L96.1143 16.5469C96.1143 13.3906 94.2276 12.1602 92.2511 12.1602C89.8175 12.1602 88.2159 14.0117 88.2159 16.6914C88.2159 19.4023 89.794 21.1758 92.3683 21.1758ZM89.9151 15.875C89.9815 14.6367 90.88 13.5625 92.2628 13.5625C93.5792 13.5625 94.4425 14.5391 94.4503 15.875L89.9151 15.875ZM99.6722 12.2734L98.0043 12.2734L98.0043 21L99.6722 21L99.6722 17.375L103.45 17.375L103.45 21L105.11 21L105.11 12.2734L103.45 12.2734L103.45 15.9023L99.6722 15.9023L99.6722 12.2734ZM109.917 21.1914C111.358 21.1914 112.17 20.4609 112.495 19.8086L112.561 19.8086L112.561 21L114.221 21L114.221 15.2031C114.221 12.6641 112.221 12.1602 110.835 12.1602C109.256 12.1602 107.799 12.7969 107.233 14.3867L108.831 14.75C109.081 14.1289 109.717 13.5352 110.858 13.5352C111.956 13.5352 112.518 14.1094 112.518 15.0977L112.518 15.1367C112.518 15.7539 111.881 15.7461 110.311 15.9258C108.659 16.1211 106.967 16.5508 106.967 18.5352C106.967 20.25 108.256 21.1914 109.917 21.1914ZM110.284 19.8281C109.323 19.8281 108.631 19.3984 108.631 18.5586C108.631 17.6484 109.436 17.3242 110.42 17.1914C110.971 17.1211 112.28 16.9727 112.522 16.7266L112.522 17.8516C112.522 18.8867 111.698 19.8281 110.284 19.8281Z" fill="#FFFFFF" fill-opacity="1.000000" fill-rule="evenodd"/>
</svg>
