<svg width="32.000000" height="32.000000" viewBox="0 0 32 32" fill="none" xmlns="http://www.w3.org/2000/svg" xmlns:xlink="http://www.w3.org/1999/xlink">
	<desc>
			Created with Pixso.
	</desc>
	<defs/>
	<path id="Vector" d="M5.90051 27C5.65442 26.9988 5.41724 26.9081 5.23315 26.7448C5.04907 26.5815 4.93091 26.3567 4.90051 26.1125L3.12549 10.1125C3.10974 9.97309 3.12341 9.83192 3.16577 9.69817C3.20813 9.56441 3.27808 9.44106 3.37122 9.33614C3.46436 9.23122 3.57861 9.14706 3.70642 9.08915C3.83411 9.03123 3.97266 9.00086 4.11304 9L27.8879 9C28.0283 9.00086 28.1669 9.03123 28.2947 9.08915C28.4224 9.14706 28.5366 9.23122 28.6298 9.33614C28.7229 9.44106 28.7928 9.56441 28.8352 9.69817C28.8776 9.83192 28.8912 9.97309 28.8755 10.1125L27.1005 26.1125C27.0701 26.3567 26.9519 26.5815 26.7678 26.7448C26.5837 26.9081 26.3466 26.9988 26.1005 27L5.90051 27Z" stroke="#2B2929" stroke-opacity="1.000000" stroke-width="1.500000" stroke-linejoin="round"/>
	<path id="Vector" d="M11 9C11 7.67392 11.5267 6.40215 12.4645 5.46446C13.4021 4.52679 14.674 4 16 4C17.326 4 18.5979 4.52679 19.5355 5.46446C20.4733 6.40215 21 7.67392 21 9" stroke="#2B2929" stroke-opacity="1.000000" stroke-width="1.500000" stroke-linejoin="round" stroke-linecap="round"/>
</svg>
