<svg width="18.000000" height="18.000000" viewBox="0 0 18 18" fill="none" xmlns="http://www.w3.org/2000/svg" xmlns:xlink="http://www.w3.org/1999/xlink">
	<desc>
			Created with Pixso.
	</desc>
	<defs/>
	<path id="Vector" d="M13.5312 3.43555L13.5312 3.40723C13.8301 3.11035 14.2949 3.11035 14.5938 3.40723C14.8906 3.7041 14.8906 4.1709 14.5938 4.46777L14.5645 4.46777L13.5312 3.43555ZM4.46875 14.5645L4.46875 14.5928C4.16992 14.8896 3.70508 14.8896 3.40625 14.5928C3.10938 14.2959 3.10938 13.8291 3.40625 13.5322L3.43555 13.5322L4.46875 14.5645Z" fill="#716969" fill-opacity="1.000000" fill-rule="nonzero"/>
	<path id="Vector" d="M14.0625 3.9375L3.9375 14.0625" stroke="#716969" stroke-opacity="1.000000" stroke-width="1.500000" stroke-linejoin="round" stroke-linecap="round"/>
	<path id="Vector" d="M14.5645 13.5322L14.5938 13.5322C14.8906 13.8291 14.8906 14.2959 14.5938 14.5928C14.2949 14.8896 13.8301 14.8896 13.5312 14.5928L13.5312 14.5645L14.5645 13.5322ZM3.43555 4.46777L3.40625 4.46777C3.10938 4.1709 3.10938 3.7041 3.40625 3.40723C3.70508 3.11035 4.16992 3.11035 4.46875 3.40723L4.46875 3.43555L3.43555 4.46777Z" fill="#716969" fill-opacity="1.000000" fill-rule="nonzero"/>
	<path id="Vector" d="M14.0625 14.0625L3.9375 3.9375" stroke="#716969" stroke-opacity="1.000000" stroke-width="1.500000" stroke-linejoin="round" stroke-linecap="round"/>
</svg>
