<svg width="32.000000" height="32.000000" viewBox="0 0 32 32" fill="none" xmlns="http://www.w3.org/2000/svg" xmlns:xlink="http://www.w3.org/1999/xlink">
	<desc>
			Created with Pixso.
	</desc>
	<defs/>
	<path id="Vector" d="M3.5 11.5C3.5 9.99737 4.02063 8.54114 4.97327 7.37908C5.9259 6.21703 7.25183 5.42093 8.72522 5.12624C10.1987 4.83154 11.7288 5.05646 13.0551 5.76272C14.3813 6.46898 15.4221 7.61295 16 9.00001C16.5779 7.61295 17.6187 6.46898 18.9449 5.76272C20.2712 5.05646 21.8013 4.83154 23.2748 5.12624C24.7482 5.42093 26.0741 6.21703 27.0267 7.37908C27.9794 8.54114 28.5 9.99737 28.5 11.5C28.5 20 16 27 16 27C16 27 3.5 20 3.5 11.5Z" stroke="#2B2929" stroke-opacity="1.000000" stroke-width="1.500000" stroke-linejoin="round"/>
</svg>
