<svg width="110.814697" height="58.215759" viewBox="0 0 110.815 58.2158" fill="none" xmlns="http://www.w3.org/2000/svg" xmlns:xlink="http://www.w3.org/1999/xlink">
	<desc>
			Created with Pixso.
	</desc>
	<defs/>
	<path id="Vector" d="M18.5747 35.6376C17.6934 35.6376 17.0037 36.2574 17.0037 37.1619C17.0037 38.0671 17.697 38.6833 18.5747 38.6833C19.4517 38.6833 20.1458 38.0629 20.1458 37.1619C20.1458 36.2574 19.4553 35.6376 18.5747 35.6376ZM18.5747 38.2475C17.9463 38.2475 17.4802 37.786 17.4802 37.1619C17.4802 36.5385 17.9429 36.0734 18.5747 36.0734C19.1987 36.0734 19.6685 36.5457 19.6685 37.1619C19.6685 37.7747 19.1946 38.2475 18.5747 38.2475ZM33.8621 30.3057L26.2139 30.3057L27.0833 16.9387L22.1165 30.3057L15.0144 30.3057L26.2832 0.0922852L33.8401 0.0922852L32.9678 13.6428L38.0288 0.0922852L45.1316 0.0922852L33.8621 30.3057ZM34.7847 30.3057L46.053 0.0922852L53.155 0.0922852L41.887 30.3057L34.7847 30.3057Z" fill="#464646" fill-opacity="1.000000" fill-rule="evenodd"/>
	<path id="Vector" d="M14.1953 19.8916C4.27075 31.611 -5.09106 47.2045 3.17822 54.3853C11.1912 61.3439 21.2068 57.2239 28.0359 54.477C34.8652 51.73 110.348 18.7697 110.348 18.7697C111.076 18.4035 110.94 17.9456 110.029 18.1743C109.662 18.2665 27.8542 40.5597 27.8542 40.5597C17.4731 43.49 5.63647 37.1036 14.1953 19.8916Z" fill="#464646" fill-opacity="1.000000" fill-rule="evenodd"/>
	<path id="Vector" d="M18.8423 37.2692C19.0625 37.2584 19.2349 37.1441 19.2349 36.8374C19.2349 36.442 18.9778 36.3426 18.5483 36.3426L17.9314 36.3426L17.9314 37.9819L18.343 37.9819L18.343 37.284L18.4124 37.284L18.7871 37.9819L19.2603 37.9819L18.8423 37.2692ZM18.5781 37.0035L18.3435 37.0035L18.3435 36.623L18.5413 36.623C18.6628 36.623 18.802 36.6373 18.802 36.7963C18.802 36.9666 18.7214 37.0035 18.5781 37.0035ZM89.968 0C89.0867 0 88.3967 0.620483 88.3967 1.52441C88.3967 2.42889 89.0908 3.04523 89.968 3.04523C90.845 3.04523 91.5391 2.42474 91.5391 1.52441C91.5396 0.620483 90.8496 0 89.968 0ZM89.968 2.61053C89.3396 2.61053 88.8735 2.14905 88.8735 1.52496C88.8735 0.90155 89.3359 0.436462 89.968 0.436462C90.592 0.436462 91.0623 0.908691 91.0623 1.52496C91.0623 2.13776 90.5886 2.61053 89.968 2.61053Z" fill="#464646" fill-opacity="1.000000" fill-rule="evenodd"/>
	<path id="Vector" d="M90.2363 1.63159C90.4565 1.62085 90.6296 1.50653 90.6296 1.19983C90.6296 0.804443 90.3718 0.705017 89.9431 0.705017L89.3262 0.705017L89.3262 2.34375L89.7371 2.34375L89.7371 1.64648L89.8069 1.64648L90.1812 2.34375L90.655 2.34375L90.2363 1.63159ZM89.9717 1.36597L89.7371 1.36597L89.7371 0.985474L89.9355 0.985474C90.0564 0.985474 90.196 1.00037 90.196 1.15936C90.196 1.3291 90.115 1.36597 89.9717 1.36597ZM85.2886 5.12817L87.1973 0.0922852L65.5266 0.0922852L58.0857 9.15649L61.521 0.0922852L54.3276 0.0922852L43.1494 30.3057L50.2515 30.3057L55.0239 17.6711L55.3508 30.3057L77.1431 30.2581L79.2175 24.4464L70.9321 24.4464L73.6543 17.1221L80.4829 17.1221L82.584 11.4913L75.7554 11.4913L78.0964 5.12817L85.2886 5.12817ZM62.3967 28.2913L61.9414 12.5441L72.6797 0.688965L62.3967 28.2913Z" fill="#464646" fill-opacity="1.000000" fill-rule="evenodd"/>
</svg>
