<svg width="154.000000" height="22.000000" viewBox="0 0 154 22" fill="none" xmlns="http://www.w3.org/2000/svg" xmlns:xlink="http://www.w3.org/1999/xlink">
	<desc>
			Created with Pixso.
	</desc>
	<defs>
		<clipPath id="clip78_409">
			<rect id="logo" width="154.000000" height="22.000000" fill="white" fill-opacity="0"/>
		</clipPath>
	</defs>
	<rect id="logo" width="154.000000" height="22.000000" fill="#FFFFFF" fill-opacity="0"/>
	<g clip-path="url(#clip78_409)">
		<path id="Vector" d="M15.64 0C17.73 0 19.53 0.16 21.04 0.48C22.57 0.78 23.86 1.2 24.92 1.73C26 2.26 26.87 2.88 27.54 3.6C28.2 4.31 28.71 5.04 29.08 5.82C29.46 6.6 29.72 7.39 29.85 8.21C29.98 9.01 30.05 9.77 30.05 10.51L30.05 11.36C30.05 12.08 29.98 12.85 29.85 13.67C29.72 14.46 29.46 15.26 29.08 16.05C28.71 16.85 28.2 17.61 27.54 18.33C26.87 19.03 26 19.65 24.92 20.2C23.86 20.75 22.57 21.19 21.04 21.51C19.52 21.83 17.72 22 15.64 22L14.4 22C12.33 22 10.53 21.83 9 21.51C7.49 21.19 6.2 20.75 5.12 20.2C4.06 19.65 3.19 19.03 2.51 18.33C1.84 17.61 1.32 16.85 0.94 16.05C0.58 15.26 0.33 14.46 0.19 13.67C0.06 12.85 0 12.08 0 11.36L0 10.51C0 9.77 0.06 9.01 0.19 8.21C0.33 7.39 0.58 6.6 0.94 5.82C1.32 5.04 1.84 4.31 2.51 3.6C3.17 2.88 4.03 2.26 5.1 1.73C6.17 1.2 7.47 0.78 8.98 0.48C10.5 0.16 12.31 0 14.4 0L15.64 0ZM20.3 10.68C20.3 10.23 20.2 9.76 20.02 9.29C19.86 8.82 19.57 8.39 19.15 8.01C18.75 7.63 18.21 7.33 17.53 7.1C16.85 6.85 16.01 6.73 15 6.73C13.97 6.73 13.11 6.85 12.43 7.1C11.75 7.33 11.22 7.63 10.82 8.01C10.42 8.39 10.14 8.82 9.97 9.29C9.81 9.76 9.72 10.23 9.72 10.68L9.72 11.02C9.72 11.5 9.81 11.98 9.97 12.47C10.15 12.97 10.45 13.42 10.87 13.84C11.28 14.24 11.82 14.57 12.48 14.83C13.16 15.08 14 15.2 15 15.2C16.01 15.2 16.85 15.08 17.51 14.83C18.19 14.59 18.74 14.26 19.15 13.87C19.57 13.47 19.86 13.02 20.02 12.53C20.2 12.04 20.3 11.55 20.3 11.08L20.3 10.68Z" fill="#2B2929" fill-opacity="1.000000" fill-rule="nonzero"/>
		<path id="Vector" d="M43.61 22C41.03 22 38.9 21.67 37.25 21.03C35.59 20.37 34.28 19.52 33.31 18.5C32.37 17.46 31.71 16.31 31.35 15.06C30.98 13.79 30.8 12.55 30.8 11.34L30.8 10.48C30.8 9.14 31.01 7.84 31.42 6.59C31.84 5.32 32.58 4.2 33.64 3.24C34.72 2.25 36.17 1.46 37.99 0.88C39.83 0.29 42.18 0 45.03 0L45.83 0C48.02 0 49.89 0.14 51.45 0.42C53.01 0.69 54.32 1.05 55.38 1.5C56.44 1.94 57.29 2.45 57.92 3.04C58.55 3.62 59.03 4.23 59.36 4.86C59.71 5.46 59.93 6.08 60.03 6.7C60.13 7.31 60.18 7.87 60.18 8.38L60.18 8.41L50.53 8.41C50.5 8.28 50.41 8.1 50.28 7.87C50.17 7.64 49.93 7.42 49.59 7.21C49.25 6.99 48.77 6.8 48.14 6.65C47.53 6.48 46.71 6.39 45.68 6.39C44.75 6.39 43.96 6.5 43.32 6.73C42.67 6.94 42.14 7.23 41.72 7.61C41.31 7.99 41 8.45 40.8 8.98C40.62 9.51 40.53 10.09 40.53 10.74L40.53 11C40.53 11.66 40.62 12.28 40.8 12.87C40.99 13.44 41.28 13.94 41.67 14.38C42.09 14.79 42.61 15.13 43.24 15.37C43.89 15.62 44.68 15.74 45.61 15.74C46.52 15.74 47.27 15.68 47.87 15.54C48.48 15.39 48.96 15.22 49.31 15.03C49.68 14.82 49.93 14.61 50.06 14.41C50.21 14.2 50.28 14.02 50.28 13.87L45.28 13.87L45.28 9.55L60.31 9.55L60.31 21.57L53.96 21.57C53.88 21.27 53.73 20.89 53.52 20.43C53.3 19.98 53.08 19.62 52.84 19.35C52.7 19.5 52.43 19.73 52.05 20.03C51.68 20.32 51.16 20.61 50.48 20.91C49.82 21.2 48.98 21.45 47.97 21.65C46.96 21.88 45.72 22 44.26 22L43.61 22Z" fill="#2B2929" fill-opacity="1.000000" fill-rule="nonzero"/>
		<path id="Vector" d="M77.61 19.55C76.4 19.55 75.36 19.47 74.51 19.31C73.65 19.17 72.93 18.96 72.34 18.71C71.75 18.45 71.28 18.16 70.93 17.83C70.59 17.5 70.32 17.16 70.14 16.8C69.96 16.45 69.84 16.1 69.79 15.76C69.74 15.4 69.71 15.08 69.71 14.78L69.71 14.64L76.85 14.64C76.85 14.78 76.87 14.94 76.92 15.11C76.96 15.28 77.04 15.44 77.17 15.59C77.3 15.74 77.49 15.86 77.73 15.96C77.99 16.06 78.33 16.1 78.75 16.1C79.1 16.1 79.39 16.08 79.63 16.03C79.86 15.97 80.05 15.9 80.19 15.81C80.33 15.73 80.43 15.63 80.48 15.52C80.54 15.4 80.57 15.27 80.57 15.15L80.57 15.1C80.57 14.99 80.55 14.88 80.51 14.77C80.48 14.66 80.39 14.56 80.24 14.47C80.09 14.39 79.86 14.31 79.56 14.25C79.27 14.19 78.87 14.15 78.36 14.12L75.84 14.03C74.61 13.98 73.61 13.83 72.84 13.57C72.07 13.32 71.46 12.99 71.02 12.6C70.6 12.21 70.3 11.76 70.14 11.26C69.98 10.76 69.9 10.24 69.9 9.7L69.9 9.54C69.9 8.9 70.02 8.33 70.27 7.82C70.52 7.3 70.93 6.87 71.52 6.51C72.11 6.15 72.89 5.87 73.85 5.69C74.82 5.49 76.03 5.39 77.48 5.39L79.52 5.39C81.12 5.39 82.43 5.51 83.45 5.74C84.48 5.96 85.28 6.27 85.86 6.66C86.44 7.05 86.85 7.51 87.08 8.04C87.3 8.55 87.41 9.1 87.41 9.69L87.41 9.78L80.41 9.78C80.4 9.67 80.38 9.55 80.33 9.43C80.29 9.29 80.21 9.17 80.08 9.06C79.95 8.95 79.77 8.86 79.53 8.79C79.3 8.71 78.98 8.68 78.58 8.68C78.22 8.68 77.93 8.7 77.7 8.73C77.48 8.76 77.3 8.8 77.17 8.86C77.04 8.92 76.96 9 76.92 9.1C76.87 9.18 76.85 9.28 76.85 9.39L76.85 9.43C76.85 9.56 76.88 9.68 76.95 9.78C77.02 9.86 77.15 9.94 77.32 10.02C77.49 10.08 77.72 10.13 78.02 10.18C78.32 10.22 78.7 10.24 79.16 10.25L81.57 10.33C82.74 10.36 83.72 10.47 84.51 10.66C85.31 10.84 85.96 11.1 86.45 11.45C86.95 11.79 87.31 12.22 87.53 12.73C87.75 13.23 87.86 13.83 87.86 14.53L87.86 14.78C87.86 15.4 87.75 15.99 87.54 16.56C87.33 17.12 86.92 17.63 86.32 18.08C85.73 18.52 84.91 18.88 83.85 19.15C82.79 19.42 81.41 19.55 79.71 19.55L77.61 19.55Z" fill="#2B2929" fill-opacity="1.000000" fill-rule="nonzero"/>
		<path id="Vector" d="M93.03 10.33L87.88 10.33L87.88 5.63L104.29 5.63L104.29 10.33L99.13 10.33L99.13 19.28L93.03 19.28L93.03 10.33Z" fill="#2B2929" fill-opacity="1.000000" fill-rule="nonzero"/>
		<path id="Vector" d="M111.23 14.44L104.4 5.63L111.43 5.63L114.5 9.74L117.61 5.63L124.08 5.63L117.33 14.53L117.33 19.28L111.23 19.28L111.23 14.44Z" fill="#2B2929" fill-opacity="1.000000" fill-rule="nonzero"/>
		<path id="Vector" d="M130.41 5.63L130.41 14.42L138.7 14.42L138.7 19.28L124.31 19.28L124.31 5.63L130.41 5.63Z" fill="#2B2929" fill-opacity="1.000000" fill-rule="nonzero"/>
		<path id="Vector" d="M153.93 5.63L153.93 9.45L145.54 9.45L145.54 10.51L153.84 10.51L153.84 14.25L145.54 14.25L145.54 15.43L154 15.43L154 19.28L139.53 19.28L139.53 5.63L153.93 5.63Z" fill="#2B2929" fill-opacity="1.000000" fill-rule="nonzero"/>
	</g>
</svg>
