<svg width="179.000000" height="83.000000" viewBox="0 0 179 83" fill="none" xmlns="http://www.w3.org/2000/svg" xmlns:xlink="http://www.w3.org/1999/xlink">
	<desc>
			Created with Pixso.
	</desc>
	<defs/>
	<path id="Vector" d="M74.1392 38.0087L53.5591 38.7428L73.1001 39.8305L74.1392 38.0087ZM71.6774 42.3404L51.0485 43.0754L70.6622 44.167L71.6774 42.3404ZM69.2156 46.7085L48.6125 47.433L68.2024 48.5236L69.2156 46.7085ZM66.8046 51.0546L46.1757 51.7906L65.7426 52.8793L66.8046 51.0546ZM92.0221 16.1442L65.755 17.0805L92.0968 18.5468L92.0221 16.1442ZM91.8557 11.8451L68.2589 12.6741L91.9303 14.0339L91.8557 11.8451ZM91.6873 7.69836L70.6632 8.39124L91.7887 9.56616L91.6873 7.69836ZM91.5457 3.44141L73.1173 4.05859L91.6184 5.15302L91.5457 3.44141ZM91.426 0L75.3983 0L91.45 0.852905L91.426 0ZM64.3188 55.3987L43.7397 56.1453L63.8989 56.1453L64.3188 55.3987Z" fill="#464646" fill-opacity="1.000000" fill-rule="evenodd"/>
	<path id="Vector" d="M134.062 0.138977L104.404 0.138977L103.563 1.63013L118.404 2.41888C118.578 2.41888 118.578 2.66614 118.329 2.66614L102.698 3.18939L101.19 5.83246L115.93 6.70453C116.128 6.72949 116.079 7.00165 115.906 7.00165L100.248 7.51721L98.7911 10.0482L113.507 10.8666C113.829 10.8915 113.829 11.1647 113.507 11.1647L97.8756 11.7138L96.3916 14.3607L111.059 15.2031C111.38 15.228 111.356 15.5251 111.059 15.5251L95.4272 16.0829L93.9174 18.6972L108.609 19.5146C108.831 19.5396 108.857 19.8127 108.56 19.8127L63.5179 21.324L106.26 23.7026C106.531 23.7026 106.507 24.0496 106.209 24.0496L61.0945 25.6605L103.836 28.0381C104.034 28.0381 104.083 28.3602 103.786 28.3602L58.5963 29.9951L101.338 32.3737C101.512 32.3986 101.683 32.7206 101.314 32.7455L56.1968 34.3536L98.9375 36.7313C99.061 36.7562 99.1844 37.0782 98.8888 37.0782L76.1818 37.8889L76.2563 39.9417L96.4893 41.0677C96.6366 41.0927 96.7112 41.3898 96.4385 41.3898L76.3311 42.1056L76.4296 44.4018L93.9921 45.3793C94.1643 45.4042 94.2389 45.7512 93.9413 45.7512L76.5281 46.3635L76.6038 48.883L91.5686 49.7158C91.7407 49.7397 91.7905 50.0618 91.4939 50.0618L76.6783 50.5917L76.7769 53.3632L89.144 54.0513C89.3182 54.0762 89.3182 54.3743 89.0704 54.3743L76.8267 54.818L76.8763 56.0092L116.799 56.0092C127.384 56.0092 136.881 48.2792 138.663 42.1344C140.445 35.9905 140.445 30.4407 131.936 27.6663C136.686 26.5757 144.946 21.21 146.579 13.7915C148.06 7.05145 145.588 0.163879 134.062 0.138977ZM113.981 43.1684L101.713 43.1684L108.638 30.8796L117.741 30.8796C127.14 30.8796 122.588 43.1684 113.981 43.1684ZM129.859 16.8055C129.463 18.2919 126.494 22.0581 122.736 22.0581L113.634 22.0581L119.47 11.7521L124.121 11.7521C130.056 11.9505 130.254 15.32 129.859 16.8055ZM179 73.8161C179 69.0541 175.048 65.0656 170.293 65.0656C165.416 65.0656 161.434 69.1174 161.434 74.095C161.429 75.2659 161.655 76.4261 162.1 77.5088C162.546 78.5915 163.2 79.5752 164.027 80.4031C164.854 81.231 165.836 81.8867 166.917 82.3324C167.998 82.7781 169.156 83.0049 170.325 82.9999C173.935 82.9999 177.362 80.5264 178.381 77.1559L173.874 77.1559C172.978 78.5781 171.807 79.2269 170.2 79.2269C168.163 79.2269 166.343 77.8354 165.755 75.8564L178.782 75.8564C178.938 74.899 179 74.4342 179 73.8161ZM165.633 72.624C166.219 70.3047 168.072 68.8203 170.356 68.8203C172.641 68.8203 174.431 70.2741 174.986 72.624L165.633 72.624ZM120.478 65.8906L120.478 67.2793C119.183 65.8878 117.306 65.0962 115.298 65.0962C110.853 65.0962 107.063 68.8989 107.063 73.8468C107.063 78.5148 110.416 82.7018 115.386 82.7018C117.578 82.7018 119.245 82.1949 120.819 80.4018L120.819 82.5974L124.587 82.5974L124.587 65.8906L120.478 65.8906ZM115.877 79.1608C114.504 79.1608 113.188 78.6145 112.217 77.6421C111.246 76.6697 110.701 75.3508 110.701 73.9757C110.701 72.6005 111.246 71.2817 112.217 70.3093C113.188 69.3369 114.504 68.7906 115.877 68.7906C117.25 68.7906 118.567 69.3369 119.538 70.3093C120.508 71.2817 121.054 72.6005 121.054 73.9757C121.054 75.3508 120.508 76.6697 119.538 77.6421C118.567 78.6145 117.25 79.1608 115.877 79.1608ZM8.21191 65.0646C6.51465 65.0646 5.21826 65.652 3.79736 67.1058L3.79736 65.467L0 65.467L0 82.5974L4.10645 82.5974L4.10645 74.5262C4.10645 72.3317 4.29114 68.8365 7.31641 68.8365C10.1561 68.8365 10.4651 72.1141 10.4651 74.2167L10.4651 82.5964L14.5707 82.5964L14.5707 73.4127C14.5707 71.0005 14.386 69.8572 13.7373 68.4963C12.7805 66.4561 10.5273 65.0646 8.21191 65.0646ZM33.7233 73.8161C33.7233 69.0541 29.7717 65.0656 25.0176 65.0656C20.14 65.0656 16.158 69.1174 16.158 74.095C16.1531 75.2657 16.3798 76.4258 16.8248 77.5084C17.2699 78.591 17.9246 79.5746 18.7511 80.4025C19.5776 81.2303 20.5596 81.886 21.6404 82.3318C22.7212 82.7776 23.8794 83.0047 25.0482 82.9999C28.66 82.9999 32.0862 80.5264 33.1052 77.1559L28.5988 77.1559C27.7032 78.5781 26.5303 79.2269 24.9248 79.2269C22.8878 79.2269 21.0662 77.8354 20.4796 75.8564L33.5061 75.8564C33.662 74.899 33.7233 74.4342 33.7233 73.8161ZM20.3572 72.624C20.9437 70.3047 22.796 68.8203 25.0807 68.8203C27.3655 68.8203 29.1556 70.2741 29.7115 72.624L20.3572 72.624ZM101.276 82.583L105.381 82.583L105.381 59.7324L101.276 59.7324L101.276 82.583ZM135.418 65.0646C133.72 65.0646 132.423 65.652 131.003 67.1058L131.003 65.467L127.205 65.467L127.205 82.5974L131.313 82.5974L131.313 74.5262C131.313 72.3317 131.497 68.8365 134.523 68.8365C137.361 68.8365 137.671 72.1141 137.671 74.2167L137.671 82.5964L141.777 82.5964L141.777 73.4127C141.777 71.0005 141.592 69.8572 140.944 68.4963C139.987 66.4561 137.734 65.0646 135.418 65.0646ZM152.026 68.8375C153.908 68.8375 154.988 69.4567 156.008 71.1874L160.637 71.1874C159.372 67.5083 156.131 65.0646 152.179 65.0646C147.178 65.0646 143.164 69.0532 143.164 73.9704C143.164 78.9174 147.208 82.9989 152.179 82.9989C153.447 82.9923 154.699 82.7223 155.857 82.206C157.016 81.6896 158.054 80.9383 158.908 79.9993C159.773 79.041 160.082 78.4842 160.637 76.97L156.008 76.97C155.049 78.4535 153.816 79.226 152.273 79.226C149.4 79.226 147.272 76.9997 147.272 74.0308C147.272 71.0331 149.309 68.8375 152.026 68.8375ZM49.4161 75.9187L46.5085 65.468L43.2048 65.468L40.2656 75.9187L36.7897 65.468L33.1674 65.468L38.8773 82.5974L41.5076 82.5974L44.8418 71.4979L48.0824 82.5974L50.8427 82.5974L56.3182 65.468L52.9237 65.468L49.4161 75.9187ZM71.4132 65.0828C69.4069 65.0828 67.5297 65.8744 66.2333 67.2649L66.2333 59.7333L62.1268 59.7333L62.1268 82.583L65.8927 82.583L65.8927 80.3884C67.4675 82.1815 69.1343 82.6874 71.3262 82.6874C76.2966 82.6874 79.6492 78.5015 79.6492 73.8324C79.65 68.8854 75.8594 65.0828 71.4132 65.0828ZM70.8344 79.1608C69.4614 79.1608 68.1448 78.6145 67.174 77.6421C66.2031 76.6697 65.6578 75.3508 65.6578 73.9757C65.6578 72.6005 66.2031 71.2817 67.174 70.3093C68.1448 69.3369 69.4614 68.7906 70.8344 68.7906C72.2073 68.7906 73.524 69.3369 74.4948 70.3093C75.4656 71.2817 76.011 72.6005 76.011 73.9757C76.011 75.3508 75.4656 76.6697 74.4948 77.6421C73.524 78.6145 72.2073 79.1608 70.8344 79.1608ZM94.4264 65.8906L94.4264 67.2793C93.13 65.8878 91.2538 65.0962 89.2465 65.0962C84.8013 65.0962 81.0096 68.8989 81.0096 73.8468C81.0096 78.5148 84.3632 82.7018 89.3325 82.7018C91.5245 82.7018 93.1912 82.1949 94.7661 80.4018L94.7661 82.5974L98.5319 82.5974L98.5319 65.8906L94.4264 65.8906ZM89.8263 79.1608C88.4534 79.1608 87.1366 78.6145 86.1659 77.6421C85.1951 76.6697 84.6497 75.3508 84.6497 73.9757C84.6497 72.6005 85.1951 71.2817 86.1659 70.3093C87.1366 69.3369 88.4534 68.7906 89.8263 68.7906C91.1992 68.7906 92.5159 69.3369 93.4867 70.3093C94.4575 71.2817 95.0028 72.6005 95.0028 73.9757C95.0028 75.3508 94.4575 76.6697 93.4867 77.6421C92.5159 78.6145 91.1992 79.1608 89.8263 79.1608Z" fill="#464646" fill-opacity="1.000000" fill-rule="evenodd"/>
</svg>
