<svg width="187.000000" height="27.000000" viewBox="0 0 187 27" fill="none" xmlns="http://www.w3.org/2000/svg" xmlns:xlink="http://www.w3.org/1999/xlink">
	<desc>
			Created with Pixso.
	</desc>
	<defs>
		<clipPath id="clip7_2544">
			<rect id="logo" width="187.000000" height="27.000000" fill="white" fill-opacity="0"/>
		</clipPath>
	</defs>
	<rect id="logo" width="187.000000" height="27.000000" fill="#FFFFFF" fill-opacity="0"/>
	<g clip-path="url(#clip7_2544)">
		<path id="Vector" d="M19.0022 0C21.5398 0 23.7249 0.197676 25.5576 0.593023C27.4106 0.965118 28.9814 1.47675 30.2705 2.1279C31.5796 2.77907 32.637 3.54652 33.4426 4.43024C34.248 5.2907 34.8726 6.19768 35.3154 7.15116C35.7788 8.10464 36.0908 9.08136 36.252 10.0814C36.4131 11.0582 36.4937 12 36.4937 12.9069L36.4937 13.9535C36.4937 14.8372 36.4131 15.7791 36.252 16.779C36.0908 17.7558 35.7788 18.7326 35.3154 19.7093C34.8726 20.6861 34.248 21.6163 33.4426 22.5C32.637 23.3604 31.5796 24.1279 30.2705 24.8023C28.9814 25.4767 27.4106 26.0116 25.5576 26.4069C23.7048 26.8024 21.5195 27 19.0022 27L17.4917 27C14.9741 27 12.7888 26.8024 10.936 26.4069C9.10327 26.0116 7.53223 25.4767 6.22339 24.8023C4.93433 24.1279 3.87695 23.3604 3.05127 22.5C2.24561 21.6163 1.61108 20.6861 1.14795 19.7093C0.704834 18.7326 0.402832 17.7558 0.241699 16.779C0.0805664 15.7791 0 14.8372 0 13.9535L0 12.9069C0 12 0.0805664 11.0582 0.241699 10.0814C0.402832 9.08136 0.704834 8.10464 1.14795 7.15116C1.61108 6.19768 2.24561 5.2907 3.05127 4.43024C3.85693 3.54652 4.90405 2.77907 6.19312 2.1279C7.5022 1.47675 9.073 0.965118 10.9058 0.593023C12.7588 0.197676 14.9539 0 17.4917 0L19.0022 0ZM24.6514 13.1163C24.6514 12.5581 24.5405 11.9884 24.3191 11.407C24.1177 10.8255 23.7651 10.3023 23.2617 9.83722C22.7783 9.37212 22.1238 9 21.2981 8.72093C20.4724 8.41863 19.4451 8.26744 18.2166 8.26744C16.968 8.26744 15.9307 8.41863 15.105 8.72093C14.2793 9 13.6248 9.37212 13.1414 9.83722C12.658 10.3023 12.3157 10.8255 12.1143 11.407C11.9128 11.9884 11.812 12.5581 11.812 13.1163L11.812 13.5349C11.812 14.1163 11.9128 14.7093 12.1143 15.3139C12.3357 15.9186 12.6982 16.4767 13.2019 16.9884C13.7053 17.4768 14.3599 17.8837 15.1655 18.2093C15.9912 18.5116 17.0083 18.6628 18.2166 18.6628C19.4451 18.6628 20.4624 18.5116 21.2678 18.2093C22.0935 17.907 22.7583 17.5116 23.2617 17.0233C23.7651 16.5349 24.1177 15.9884 24.3191 15.3837C24.5405 14.7791 24.6514 14.186 24.6514 13.6047L24.6514 13.1163Z" fill="#2B2929" fill-opacity="1.000000" fill-rule="nonzero"/>
		<path id="Vector" d="M52.9666 27C49.8247 27 47.2468 26.6047 45.2329 25.814C43.2188 25 41.6277 23.9651 40.4597 22.7093C39.3118 21.4302 38.5161 20.0233 38.073 18.4884C37.6299 16.9302 37.4084 15.407 37.4084 13.9186L37.4084 12.8721C37.4084 11.2209 37.6602 9.6279 38.1636 8.09303C38.6672 6.53489 39.5635 5.16279 40.8523 3.97675C42.1614 2.76744 43.9238 1.80233 46.1392 1.08139C48.3748 0.360466 51.2246 0 54.6887 0L55.6553 0C58.3137 0 60.5896 0.174419 62.4829 0.523256C64.376 0.848839 65.967 1.2907 67.2559 1.84884C68.5452 2.38372 69.572 3.01163 70.3374 3.73256C71.1025 4.45349 71.687 5.19767 72.0898 5.96512C72.5127 6.7093 72.7842 7.46514 72.9055 8.23253C73.0261 8.97678 73.0864 9.66281 73.0864 10.2907L73.0864 10.3256L61.365 10.3256C61.3247 10.1628 61.2239 9.94188 61.063 9.66281C60.9219 9.38374 60.6399 9.11628 60.217 8.8605C59.8142 8.58143 59.2302 8.34881 58.4648 8.16278C57.7197 7.95346 56.7227 7.84887 55.4741 7.84887C54.3462 7.84887 53.3896 7.98837 52.604 8.26744C51.8186 8.52329 51.1741 8.88373 50.6707 9.34882C50.167 9.81392 49.7947 10.3721 49.553 11.0233C49.3313 11.6745 49.2205 12.3953 49.2205 13.186L49.2205 13.5C49.2205 14.3139 49.3313 15.0814 49.553 15.8023C49.7744 16.5 50.127 17.1163 50.6104 17.6512C51.1138 18.1628 51.748 18.5698 52.5134 18.8721C53.2988 19.1744 54.2556 19.3256 55.3833 19.3256C56.4912 19.3256 57.4075 19.2442 58.1326 19.0814C58.8777 18.8954 59.4617 18.686 59.8848 18.4535C60.3279 18.1977 60.6299 17.9419 60.791 17.686C60.9722 17.4302 61.063 17.2093 61.063 17.0233L54.9907 17.0233L54.9907 11.7209L73.2378 11.7209L73.2378 26.4768L65.5342 26.4768C65.4336 26.1046 65.252 25.6395 64.99 25.0814C64.7285 24.5233 64.4565 24.0814 64.1743 23.7558C63.9934 23.9419 63.6709 24.221 63.208 24.593C62.7646 24.9418 62.1304 25.3023 61.3044 25.6744C60.499 26.0233 59.4819 26.3256 58.2534 26.5814C57.0249 26.8605 55.5244 27 53.752 27L52.9666 27Z" fill="#2B2929" fill-opacity="1.000000" fill-rule="nonzero"/>
		<path id="Vector" d="M94.2412 24.0012C92.7727 24.0012 91.5193 23.9037 90.4792 23.7086C89.4399 23.5286 88.5627 23.2811 87.8484 22.966C87.1338 22.6509 86.562 22.2908 86.1328 21.8857C85.7175 21.4806 85.3989 21.0605 85.1785 20.6254C84.9573 20.1903 84.8147 19.7627 84.7493 19.3426C84.6846 18.9074 84.6519 18.5098 84.6519 18.1498L84.6519 17.9697L93.3252 17.9697C93.3252 18.1498 93.3508 18.3448 93.4031 18.5548C93.4551 18.7649 93.5588 18.96 93.7146 19.14C93.8706 19.3201 94.0979 19.4701 94.397 19.5901C94.7087 19.7102 95.1184 19.7702 95.625 19.7702C96.0535 19.7702 96.4109 19.7402 96.6968 19.6801C96.9829 19.6052 97.2102 19.5151 97.3794 19.4101C97.5476 19.305 97.6653 19.1851 97.73 19.05C97.8079 18.9 97.8467 18.7499 97.8467 18.5999L97.8467 18.5323C97.8467 18.3973 97.821 18.2623 97.7688 18.1273C97.73 17.9922 97.6194 17.8722 97.4377 17.7672C97.2556 17.6622 96.9829 17.5721 96.6189 17.4971C96.2683 17.4221 95.7808 17.3696 95.1575 17.3395L92.0974 17.227C90.603 17.167 89.3877 16.9795 88.4529 16.6644C87.5171 16.3493 86.7827 15.9517 86.2498 15.4716C85.7302 14.9915 85.3733 14.4439 85.1785 13.8287C84.9829 13.2136 84.8855 12.5759 84.8855 11.9157L84.8855 11.7132C84.8855 10.933 85.0352 10.2278 85.3342 9.59766C85.6328 8.96745 86.1399 8.43484 86.8542 7.99973C87.5686 7.54965 88.5112 7.21204 89.6807 6.98698C90.8625 6.74692 92.3311 6.62688 94.0854 6.62688L96.5605 6.62688C98.5098 6.62688 100.101 6.76942 101.335 7.05449C102.583 7.32458 103.557 7.69968 104.259 8.1798C104.974 8.65992 105.468 9.22256 105.74 9.86766C106.014 10.4979 106.15 11.173 106.15 11.8932L106.15 12.0057L97.6521 12.0057C97.6389 11.8707 97.6067 11.7282 97.5547 11.5781C97.5024 11.413 97.3987 11.263 97.2429 11.128C97.0864 10.993 96.866 10.8805 96.5801 10.7905C96.2942 10.7004 95.9109 10.6554 95.4302 10.6554C94.9883 10.6554 94.6309 10.6779 94.3582 10.7229C94.0854 10.7529 93.8706 10.8054 93.7146 10.8805C93.5588 10.9555 93.4551 11.053 93.4031 11.173C93.3508 11.278 93.3252 11.3981 93.3252 11.5331L93.3252 11.5781C93.3252 11.7431 93.364 11.8857 93.4419 12.0057C93.5332 12.1108 93.6826 12.2083 93.8899 12.2983C94.0979 12.3733 94.3838 12.4409 94.7478 12.5009C95.1116 12.5459 95.5728 12.5759 96.1321 12.5909L99.0552 12.6809C100.471 12.7259 101.66 12.861 102.622 13.086C103.596 13.311 104.382 13.6337 104.98 14.0537C105.591 14.4738 106.026 14.999 106.286 15.6291C106.559 16.2443 106.695 16.9795 106.695 17.8347L106.695 18.1498C106.695 18.9 106.565 19.6277 106.306 20.3328C106.046 21.023 105.552 21.6456 104.824 22.2008C104.11 22.7409 103.109 23.176 101.823 23.5061C100.537 23.8362 98.8604 24.0012 96.7942 24.0012L94.2412 24.0012Z" fill="#2B2929" fill-opacity="1.000000" fill-rule="nonzero"/>
		<path id="Vector" d="M112.975 12.6808L106.719 12.6808L106.719 6.91936L126.638 6.91936L126.638 12.6808L120.381 12.6808L120.381 23.6635L112.975 23.6635L112.975 12.6808Z" fill="#2B2929" fill-opacity="1.000000" fill-rule="nonzero"/>
		<path id="Vector" d="M135.066 17.722L126.783 6.91926L135.319 6.91926L139.042 11.9605L142.823 6.91926L150.677 6.91926L142.472 17.8345L142.472 23.6634L135.066 23.6634L135.066 17.722Z" fill="#2B2929" fill-opacity="1.000000" fill-rule="nonzero"/>
		<path id="Vector" d="M158.364 6.91926L158.364 17.6994L168.421 17.6994L168.421 23.6634L150.958 23.6634L150.958 6.91926L158.364 6.91926Z" fill="#2B2929" fill-opacity="1.000000" fill-rule="nonzero"/>
		<path id="Vector" d="M186.922 6.91936L186.922 11.6005L176.729 11.6005L176.729 12.9059L186.805 12.9059L186.805 17.497L176.729 17.497L176.729 18.9374L187 18.9374L187 23.6635L169.439 23.6635L169.439 6.91936L186.922 6.91936Z" fill="#2B2929" fill-opacity="1.000000" fill-rule="nonzero"/>
	</g>
</svg>
