<svg width="132.000000" height="89.000000" viewBox="0 0 132 89" fill="none" xmlns="http://www.w3.org/2000/svg" xmlns:xlink="http://www.w3.org/1999/xlink">
	<desc>
			Created with Pixso.
	</desc>
	<defs/>
	<path id="Vector" d="M126.636 59.1515L126.993 59.1515C127.212 59.1515 127.37 59.1923 127.47 59.2924C127.51 59.3124 127.53 59.3331 127.549 59.3524C127.708 59.4932 127.887 59.7756 128.106 60.1581L128.444 60.7616L129.159 60.7616L128.723 60.0173C128.503 59.6749 128.305 59.4131 128.166 59.2723C128.074 59.1852 127.966 59.1169 127.848 59.0714C128.166 59.0514 128.424 58.9305 128.623 58.7289C128.821 58.5273 128.922 58.2864 128.922 58.004C128.922 57.803 128.861 57.6215 128.742 57.4606C128.631 57.2859 128.462 57.1573 128.266 57.0981C128.107 57.038 127.869 56.9973 127.55 56.9973C127.491 56.9973 127.411 56.9773 127.332 56.9773L126.041 56.9773L126.041 60.7609L126.636 60.7609L126.636 59.1515ZM126.636 57.5006L127.549 57.5006C127.729 57.5214 127.847 57.5414 127.927 57.5614C128.035 57.5925 128.127 57.6644 128.184 57.7623C128.244 57.8424 128.264 57.9439 128.264 58.0648C128.266 58.1411 128.251 58.217 128.22 58.2866C128.189 58.3563 128.143 58.4178 128.085 58.4666C127.985 58.5674 127.806 58.6074 127.549 58.6281L126.635 58.6281L126.635 57.5006L126.636 57.5006ZM37.4386 57.9239L42.8015 57.9239L37.4386 48.8667L32.9097 41.2394L13.6644 52.9527L16.6037 57.9239L37.4386 57.9239ZM87.3302 57.9239L113.528 57.9239L97.2206 30.3912L79.1874 0L71.7587 4.52863L59.9612 11.7133L71.7587 31.6188L87.3302 57.9239ZM78.175 67.0011C76.3271 65.7943 74.1618 65.0893 71.818 65.0893L71.7587 65.0893C65.2845 65.1293 60.0212 70.483 60.0212 77.0443C60.0212 83.6063 65.2845 88.9592 71.7587 89L71.818 89C74.1618 89 76.3271 88.2958 78.175 87.0882L78.175 88.3358L83.5964 88.3358L83.5964 57.9246L78.175 57.9246L78.175 67.0011ZM78.175 78.2926C77.5992 81.312 74.957 83.6256 71.818 83.6256L71.7587 83.6256C68.2034 83.5856 65.3241 80.647 65.3241 77.0443C65.3241 73.4423 68.2034 70.5038 71.7587 70.483L71.818 70.483C74.957 70.483 77.5985 72.7781 78.175 75.7967L78.175 78.2926ZM103.637 67.0011C101.747 65.7513 99.5382 65.0869 97.2812 65.0893L97.2206 65.0893C90.7465 65.1293 85.4838 70.483 85.4838 77.0443C85.4838 83.6063 90.7465 88.9592 97.2206 89L97.2812 89C99.6251 89 101.81 88.2958 103.637 87.0882L103.637 88.3358L109.06 88.3358L109.06 65.6927L103.637 65.6927L103.637 67.0011ZM103.637 78.2926C103.061 81.312 100.419 83.6256 97.2812 83.6256L97.2206 83.6256C93.6667 83.5856 90.7867 80.647 90.7867 77.0443C90.7867 73.4423 93.6667 70.5038 97.2206 70.483L97.2812 70.483C100.419 70.483 103.06 72.7781 103.637 75.7967L103.637 78.2926ZM128.345 75.555C128.146 75.4535 127.868 75.3534 127.549 75.2325C126.338 74.81 124.372 74.2867 121.63 73.6832C119.227 73.1392 118.016 72.4356 118.016 71.5497C118.016 70.9256 118.234 70.4222 118.651 70.0605C119.208 69.5771 120.2 69.3355 121.63 69.3355C123.08 69.3355 124.133 69.658 124.749 70.2814C125.127 70.6639 125.404 71.3474 125.583 72.3141L131.343 72.3141C131.343 69.4564 130.191 67.4037 127.927 66.156C127.808 66.0771 127.681 66.0098 127.549 65.9551C125.98 65.2101 123.895 64.8276 121.293 64.8276C118.135 64.8276 115.752 65.6735 114.164 67.3837C112.893 68.7521 112.277 70.4222 112.277 72.3948C112.277 74.8515 113.468 76.6218 115.892 77.7693C116.805 78.2119 119.029 78.836 122.565 79.601C124.929 80.1244 126.119 80.8694 126.119 81.8153C126.119 82.3794 125.882 82.862 125.366 83.3046C124.71 83.8679 123.716 84.1504 122.386 84.1504C120.618 84.1504 119.367 83.8486 118.633 83.2653C117.897 82.7018 117.519 81.8768 117.519 80.8301L111.482 80.8301C111.482 83.6077 112.634 85.6804 114.957 87.0482C116.805 88.1149 119.228 88.6589 122.228 88.6589C124.233 88.6589 126.02 88.3165 127.55 87.653C127.868 87.5121 128.147 87.3706 128.445 87.2097C130.808 85.882 132 83.7686 132 80.8708C131.999 78.4935 130.786 76.7219 128.345 75.555ZM18.1531 67.0011C16.2546 65.7537 14.0404 65.0897 11.7778 65.0893L11.7178 65.0893C5.26343 65.1293 0 70.483 0 77.0443C0 83.6063 5.26343 88.9592 11.7178 89L11.7778 89C14.1216 89 16.306 88.2958 18.1531 87.0882L18.1531 88.3358L23.5753 88.3358L23.5753 65.6927L18.1531 65.6927L18.1531 67.0011ZM18.1531 78.2926C17.5774 81.312 14.9351 83.6256 11.7778 83.6256L11.7178 83.6256C8.18298 83.5856 5.30292 80.647 5.30292 77.0443C5.30292 73.4423 8.18298 70.5038 11.7178 70.483L11.7778 70.483C14.9358 70.483 17.5774 72.7781 18.1531 75.7967L18.1531 78.2926ZM51.9969 63.2983L57.8961 63.2983L57.8961 58.0447L51.9969 58.0447L51.9969 63.2983ZM51.9969 88.3351L57.8961 88.3351L57.8961 65.0893L51.9969 65.0893L51.9969 88.3351ZM43.874 67.0011C41.9752 65.7537 39.7608 65.0897 37.4979 65.0893L37.4386 65.0893C30.9638 65.1293 25.7004 70.483 25.7004 77.0443C25.7004 83.6063 30.9631 88.9592 37.4386 89L37.4979 89C39.7608 88.9999 41.9753 88.3359 43.874 87.0882L43.874 88.3358L49.2961 88.3358L49.2961 57.9246L43.874 57.9246L43.874 67.0011ZM43.874 78.2926C43.2982 81.312 40.6559 83.6256 37.4979 83.6256L37.4386 83.6256C33.8834 83.5856 31.0033 80.647 31.0033 77.0443C31.0033 73.4423 33.8834 70.5038 37.4386 70.483L37.4979 70.483C40.6559 70.483 43.2975 72.7781 43.874 75.7967L43.874 78.2926ZM78.1538 57.9239L71.7587 47.0964L56.049 20.6097L37.4386 31.9612L36.8029 32.343L37.4386 33.4098L51.9765 57.9239L78.1538 57.9239Z" fill="#464646" fill-opacity="1.000000" fill-rule="evenodd"/>
</svg>
