<svg width="157.000000" height="83.000000" viewBox="0 0 157 83" fill="none" xmlns="http://www.w3.org/2000/svg" xmlns:xlink="http://www.w3.org/1999/xlink">
	<desc>
			Created with Pixso.
	</desc>
	<defs>
		<clipPath id="clip138_256">
			<rect id="puma-logo 1" width="157.000000" height="83.000000" fill="white" fill-opacity="0"/>
		</clipPath>
	</defs>
	<rect id="puma-logo 1" width="157.000000" height="83.000000" fill="#FFFFFF" fill-opacity="0"/>
	<g clip-path="url(#clip138_256)">
		<path id="Vector" d="M84.2861 3.75427C83.7745 3.83215 83.2826 5.69165 82.2938 6.66034C81.5707 7.35944 80.668 7.31573 80.1885 8.17999C80.0065 8.50293 80.0654 9.05408 79.8589 9.58331C79.4556 10.6417 78.0341 10.7364 78.0341 11.8896C78.0291 13.135 79.2195 13.3729 80.25 14.2565C81.0543 14.9678 81.1331 15.4582 82.1068 15.8029C82.9384 16.0822 84.1754 15.1693 85.2896 15.4971C86.2046 15.7667 87.0801 15.9608 87.2869 16.8882C87.4686 17.7427 87.2744 19.0681 86.1653 18.9153C85.7913 18.874 84.1705 18.335 82.1783 18.5438C79.7753 18.8134 77.0328 19.5876 76.7648 22.2316C76.6172 23.71 78.4692 25.4531 80.2573 25.0986C81.4944 24.8582 80.9092 23.4188 81.583 22.7195C82.4659 21.8238 87.4686 25.8464 92.1198 25.8464C94.0776 25.8464 95.5336 25.3585 96.98 23.863C97.115 23.7488 97.2799 23.5037 97.4889 23.489C97.6858 23.5037 98.03 23.6953 98.1432 23.778C101.889 26.7493 104.72 32.7095 118.486 32.7798C120.422 32.7894 122.628 33.7024 124.428 35.324C126.034 36.7904 126.974 39.0698 127.886 41.3834C129.264 44.8552 131.733 48.2321 135.477 51.9901C135.681 52.1915 138.762 54.5562 139.008 54.7334C139.048 54.7576 139.274 55.2917 139.196 55.5903C139.104 57.8432 138.772 64.3954 143.721 64.6917C144.931 64.7523 144.614 63.9124 144.614 63.3346C144.611 62.1935 144.4 61.0598 145.01 59.8922C145.844 58.2852 143.241 57.5446 143.318 54.0706C143.372 51.4802 141.168 51.922 140.049 49.9484C139.404 48.8049 138.831 48.1981 138.873 46.7995C139.124 38.9292 137.176 33.7581 136.205 32.4885C135.447 31.5295 134.82 31.1484 135.513 30.7041C139.643 28.0118 140.58 25.5063 140.58 25.5063C142.776 20.4108 144.752 15.7567 147.474 13.7079C148.023 13.2854 149.43 12.2489 150.293 11.841C152.833 10.6586 154.172 9.94263 154.91 9.23358C156.078 8.10962 157 5.76691 155.881 4.34674C154.489 2.59387 152.081 3.98499 151.019 4.60638C143.426 9.05408 142.307 16.9002 139.677 21.4061C137.579 25.0063 134.168 27.6501 131.118 27.8661C128.831 28.0336 126.366 27.5773 123.912 26.5139C117.943 23.9309 114.676 20.5953 113.906 20.0054C112.303 18.7842 99.8525 6.72095 89.7659 6.22815C89.7659 6.22815 88.5142 3.75439 88.1992 3.71313C87.4612 3.62079 86.7063 5.19153 86.1653 5.37378C85.6561 5.54108 84.8002 3.67163 84.2861 3.75427ZM39.8816 75.7523C38.9321 75.7303 38.1255 74.9608 38.1255 74.0092L38.1279 42.9542L27.7584 42.9542L27.7584 77.187C27.7584 78.8645 29.1357 80.2338 30.8254 80.2338L48.9498 80.2338C50.6517 80.2338 52.012 78.8645 52.012 77.187L52.012 42.9542L41.6525 42.9542L41.6426 74.0092C41.6426 74.9608 40.8357 75.7303 39.8816 75.7523ZM74.6003 42.9542L58.906 42.9542C57.0492 42.9542 55.5365 44.4448 55.5365 46.2971L55.5365 80.2336L65.9155 80.2336L65.9155 49.1037C65.923 48.1497 66.7051 47.3946 67.6693 47.3946C68.6383 47.3946 69.4155 48.1326 69.4376 49.077L69.4376 80.2338L79.775 80.2338L79.775 49.0767C79.7875 48.1324 80.5646 47.3944 81.5311 47.3944C82.4905 47.3944 83.2825 48.1495 83.2899 49.1035L83.2899 80.2338L93.6691 80.2338L93.6691 46.2971C93.6691 44.4448 92.1539 42.9542 90.2971 42.9542L74.6003 42.9542ZM13.8816 49.1691C13.889 48.1324 13.0332 47.3944 12.1255 47.3944L10.3645 47.3944L10.3645 66.2502L12.1255 66.2502C13.0405 66.2502 13.8892 65.5316 13.8816 64.5L13.8816 49.1691ZM20.8397 70.8652L10.3645 70.8652L10.3645 80.2338L0 80.2338L0 42.9542L20.9062 42.9542C22.7778 42.9542 24.2388 44.4545 24.2388 46.3118L24.2388 67.5078C24.2388 69.3675 22.7213 70.8652 20.8397 70.8652ZM129.237 71.897C127.154 71.897 125.405 73.6741 125.405 75.8276C125.405 77.9882 127.154 79.7506 129.303 79.7506C131.436 79.7506 133.162 77.9882 133.162 75.8276C133.162 73.6692 131.436 71.897 129.303 71.897L129.237 71.897ZM133.905 75.8154C133.905 78.3473 131.849 80.4061 129.303 80.4061C126.73 80.4061 124.664 78.3621 124.664 75.8154C124.664 73.3172 126.73 71.2294 129.227 71.2294C131.849 71.2294 133.905 73.2543 133.905 75.8154Z" fill="#464646" fill-opacity="1.000000" fill-rule="nonzero"/>
		<path id="Vector" d="M128.823 75.524C129.544 75.524 129.923 75.2715 129.923 74.7667C129.923 74.3174 129.556 74.0869 128.855 74.0869L128.649 74.0869L128.649 75.524L128.823 75.524ZM131.477 78.4712L130.24 78.4712L128.649 76.381L128.649 78.4712L127.638 78.4712L127.638 73.1862L128.701 73.1862C130.144 73.1862 130.912 73.7251 130.912 74.7545C130.912 75.4414 130.459 76.0509 129.827 76.2328L129.753 76.2597L131.477 78.4712ZM111.071 66.2575L111.071 49.0915C111.046 48.1422 110.271 47.4139 109.305 47.4139C108.348 47.4139 107.556 48.1713 107.549 49.1182L107.549 66.2575L111.071 66.2575ZM111.071 80.2338L111.071 70.875L107.549 70.875L107.549 80.2338L97.189 80.2338L97.189 46.2971C97.189 44.4448 98.7014 42.9542 100.558 42.9542L118.06 42.9542C119.922 42.9542 121.435 44.4448 121.435 46.2971L121.435 80.2336L111.071 80.2338Z" fill="#464646" fill-opacity="1.000000" fill-rule="nonzero"/>
	</g>
</svg>
