<svg width="186.000000" height="96.000000" viewBox="0 0 186 96" fill="none" xmlns="http://www.w3.org/2000/svg" xmlns:xlink="http://www.w3.org/1999/xlink">
	<desc>
			Created with Pixso.
	</desc>
	<defs>
		<clipPath id="clip225_2085">
			<rect id="logo" rx="6.000000" width="185.000000" height="95.000000" transform="translate(0.500000 0.500000)" fill="white" fill-opacity="0"/>
		</clipPath>
	</defs>
	<g clip-path="url(#clip225_2085)">
		<path id="Vector" d="M110.585 23.6161L110.585 20.5714L98.3003 20.5714L98.3003 37.2886L110.585 37.2886L110.585 34.5312L101.719 34.5312L101.719 29.9928L109.484 29.9928L109.484 27.0056L101.719 27.0056L101.719 23.6161L110.585 23.6161ZM107.167 39.0121L107.167 45.4462L100.444 45.4462L100.444 39.0121L96.9695 39.0121L96.9695 55.6727L100.444 55.6727L100.444 48.2037L107.167 48.2037L107.167 55.6727L110.585 55.6727L110.585 39.0121L107.167 39.0121ZM110.585 60.3818L110.585 57.3961L98.3003 57.3961L98.3003 74.3415L110.585 74.3415L110.585 71.2984L101.719 71.2984L101.719 66.8167L109.484 66.8167L109.484 64.06L101.719 64.06L101.719 60.3818L110.585 60.3818ZM96.3313 20.5714L92.9128 20.5714L92.9128 27.0056L86.1917 27.0056L86.1917 20.5714L82.7732 20.5714L82.7732 37.2886L86.1917 37.2886L86.1917 29.8205L92.9128 29.8205L92.9128 37.2886L96.3313 37.2886L96.3313 20.5714ZM68.0564 20.5714L68.0564 23.6161L73.271 23.6161L73.271 37.2886L76.6895 37.2886L76.6895 23.6161L81.9041 23.6161L81.9041 20.5714L68.0564 20.5714ZM57.2793 38.5525C51.8909 38.5525 49.0518 41.5972 49.0518 47.342C49.0518 53.374 51.8909 56.3612 57.2793 56.3612C62.668 56.3612 65.449 53.374 65.449 47.342C65.449 41.5972 62.668 38.5525 57.2793 38.5525ZM52.76 47.342C52.76 43.493 54.2666 41.5972 57.2793 41.5972C60.5242 41.5972 62.0305 43.493 62.0305 47.342C62.0305 51.4215 60.5242 53.374 57.2793 53.374C54.2666 53.374 52.76 51.4215 52.76 47.342ZM44.127 39.0121L44.127 50.7888L37.4058 39.0121L33.7556 39.0121L33.7556 55.6727L37.0002 55.6727L37.0002 43.9526L43.8953 55.6727L47.5454 55.6727L47.5454 39.0121L44.127 39.0121ZM60.0605 64.289L60.0605 60.3818L68.6936 60.3818L68.6936 57.3961L56.6421 57.3961L56.6421 74.3415L60.0605 74.3415L60.0605 67.2762L67.6506 67.2762L67.6506 64.289L60.0605 64.289ZM95.6946 41.9993L95.6946 39.0121L81.9041 39.0121L81.9041 41.9993L87.0608 41.9993L87.0608 55.6727L90.5371 55.6727L90.5371 41.9993L95.6946 41.9993ZM74.314 49.296C75.4148 49.296 76.2839 49.4675 76.6895 49.9271L77.3267 55.6727L81.2087 55.6727L81.2087 55.2705C80.8032 55.0399 80.5715 54.0067 80.5715 52.0527C80.5715 49.6981 79.7024 48.4335 78.4277 47.8015C80.1658 47.1122 81.0349 45.8483 81.0349 43.7228C81.0349 40.7355 79.2969 39.0121 75.6465 39.0121L67.1873 39.0121L67.1873 55.6727L70.6636 55.6727L70.6636 49.296L74.314 49.296ZM70.6636 46.4802L70.6636 41.9993L74.9512 41.9993C76.6895 41.9993 77.5586 42.6313 77.5586 44.1249C77.5586 45.6185 76.6895 46.4802 74.7773 46.4802L70.6636 46.4802ZM76.6895 57.3961L72.5757 57.3961L66.5498 74.3415L70.2002 74.3415L71.5327 70.6656L77.7903 70.6656L78.8333 74.3415L82.5415 74.3415L76.6895 57.3961ZM74.5457 61.2435L76.6895 67.909L72.4019 67.909L74.5457 61.2435ZM93.5508 62.9669L96.9695 62.9669C96.7947 61.4741 96.3313 60.2102 95.2876 59.1179C93.7817 57.8541 92.0437 56.9924 89.668 56.9924C87.2925 56.9924 85.5542 57.8541 84.0479 59.3485C82.7732 60.8413 81.9041 62.9669 81.9041 65.7826C81.9041 71.7571 84.4534 74.7429 89.4363 74.7429C93.7817 74.7429 96.1565 72.6173 96.9695 68.5393L93.5508 68.5393C93.0874 70.4917 91.5801 71.5266 89.668 71.5266C86.8291 71.5266 85.5542 69.6316 85.5542 65.9542C85.5542 61.9337 86.8291 59.9796 89.668 59.9796C91.5801 59.9796 92.6819 61.0719 93.5508 62.9669ZM50.6162 74.1125C51.1956 74.1125 51.6592 73.882 52.0076 73.5955C52.2974 73.2508 52.5283 72.7912 52.5283 72.1601C52.5283 71.4699 52.2966 71.0104 52.0076 70.7231C51.6599 70.4366 51.1965 70.2635 50.6162 70.2635L50.5583 70.2635C49.863 70.2635 49.3994 70.4366 49.1099 70.7231C48.8208 71.0096 48.6462 71.4699 48.6462 72.1601L48.6462 72.2159C48.6462 72.7912 48.8201 73.2508 49.1099 73.5955C49.3994 73.882 49.8638 74.1125 50.5583 74.1125L50.6162 74.1125ZM50.5583 74.5721C49.7471 74.5721 49.1677 74.2856 48.7622 73.882C48.3567 73.4798 48.1829 72.9061 48.1829 72.2159L48.1829 72.1601C48.1829 71.3542 48.3567 70.7806 48.7622 70.3792C49.1677 69.9771 49.7471 69.804 50.5583 69.804L50.6162 69.804C51.3115 69.804 51.8909 69.9771 52.2966 70.3792C52.7021 70.7814 52.9917 71.355 52.9917 72.1601C52.9917 72.9069 52.7021 73.4798 52.2966 73.882C52.0767 74.1019 51.8149 74.2762 51.5264 74.3947C51.238 74.5132 50.9285 74.5735 50.6162 74.5721L50.5583 74.5721ZM50.79 71.9295L50.8481 71.9295C51.0798 71.9295 51.1956 71.8138 51.1956 71.5273L51.1956 71.4699C51.1956 71.4699 51.1377 71.4699 51.1377 71.4125C51.0798 71.355 50.9639 71.355 50.79 71.355L50.1528 71.355L50.1528 71.9303L50.79 71.9295ZM51.1956 72.3317L51.6592 72.9069C51.717 73.021 51.6592 73.1359 51.6013 73.1934C51.4854 73.309 51.3115 73.2508 51.2537 73.1934L50.6743 72.3891L50.1528 72.3891L50.1528 73.0202C50.1528 73.1359 50.0369 73.2508 49.9209 73.2508C49.8052 73.2508 49.6892 73.1351 49.6892 73.0202L49.6892 71.1252C49.6892 71.0095 49.8052 70.8962 49.9209 70.8962L50.8481 70.8962C51.0798 70.8962 51.3115 70.9521 51.4275 71.0678C51.4854 71.1252 51.5432 71.1252 51.5432 71.1835C51.6592 71.2992 51.6592 71.4125 51.6592 71.5282C51.6592 71.9869 51.5432 72.2159 51.1956 72.3317ZM112.96 20.5714C123.738 20.5714 133.065 24.4778 140.598 31.946C148.362 39.644 152.244 48.8356 152.244 59.5775L152.244 74.3415L136.485 74.3415L136.485 59.1179C136.485 53.145 134.341 47.9739 129.995 43.7228C128.952 42.6313 127.852 41.7695 126.577 40.9078C123.101 38.5525 118.987 37.5184 114.699 37.5184L112.961 37.5184L112.961 20.5714L112.96 20.5714ZM134.977 74.3415L122.693 74.3415L122.693 62.5648C122.693 60.6124 122.057 59.1179 120.724 57.8541C119.449 56.5344 117.711 55.9017 115.973 55.9017L112.96 55.9017L112.96 39.0121L114.698 39.0121C119.217 39.0121 123.099 40.2759 126.576 42.8611C127.445 43.2632 128.314 44.1249 128.951 44.7568C133.065 48.8364 134.977 53.5471 134.977 59.1187L134.977 74.3415ZM121.188 74.3415L112.959 74.3415L112.959 57.3961L115.973 57.3961C117.306 57.3961 118.58 57.8541 119.68 58.8889C120.55 59.7506 121.188 61.0719 121.188 62.5648L121.188 74.3415Z" fill="#464646" fill-opacity="1.000000" fill-rule="evenodd"/>
	</g>
	<rect id="logo" rx="6.000000" width="185.000000" height="95.000000" transform="translate(0.500000 0.500000)" stroke="#E1E1E1" stroke-opacity="0" stroke-width="1.000000"/>
</svg>
