<svg width="187.000000" height="96.000000" viewBox="0 0 187 96" fill="none" xmlns="http://www.w3.org/2000/svg" xmlns:xlink="http://www.w3.org/1999/xlink">
	<desc>
			Created with Pixso.
	</desc>
	<defs>
		<clipPath id="clip225_2092">
			<rect id="puma-logo 1" width="108.737030" height="58.100002" transform="translate(39.477783 20.299988)" fill="white" fill-opacity="0"/>
		</clipPath>
		<clipPath id="clip225_2091">
			<rect id="logo" rx="6.000000" width="186.000000" height="95.000000" transform="translate(0.500000 0.500000)" fill="white" fill-opacity="0"/>
		</clipPath>
	</defs>
	<g clip-path="url(#clip225_2091)">
		<rect id="puma-logo 1" width="108.737030" height="58.100002" transform="translate(39.477783 20.299988)" fill="#FFFFFF" fill-opacity="0"/>
		<g clip-path="url(#clip225_2092)">
			<path id="Vector" d="M97.8538 22.928C97.4993 22.9825 97.1587 24.2841 96.4739 24.9622C95.9731 25.4516 95.3479 25.421 95.0159 26.026C94.8896 26.252 94.9307 26.6378 94.7876 27.0083C94.5081 27.7492 93.5234 27.8154 93.5234 28.6227C93.52 29.4945 94.3447 29.661 95.0583 30.2795C95.6155 30.7775 95.6699 31.1207 96.3445 31.362C96.9204 31.5576 97.7771 30.9185 98.5488 31.1479C99.1824 31.3366 99.7888 31.4725 99.9319 32.1217C100.058 32.7198 99.9233 33.6476 99.1553 33.5406C98.8962 33.5118 97.7737 33.1345 96.3938 33.2806C94.7295 33.4693 92.8301 34.0113 92.6445 35.8621C92.5422 36.897 93.825 38.1171 95.0635 37.869C95.9202 37.7007 95.5149 36.6931 95.9817 36.2036C96.593 35.5767 100.058 38.3924 103.279 38.3924C104.635 38.3924 105.644 38.0509 106.645 37.004C106.739 36.9241 106.853 36.7525 106.998 36.7423C107.134 36.7525 107.373 36.8867 107.451 36.9445C110.045 39.0245 112.006 43.1966 121.54 43.2458C122.881 43.2526 124.409 43.8917 125.656 45.0268C126.768 46.0532 127.419 47.6489 128.051 49.2684C129.005 51.6986 130.715 54.0624 133.308 56.6931C133.449 56.834 135.584 58.4893 135.754 58.6134C135.781 58.6303 135.938 59.0042 135.884 59.2131C135.821 60.7902 135.591 65.3768 139.018 65.5842C139.856 65.6266 139.636 65.0386 139.636 64.6342C139.635 63.8354 139.488 63.0419 139.911 62.2245C140.488 61.0995 138.686 60.5812 138.739 58.1494C138.776 56.3361 137.25 56.6453 136.475 55.2638C136.028 54.4634 135.631 54.0386 135.66 53.0596C135.834 47.5504 134.485 43.9307 133.812 43.0419C133.288 42.3707 132.853 42.1039 133.333 41.7928C136.194 39.9083 136.843 38.1544 136.843 38.1544C138.364 34.5875 139.732 31.3297 141.617 29.8956C141.997 29.5997 142.972 28.8742 143.57 28.5887C145.329 27.761 146.256 27.2598 146.767 26.7635C147.576 25.9767 148.215 24.3368 147.44 23.3427C146.476 22.1157 144.808 23.0895 144.072 23.5244C138.813 26.6378 138.038 32.1301 136.217 35.2842C134.764 37.8044 132.402 39.655 130.289 39.8063C128.705 39.9235 126.998 39.6041 125.298 38.8597C121.164 37.0516 118.902 34.7167 118.368 34.3038C117.258 33.449 108.635 25.0046 101.649 24.6597C101.649 24.6597 100.782 22.9281 100.564 22.8992C100.053 22.8345 99.53 23.934 99.1553 24.0616C98.8025 24.1787 98.2097 22.8701 97.8538 22.928ZM67.0994 73.3266C66.4419 73.3112 65.8833 72.7725 65.8833 72.1064L65.885 50.3679L58.7031 50.3679L58.7031 74.3308C58.7031 75.5051 59.657 76.4636 60.8271 76.4636L73.3801 76.4636C74.5588 76.4636 75.501 75.5051 75.501 74.3308L75.501 50.3679L68.3259 50.3679L68.3191 72.1064C68.3191 72.7725 67.7603 73.3112 67.0994 73.3266ZM91.1455 50.3679L80.2756 50.3679C78.9895 50.3679 77.9419 51.4113 77.9419 52.7079L77.9419 76.4635L85.1304 76.4635L85.1304 54.6725C85.1355 54.0048 85.6772 53.4762 86.345 53.4762C87.0161 53.4762 87.5544 53.9928 87.5698 54.6539L87.5698 76.4636L94.7295 76.4636L94.7295 54.6537C94.738 53.9927 95.2761 53.4761 95.9456 53.4761C96.6101 53.4761 97.1587 54.0046 97.1638 54.6724L97.1638 76.4636L104.352 76.4636L104.352 52.7079C104.352 51.4113 103.303 50.3679 102.017 50.3679L91.1455 50.3679ZM49.092 54.7183C49.0972 53.9927 48.5044 53.4761 47.8757 53.4761L46.6562 53.4761L46.6562 66.6751L47.8757 66.6751C48.5095 66.6751 49.0974 66.1721 49.092 65.45L49.092 54.7183ZM53.9111 69.9056L46.6562 69.9056L46.6562 76.4636L39.4778 76.4636L39.4778 50.3679L53.9573 50.3679C55.2534 50.3679 56.2654 51.4182 56.2654 52.7182L56.2654 67.5555C56.2654 68.8572 55.2144 69.9056 53.9111 69.9056ZM128.986 70.6279C127.543 70.6279 126.332 71.8718 126.332 73.3793C126.332 74.8917 127.543 76.1254 129.032 76.1254C130.509 76.1254 131.705 74.8917 131.705 73.3793C131.705 71.8684 130.509 70.6279 129.032 70.6279L128.986 70.6279ZM132.219 73.3707C132.219 75.1431 130.795 76.5843 129.032 76.5843C127.25 76.5843 125.819 75.1534 125.819 73.3707C125.819 71.622 127.25 70.1606 128.979 70.1606C130.795 70.1606 132.219 71.578 132.219 73.3707Z" fill="#464646" fill-opacity="1.000000" fill-rule="nonzero"/>
			<path id="Vector" d="M128.7 73.1668C129.199 73.1668 129.461 72.9901 129.461 72.6367C129.461 72.3222 129.208 72.1608 128.722 72.1608L128.579 72.1608L128.579 73.1668L128.7 73.1668ZM130.538 75.2299L129.681 75.2299L128.579 73.7667L128.579 75.2299L127.879 75.2299L127.879 71.5303L128.615 71.5303C129.615 71.5303 130.146 71.9076 130.146 72.6281C130.146 73.1089 129.833 73.5356 129.395 73.663L129.344 73.6818L130.538 75.2299ZM116.404 66.6803L116.404 54.6641C116.387 53.9995 115.851 53.4897 115.181 53.4897C114.519 53.4897 113.97 54.0199 113.965 54.6827L113.965 66.6803L116.404 66.6803ZM116.404 76.4637L116.404 69.9125L113.965 69.9125L113.965 76.4637L106.79 76.4637L106.79 52.708C106.79 51.4113 107.838 50.3679 109.124 50.3679L121.246 50.3679C122.535 50.3679 123.583 51.4113 123.583 52.708L123.583 76.4636L116.404 76.4637Z" fill="#464646" fill-opacity="1.000000" fill-rule="nonzero"/>
		</g>
	</g>
	<rect id="logo" rx="6.000000" width="186.000000" height="95.000000" transform="translate(0.500000 0.500000)" stroke="#E1E1E1" stroke-opacity="0" stroke-width="1.000000"/>
</svg>
