<svg width="186.000000" height="96.000000" viewBox="0 0 186 96" fill="none" xmlns="http://www.w3.org/2000/svg" xmlns:xlink="http://www.w3.org/1999/xlink">
	<desc>
			Created with Pixso.
	</desc>
	<defs>
		<clipPath id="clip225_2095">
			<rect id="Frame 513745" rx="6.000000" width="185.000000" height="95.000000" transform="translate(0.500000 0.500000)" fill="white" fill-opacity="0"/>
		</clipPath>
	</defs>
	<g clip-path="url(#clip225_2095)">
		<path id="Vector" d="M82.7627 45.9489L68.5852 46.4522L82.0469 47.1981L82.7627 45.9489ZM81.0667 48.9191L66.8557 49.4232L80.3674 50.1717L81.0667 48.9191ZM79.3708 51.9144L65.1777 52.4113L78.6729 53.1591L79.3708 51.9144ZM77.71 54.8946L63.4988 55.3993L76.9783 56.1458L77.71 54.8946ZM95.082 30.9561L76.9868 31.5981L95.1333 32.6035L95.082 30.9561ZM94.9673 28.0081L78.7117 28.5765L95.0188 29.509L94.9673 28.0081ZM94.8513 25.1646L80.3682 25.6397L94.9211 26.4454L94.8513 25.1646ZM94.7537 22.2455L82.0586 22.6688L94.804 23.4193L94.7537 22.2455ZM94.6714 19.8857L83.6301 19.8857L94.6877 20.4706L94.6714 19.8857ZM75.9976 57.8734L61.8208 58.3854L75.7083 58.3854L75.9976 57.8734Z" fill="#464646" fill-opacity="1.000000" fill-rule="evenodd"/>
		<path id="Vector" d="M124.042 19.981L103.611 19.981L103.032 21.0035L113.256 21.5444C113.376 21.5444 113.376 21.7139 113.205 21.7139L102.436 22.0727L101.397 23.8851L111.552 24.4832C111.688 24.5002 111.655 24.6868 111.535 24.6868L100.749 25.0404L99.7451 26.7759L109.883 27.3371C110.104 27.3542 110.104 27.5415 109.883 27.5415L99.1143 27.918L98.092 29.7331L108.196 30.3107C108.418 30.3278 108.401 30.5315 108.196 30.5315L97.4277 30.914L96.3877 32.7067L106.508 33.2672C106.661 33.2843 106.68 33.4716 106.475 33.4716L75.4458 34.5079L104.89 36.139C105.077 36.139 105.06 36.3768 104.855 36.3768L73.7764 37.4815L103.221 39.1119C103.357 39.1119 103.391 39.3327 103.186 39.3327L72.0554 40.4538L101.5 42.0848C101.62 42.1019 101.738 42.3227 101.483 42.3398L70.4023 43.4425L99.8459 45.0729C99.9309 45.09 100.016 45.3107 99.8123 45.3107L84.1697 45.8667L84.2212 47.2743L98.1592 48.0464C98.2607 48.0635 98.3123 48.2673 98.1243 48.2673L84.2725 48.7581L84.3403 50.3326L96.439 51.003C96.5576 51.02 96.6091 51.2579 96.4041 51.2579L84.4084 51.6779L84.4604 53.4055L94.7695 53.9766C94.8882 53.993 94.9224 54.2138 94.718 54.2138L84.5117 54.5772L84.5796 56.4777L93.0994 56.9495C93.2192 56.9666 93.2192 57.171 93.0486 57.171L84.614 57.4752L84.6482 58.2921L112.15 58.2921C119.443 58.2921 125.985 52.9915 127.212 48.7778C128.44 44.5649 128.44 40.7593 122.578 38.8569C125.85 38.1091 131.541 34.4297 132.666 29.3427C133.686 24.721 131.983 19.9981 124.042 19.981ZM110.209 49.4869L101.758 49.4869L106.529 41.0603L112.799 41.0603C119.274 41.0603 116.138 49.4869 110.209 49.4869ZM121.148 31.4095C120.875 32.4287 118.829 35.0113 116.241 35.0113L109.97 35.0113L113.99 27.9443L117.194 27.9443C121.283 28.0804 121.419 30.3909 121.148 31.4095ZM155 70.5025C155 67.2371 152.277 64.5021 149.002 64.5021C145.642 64.5021 142.899 67.2805 142.899 70.6937C142.896 71.4966 143.052 72.2922 143.358 73.0346C143.665 73.777 144.116 74.4515 144.685 75.0193C145.255 75.587 145.931 76.0366 146.676 76.3422C147.421 76.6478 148.219 76.8034 149.024 76.7999C151.511 76.7999 153.872 75.1038 154.574 72.7927L151.469 72.7927C150.852 73.7678 150.045 74.2128 148.938 74.2128C147.534 74.2128 146.281 73.2585 145.876 71.9016L154.85 71.9016C154.957 71.2451 155 70.9263 155 70.5025ZM145.792 69.685C146.196 68.0947 147.472 67.0768 149.045 67.0768C150.62 67.0768 151.853 68.0737 152.235 69.685L145.792 69.685ZM114.685 65.0679L114.685 66.0201C113.793 65.0659 112.5 64.5231 111.117 64.5231C108.054 64.5231 105.444 67.1307 105.444 70.5235C105.444 73.7245 107.753 76.5956 111.177 76.5956C112.687 76.5956 113.835 76.2479 114.92 75.0184L114.92 76.5239L117.515 76.5239L117.515 65.0679L114.685 65.0679ZM111.515 74.1674C110.57 74.1674 109.663 73.7928 108.994 73.126C108.325 72.4592 107.949 71.5549 107.949 70.6119C107.949 69.6689 108.325 68.7646 108.994 68.0978C109.663 67.431 110.57 67.0564 111.515 67.0564C112.461 67.0564 113.368 67.431 114.037 68.0978C114.706 68.7646 115.082 69.6689 115.082 70.6119C115.082 71.5549 114.706 72.4592 114.037 73.126C113.368 73.7928 112.461 74.1674 111.515 74.1674ZM37.3462 64.5014C36.1768 64.5014 35.2837 64.9042 34.3049 65.9011L34.3049 64.7774L31.689 64.7774L31.689 76.5239L34.5178 76.5239L34.5178 70.9894C34.5178 69.4846 34.645 67.088 36.7292 67.088C38.6853 67.088 38.8982 69.3354 38.8982 70.7772L38.8982 76.5233L41.7266 76.5233L41.7266 70.2258C41.7266 68.5718 41.5994 67.7878 41.1523 66.8547C40.4934 65.4556 38.9412 64.5014 37.3462 64.5014ZM54.9204 70.5025C54.9204 67.2371 52.1985 64.5021 48.9233 64.5021C45.5632 64.5021 42.8201 67.2805 42.8201 70.6937C42.8167 71.4965 42.9729 72.2921 43.2795 73.0344C43.5859 73.7767 44.0371 74.4512 44.6064 75.0188C45.1758 75.5865 45.8523 76.0361 46.5967 76.3419C47.3413 76.6475 48.1392 76.8032 48.9443 76.7999C51.4326 76.7999 53.7927 75.1038 54.4946 72.7927L51.3904 72.7927C50.7734 73.7678 49.9653 74.2128 48.8594 74.2128C47.4561 74.2128 46.2012 73.2585 45.7971 71.9016L54.771 71.9016C54.8784 71.2451 54.9204 70.9263 54.9204 70.5025ZM45.7129 69.685C46.1169 68.0947 47.3928 67.0768 48.9668 67.0768C50.5408 67.0768 51.7739 68.0737 52.157 69.685L45.7129 69.685ZM101.457 76.514L104.285 76.514L104.285 60.845L101.457 60.845L101.457 76.514ZM124.977 64.5014C123.807 64.5014 122.913 64.9042 121.935 65.9011L121.935 64.7774L119.319 64.7774L119.319 76.5239L122.149 76.5239L122.149 70.9894C122.149 69.4846 122.276 67.088 124.36 67.088C126.316 67.088 126.529 69.3354 126.529 70.7772L126.529 76.5233L129.357 76.5233L129.357 70.2258C129.357 68.5718 129.23 67.7878 128.783 66.8547C128.124 65.4556 126.572 64.5014 124.977 64.5014ZM136.418 67.0886C137.714 67.0886 138.458 67.5131 139.161 68.7L142.35 68.7C141.479 66.1771 139.246 64.5014 136.523 64.5014C133.078 64.5014 130.313 67.2365 130.313 70.6083C130.313 74.0005 133.099 76.7993 136.523 76.7993C137.397 76.7947 138.26 76.6096 139.057 76.2556C139.855 75.9015 140.571 75.3862 141.159 74.7424C141.755 74.0853 141.968 73.7034 142.35 72.6652L139.161 72.6652C138.501 73.6824 137.651 74.2121 136.588 74.2121C134.609 74.2121 133.143 72.6855 133.143 70.6497C133.143 68.5941 134.546 67.0886 136.418 67.0886ZM65.7312 71.9443L63.7283 64.7781L61.4524 64.7781L59.4275 71.9443L57.033 64.7781L54.5376 64.7781L58.4712 76.5239L60.283 76.5239L62.5801 68.9128L64.8125 76.5239L66.7139 76.5239L70.4861 64.7781L68.1475 64.7781L65.7312 71.9443ZM80.8848 64.5139C79.5027 64.5139 78.2095 65.0567 77.3164 66.0103L77.3164 60.8457L74.4875 60.8457L74.4875 76.514L77.0818 76.514L77.0818 75.0092C78.1665 76.2387 79.3147 76.5857 80.8247 76.5857C84.2488 76.5857 86.5583 73.7153 86.5583 70.5137C86.5591 67.1215 83.9475 64.5139 80.8848 64.5139ZM80.4861 74.1674C79.5403 74.1674 78.6331 73.7928 77.9644 73.126C77.2957 72.4592 76.9199 71.5549 76.9199 70.6119C76.9199 69.6689 77.2957 68.7646 77.9644 68.0978C78.6331 67.431 79.5403 67.0564 80.4861 67.0564C81.4319 67.0564 82.3389 67.431 83.0076 68.0978C83.6763 68.7646 84.052 69.6689 84.052 70.6119C84.052 71.5549 83.6763 72.4592 83.0076 73.126C82.3389 73.7928 81.4319 74.1674 80.4861 74.1674ZM96.7383 65.0679L96.7383 66.0201C95.8452 65.0659 94.5527 64.5231 93.1699 64.5231C90.1077 64.5231 87.4956 67.1307 87.4956 70.5235C87.4956 73.7245 89.8057 76.5956 93.2292 76.5956C94.7393 76.5956 95.8875 76.2479 96.9722 75.0184L96.9722 76.5239L99.5664 76.5239L99.5664 65.0679L96.7383 65.0679ZM93.5693 74.1674C92.6235 74.1674 91.7166 73.7928 91.0476 73.126C90.3789 72.4592 90.0032 71.5549 90.0032 70.6119C90.0032 69.6689 90.3789 68.7646 91.0476 68.0978C91.7166 67.431 92.6235 67.0564 93.5693 67.0564C94.5151 67.0564 95.4221 67.431 96.0908 68.0978C96.7598 68.7646 97.1353 69.6689 97.1353 70.6119C97.1353 71.5549 96.7598 72.4592 96.0908 73.126C95.4221 73.7928 94.5151 74.1674 93.5693 74.1674Z" fill="#464646" fill-opacity="1.000000" fill-rule="evenodd"/>
	</g>
	<rect id="Frame 513745" rx="6.000000" width="185.000000" height="95.000000" transform="translate(0.500000 0.500000)" stroke="#E1E1E1" stroke-opacity="0" stroke-width="1.000000"/>
</svg>
