<svg width="172.000000" height="79.000000" viewBox="0 0 172 79" fill="none" xmlns="http://www.w3.org/2000/svg" xmlns:xlink="http://www.w3.org/1999/xlink">
	<desc>
			Created with Pixso.
	</desc>
	<defs/>
	<path id="Vector" d="M111.527 4.44025L111.527 0L93.694 0L93.694 24.3793L111.527 24.3793L111.527 20.358L98.6564 20.358L98.6564 13.7396L109.928 13.7396L109.928 9.38312L98.6564 9.38312L98.6564 4.44025L111.527 4.44025ZM106.565 26.8926L106.565 36.2758L96.806 36.2758L96.806 26.8926L91.7619 26.8926L91.7619 51.1893L96.806 51.1893L96.806 40.2971L106.565 40.2971L106.565 51.1893L111.527 51.1893L111.527 26.8926L106.565 26.8926ZM111.527 58.0568L111.527 53.7026L93.694 53.7026L93.694 78.4147L111.527 78.4147L111.527 73.9768L98.6564 73.9768L98.6564 67.441L109.928 67.441L109.928 63.4208L98.6564 63.4208L98.6564 58.0568L111.527 58.0568ZM90.8356 0L85.8733 0L85.8733 9.38312L76.1168 9.38312L76.1168 0L71.1545 0L71.1545 24.3793L76.1168 24.3793L76.1168 13.4882L85.8733 13.4882L85.8733 24.3793L90.8356 24.3793L90.8356 0ZM49.7914 0L49.7914 4.44025L57.361 4.44025L57.361 24.3793L62.3233 24.3793L62.3233 4.44025L69.8929 4.44025L69.8929 0L49.7914 0ZM34.1475 26.2224C26.3255 26.2224 22.2043 30.6626 22.2043 39.0404C22.2043 47.837 26.3255 52.1935 34.1475 52.1935C41.9694 52.1935 46.0065 47.837 46.0065 39.0404C46.0065 30.6626 41.9694 26.2224 34.1475 26.2224ZM27.5871 39.0404C27.5871 33.4273 29.7739 30.6626 34.1475 30.6626C38.8574 30.6626 41.0442 33.4273 41.0442 39.0404C41.0442 44.9897 38.8574 47.837 34.1475 47.837C29.7739 47.837 27.5871 44.9897 27.5871 39.0404ZM15.0551 26.8926L15.0551 44.067L5.29874 26.8926L0 26.8926L0 51.1893L4.70999 51.1893L4.70999 34.0975L14.7187 51.1893L20.0175 51.1893L20.0175 26.8926L15.0551 26.8926ZM38.1846 63.7548L38.1846 58.0568L50.7165 58.0568L50.7165 53.7026L33.2223 53.7026L33.2223 78.4147L38.1846 78.4147L38.1846 68.1112L49.2026 68.1112L49.2026 63.7548L38.1846 63.7548ZM89.9116 31.2491L89.9116 26.8926L69.8929 26.8926L69.8929 31.2491L77.3784 31.2491L77.3784 51.1893L82.4249 51.1893L82.4249 31.2491L89.9116 31.2491ZM58.8749 41.89C60.4729 41.89 61.7345 42.1401 62.3233 42.8104L63.2485 51.1893L68.8836 51.1893L68.8836 50.6028C68.2949 50.2666 67.9585 48.7598 67.9585 45.9102C67.9585 42.4764 66.6969 40.6321 64.8465 39.7106C67.3697 38.7053 68.6313 36.8622 68.6313 33.7624C68.6313 29.4059 66.1081 26.8926 60.8094 26.8926L48.5298 26.8926L48.5298 51.1893L53.5762 51.1893L53.5762 41.89L58.8749 41.89ZM53.5762 37.7837L53.5762 31.2491L59.8001 31.2491C62.3233 31.2491 63.5849 32.1706 63.5849 34.3488C63.5849 36.527 62.3233 37.7837 59.5478 37.7837L53.5762 37.7837ZM62.3233 53.7026L56.3517 53.7026L47.6046 78.4147L52.9033 78.4147L54.8378 73.0541L63.9213 73.0541L65.4352 78.4147L70.8181 78.4147L62.3233 53.7026ZM59.2113 59.3134L62.3233 69.0339L56.0994 69.0339L59.2113 59.3134ZM86.7996 61.8268L91.7619 61.8268C91.5084 59.6497 90.8356 57.8066 89.3204 56.2136C87.1349 54.3705 84.6116 53.1139 81.1633 53.1139C77.7148 53.1139 75.1917 54.3705 73.0049 56.5499C71.1545 58.727 69.8929 61.8268 69.8929 65.933C69.8929 74.6459 73.5936 79 80.8268 79C87.1349 79 90.5821 75.9002 91.7619 69.9532L86.7996 69.9532C86.1268 72.8005 83.9388 74.3096 81.1633 74.3096C77.042 74.3096 75.1917 71.5461 75.1917 66.1832C75.1917 60.3199 77.042 57.4703 81.1633 57.4703C83.9388 57.4703 85.538 59.0632 86.7996 61.8268ZM24.4751 78.0808C25.3162 78.0808 25.9891 77.7445 26.4949 77.3268C26.9154 76.8241 27.2507 76.1539 27.2507 75.2335C27.2507 74.227 26.9142 73.5568 26.4949 73.1379C25.9902 72.7202 25.3174 72.4677 24.4751 72.4677L24.391 72.4677C23.3817 72.4677 22.7089 72.7202 22.2884 73.1379C21.869 73.5556 21.6155 74.227 21.6155 75.2335L21.6155 75.3149C21.6155 76.1539 21.8678 76.8241 22.2884 77.3268C22.7089 77.7445 23.3829 78.0808 24.391 78.0808L24.4751 78.0808ZM24.391 78.751C23.2135 78.751 22.3725 78.3333 21.7837 77.7445C21.195 77.1581 20.9426 76.3214 20.9426 75.3149L20.9426 75.2335C20.9426 74.0583 21.195 73.2217 21.7837 72.6364C22.3725 72.0499 23.2135 71.7975 24.391 71.7975L24.4751 71.7975C25.4844 71.7975 26.3255 72.0499 26.9142 72.6364C27.503 73.2228 27.9235 74.0594 27.9235 75.2335C27.9235 76.3226 27.503 77.1581 26.9142 77.7445C26.5952 78.0652 26.2152 78.3195 25.7964 78.4922C25.3776 78.665 24.9284 78.753 24.4751 78.751L24.391 78.751ZM24.7274 74.8972L24.8116 74.8972C25.148 74.8972 25.3162 74.7285 25.3162 74.3108L25.3162 74.227C25.3162 74.227 25.2321 74.227 25.2321 74.1432C25.148 74.0594 24.9798 74.0594 24.7274 74.0594L23.8023 74.0594L23.8023 74.8984L24.7274 74.8972ZM25.3162 75.4836L25.9891 76.3226C26.0732 76.489 25.9891 76.6566 25.905 76.7404C25.7368 76.9091 25.4844 76.8241 25.4003 76.7404L24.5592 75.5674L23.8023 75.5674L23.8023 76.4879C23.8023 76.6566 23.6341 76.8241 23.4659 76.8241C23.2976 76.8241 23.1294 76.6554 23.1294 76.4879L23.1294 73.7244C23.1294 73.5556 23.2976 73.3904 23.4659 73.3904L24.8116 73.3904C25.148 73.3904 25.4844 73.4719 25.6526 73.6406C25.7368 73.7244 25.8209 73.7244 25.8209 73.8093C25.9891 73.978 25.9891 74.1432 25.9891 74.312C25.9891 74.981 25.8209 75.3149 25.3162 75.4836ZM114.974 0C130.619 0 144.159 5.6969 155.093 16.588C166.364 27.8142 172 41.2186 172 56.8839L172 78.4147L149.123 78.4147L149.123 56.2136C149.123 47.5031 146.011 39.9619 139.703 33.7624C138.188 32.1706 136.591 30.9139 134.741 29.6573C129.694 26.2224 123.723 24.7144 117.499 24.7144L114.975 24.7144L114.975 0L114.974 0ZM146.934 78.4147L129.103 78.4147L129.103 61.2403C129.103 58.393 128.179 56.2136 126.245 54.3705C124.394 52.446 121.871 51.5233 119.348 51.5233L114.974 51.5233L114.974 26.8926L117.497 26.8926C124.057 26.8926 129.692 28.7357 134.739 32.5057C136.001 33.0922 137.263 34.3488 138.187 35.2704C144.159 41.2198 146.934 48.0895 146.934 56.2148L146.934 78.4147ZM126.917 78.4147L114.973 78.4147L114.973 53.7026L119.348 53.7026C121.282 53.7026 123.133 54.3705 124.729 55.8797C125.991 57.1364 126.917 59.0632 126.917 61.2403L126.917 78.4147Z" fill="#464646" fill-opacity="1.000000" fill-rule="evenodd"/>
</svg>
