<svg width="187.000000" height="96.000000" viewBox="0 0 187 96" fill="none" xmlns="http://www.w3.org/2000/svg" xmlns:xlink="http://www.w3.org/1999/xlink">
	<desc>
			Created with Pixso.
	</desc>
	<defs>
		<clipPath id="clip225_2088">
			<rect id="logo" rx="6.000000" width="186.000000" height="95.000000" transform="translate(0.500000 0.500000)" fill="white" fill-opacity="0"/>
		</clipPath>
	</defs>
	<g clip-path="url(#clip225_2088)">
		<path id="Vector" d="M135.496 58.3896L135.743 58.3896C135.895 58.3896 136.004 58.4175 136.073 58.4861C136.101 58.4999 136.115 58.5141 136.129 58.5273C136.239 58.6239 136.363 58.8176 136.514 59.0798L136.748 59.4937L137.244 59.4937L136.941 58.9833C136.789 58.7485 136.652 58.569 136.556 58.4724C136.492 58.4127 136.417 58.3659 136.335 58.3347C136.556 58.3209 136.734 58.2381 136.872 58.0999C137.01 57.9615 137.079 57.7963 137.079 57.6027C137.079 57.465 137.037 57.3404 136.955 57.2301C136.878 57.1104 136.761 57.0222 136.625 56.9816C136.515 56.9404 136.35 56.9124 136.129 56.9124C136.088 56.9124 136.033 56.8987 135.978 56.8987L135.084 56.8987L135.084 59.4932L135.496 59.4932L135.496 58.3896ZM135.496 57.2576L136.129 57.2576C136.253 57.2718 136.335 57.2855 136.39 57.2993C136.465 57.3206 136.529 57.3699 136.568 57.437C136.609 57.4919 136.624 57.5615 136.624 57.6443C136.625 57.6967 136.615 57.7488 136.593 57.7965C136.572 57.8442 136.54 57.8865 136.5 57.9199C136.431 57.989 136.306 58.0165 136.128 58.0307L135.495 58.0307L135.495 57.2576L135.496 57.2576ZM73.7185 57.5478L77.4329 57.5478L73.7185 51.3371L70.5818 46.107L57.2527 54.139L59.2883 57.5478L73.7185 57.5478ZM108.273 57.5478L126.417 57.5478L115.123 38.6682L102.634 17.8286L97.4883 20.9339L89.3174 25.8605L97.4883 39.51L108.273 57.5478ZM101.932 63.7722C100.652 62.9446 99.1528 62.4612 97.5293 62.4612L97.4883 62.4612C93.0044 62.4886 89.3591 66.1598 89.3591 70.6589C89.3591 75.1586 93.0044 78.8292 97.4883 78.8571L97.5293 78.8571C99.1528 78.8571 100.652 78.3742 101.932 77.5461L101.932 78.4017L105.687 78.4017L105.687 57.5483L101.932 57.5483L101.932 63.7722ZM101.932 71.515C101.533 73.5853 99.7034 75.1718 97.5293 75.1718L97.4883 75.1718C95.0261 75.1443 93.0317 73.1294 93.0317 70.6589C93.0317 68.189 95.0261 66.174 97.4883 66.1598L97.5293 66.1598C99.7034 66.1598 101.533 67.7335 101.932 69.8034L101.932 71.515ZM119.567 63.7722C118.258 62.9152 116.728 62.4595 115.165 62.4612L115.123 62.4612C110.639 62.4886 106.994 66.1598 106.994 70.6589C106.994 75.1586 110.639 78.8292 115.123 78.8571L115.165 78.8571C116.788 78.8571 118.301 78.3742 119.567 77.5461L119.567 78.4017L123.323 78.4017L123.323 62.875L119.567 62.875L119.567 63.7722ZM119.567 71.515C119.168 73.5853 117.338 75.1718 115.165 75.1718L115.123 75.1718C112.662 75.1443 110.667 73.1294 110.667 70.6589C110.667 68.189 112.662 66.174 115.123 66.1598L115.165 66.1598C117.338 66.1598 119.168 67.7335 119.567 69.8034L119.567 71.515ZM136.679 69.6377C136.542 69.5681 136.349 69.4995 136.129 69.4166C135.29 69.1268 133.928 68.7679 132.029 68.3542C130.365 67.9811 129.526 67.4987 129.526 66.8912C129.526 66.4633 129.677 66.1181 129.966 65.87C130.351 65.5386 131.038 65.3729 132.029 65.3729C133.033 65.3729 133.762 65.594 134.189 66.0215C134.45 66.2838 134.643 66.7525 134.767 67.4153L138.756 67.4153C138.756 65.4557 137.958 64.0482 136.39 63.1927C136.307 63.1385 136.22 63.0925 136.129 63.0549C135.041 62.5441 133.597 62.2818 131.796 62.2818C129.608 62.2818 127.958 62.8618 126.858 64.0345C125.978 64.9728 125.551 66.1181 125.551 67.4708C125.551 69.1553 126.376 70.3692 128.054 71.1561C128.687 71.4595 130.228 71.8875 132.677 72.4121C134.314 72.771 135.138 73.2819 135.138 73.9305C135.138 74.3173 134.974 74.6482 134.616 74.9517C134.162 75.338 133.474 75.5317 132.552 75.5317C131.328 75.5317 130.462 75.3248 129.953 74.9247C129.443 74.5384 129.182 73.9726 129.182 73.2549L125 73.2549C125 75.1595 125.798 76.5808 127.407 77.5187C128.687 78.2502 130.365 78.6233 132.443 78.6233C133.832 78.6233 135.07 78.3884 136.129 77.9335C136.349 77.8369 136.542 77.7398 136.749 77.6295C138.386 76.7191 139.211 75.2698 139.211 73.2828C139.21 71.6527 138.371 70.4378 136.679 69.6377ZM60.3616 63.7722C59.0466 62.9168 57.5132 62.4615 55.946 62.4612L55.9045 62.4612C51.4343 62.4886 47.7888 66.1598 47.7888 70.6589C47.7888 75.1586 51.4343 78.8292 55.9045 78.8571L55.946 78.8571C57.5693 78.8571 59.0823 78.3742 60.3616 77.5461L60.3616 78.4017L64.1169 78.4017L64.1169 62.875L60.3616 62.875L60.3616 63.7722ZM60.3616 71.515C59.9629 73.5853 58.1328 75.1718 55.946 75.1718L55.9045 75.1718C53.4563 75.1443 51.4617 73.1294 51.4617 70.6589C51.4617 68.189 53.4563 66.174 55.9045 66.1598L55.946 66.1598C58.1333 66.1598 59.9629 67.7335 60.3616 69.8034L60.3616 71.515ZM83.8015 61.2331L87.8872 61.2331L87.8872 57.6306L83.8015 57.6306L83.8015 61.2331ZM83.8015 78.4012L87.8872 78.4012L87.8872 62.4612L83.8015 62.4612L83.8015 78.4012ZM78.1755 63.7722C76.8606 62.9167 75.3269 62.4614 73.7595 62.4612L73.7185 62.4612C69.2341 62.4886 65.5886 66.1598 65.5886 70.6589C65.5886 75.1586 69.2336 78.8292 73.7185 78.8571L73.7595 78.8571C75.3269 78.8571 76.8606 78.4017 78.1755 77.5461L78.1755 78.4017L81.9309 78.4017L81.9309 57.5483L78.1755 57.5483L78.1755 63.7722ZM78.1755 71.515C77.7769 73.5853 75.9468 75.1718 73.7595 75.1718L73.7185 75.1718C71.2561 75.1443 69.2615 73.1294 69.2615 70.6589C69.2615 68.189 71.2561 66.174 73.7185 66.1598L73.7595 66.1598C75.9468 66.1598 77.7764 67.7335 78.1755 69.8034L78.1755 71.515ZM101.917 57.5478L97.4883 50.1232L86.6079 31.9609L73.7185 39.7448L73.2783 40.0067L73.7185 40.7381L83.7874 57.5478L101.917 57.5478Z" fill="#464646" fill-opacity="1.000000" fill-rule="evenodd"/>
	</g>
	<rect id="logo" rx="6.000000" width="186.000000" height="95.000000" transform="translate(0.500000 0.500000)" stroke="#E1E1E1" stroke-opacity="0" stroke-width="1.000000"/>
</svg>
