<svg width="197.000000" height="31.000000" viewBox="0 0 197 31" fill="none" xmlns="http://www.w3.org/2000/svg" xmlns:xlink="http://www.w3.org/1999/xlink">
	<desc>
			Created with Pixso.
	</desc>
	<defs>
		<clipPath id="clip59_1762">
			<rect id="logo" width="197.000000" height="31.000000" fill="white" fill-opacity="0"/>
		</clipPath>
	</defs>
	<rect id="logo" width="197.000000" height="31.000000" fill="#FFFFFF" fill-opacity="0"/>
	<g clip-path="url(#clip59_1762)">
		<path id="Vector" d="M20.0183 0C22.6916 0 24.9936 0.227051 26.9244 0.680664C28.8764 1.10791 30.5313 1.69531 31.8892 2.44336C33.2683 3.19092 34.3822 4.07178 35.2309 5.08643C36.0796 6.07471 36.7373 7.11572 37.2041 8.21045C37.6921 9.30518 38.0209 10.4268 38.1907 11.5747C38.3604 12.6963 38.4453 13.7778 38.4453 14.8188L38.4453 16.0205C38.4453 17.0352 38.3604 18.1167 38.1907 19.2646C38.0209 20.3862 37.6921 21.5078 37.2041 22.6294C36.7373 23.7505 36.0796 24.8188 35.2309 25.8335C34.3822 26.8213 33.2683 27.7026 31.8892 28.4766C30.5313 29.251 28.8764 29.8652 26.9244 30.3188C24.9725 30.7729 22.6704 31 20.0183 31L18.427 31C15.7749 31 13.4728 30.7729 11.5209 30.3188C9.59011 29.8652 7.93514 29.251 6.55606 28.4766C5.19817 27.7026 4.08428 26.8213 3.21439 25.8335C2.3657 24.8188 1.69736 23.7505 1.20937 22.6294C0.742599 21.5078 0.424339 20.3862 0.254608 19.2646C0.0848694 18.1167 0 17.0352 0 16.0205L0 14.8188C0 13.7778 0.0848694 12.6963 0.254608 11.5747C0.424339 10.4268 0.742599 9.30518 1.20937 8.21045C1.69736 7.11572 2.3657 6.07471 3.21439 5.08643C4.06306 4.07178 5.16634 3.19092 6.52424 2.44336C7.90337 1.69531 9.55827 1.10791 11.489 0.680664C13.441 0.227051 15.7536 0 18.427 0L20.0183 0ZM25.9696 15.0596C25.9696 14.4185 25.8529 13.7646 25.6196 13.0967C25.4074 12.4292 25.0361 11.8286 24.5056 11.2944C23.9965 10.7607 23.3069 10.3335 22.437 10.0127C21.5671 9.66602 20.485 9.49219 19.1908 9.49219C17.8754 9.49219 16.7827 9.66602 15.9128 10.0127C15.0429 10.3335 14.3533 10.7607 13.8441 11.2944C13.3349 11.8286 12.9742 12.4292 12.762 13.0967C12.5499 13.7646 12.4438 14.4185 12.4438 15.0596L12.4438 15.54C12.4438 16.2075 12.5499 16.8887 12.762 17.5825C12.9954 18.2769 13.3773 18.918 13.9078 19.5054C14.4382 20.0659 15.1278 20.5332 15.9764 20.9072C16.8463 21.2539 17.9178 21.4277 19.1908 21.4277C20.485 21.4277 21.5565 21.2539 22.4052 20.9072C23.2751 20.5601 23.9752 20.106 24.5056 19.5454C25.0361 18.9844 25.4074 18.3569 25.6196 17.6626C25.8529 16.9688 25.9696 16.2876 25.9696 15.6201L25.9696 15.0596Z" fill="#2B2929" fill-opacity="1.000000" fill-rule="nonzero"/>
		<path id="Vector" d="M55.7991 31C52.4893 31 49.7735 30.5459 47.6518 29.6382C45.5301 28.7036 43.8539 27.5156 42.6234 26.0737C41.414 24.605 40.5759 22.9897 40.1092 21.2275C39.6423 19.4385 39.409 17.6895 39.409 15.9805L39.409 14.7793C39.409 12.8833 39.6742 11.0542 40.2046 9.29199C40.735 7.50293 41.6792 5.92773 43.0371 4.56592C44.4162 3.17725 46.2727 2.06934 48.6066 1.2417C50.9616 0.414062 53.9639 0 57.6132 0L58.6316 0C61.4323 0 63.8298 0.200195 65.8242 0.600586C67.8187 0.974609 69.4948 1.48193 70.8525 2.12256C72.2108 2.73682 73.2925 3.45801 74.0987 4.28564C74.905 5.11328 75.5206 5.96777 75.9449 6.84863C76.3905 7.70312 76.6764 8.57129 76.8042 9.45215C76.9313 10.3066 76.9948 11.0942 76.9948 11.8154L76.9948 11.8555L64.6467 11.8555C64.6042 11.6685 64.4981 11.4146 64.3284 11.0942C64.1799 10.7739 63.8828 10.4668 63.4372 10.1733C63.0129 9.85254 62.3976 9.58545 61.5914 9.37207C60.8063 9.13184 59.7561 9.01172 58.4407 9.01172C57.2525 9.01172 56.2447 9.17188 55.4172 9.49219C54.5898 9.78613 53.9108 10.1997 53.3804 10.7339C52.8499 11.2681 52.4575 11.9087 52.2029 12.6562C51.9695 13.4038 51.8528 14.2314 51.8528 15.1396L51.8528 15.5C51.8528 16.4346 51.9695 17.3154 52.2029 18.1436C52.4362 18.9443 52.8075 19.6519 53.3168 20.2661C53.8472 20.8535 54.5155 21.3208 55.3218 21.668C56.1492 22.0151 57.157 22.1885 58.3452 22.1885C59.5121 22.1885 60.4775 22.0952 61.2413 21.9082C62.0263 21.6948 62.6416 21.4541 63.0872 21.1875C63.5539 20.8936 63.8722 20.6001 64.0419 20.3062C64.2329 20.0127 64.3284 19.7588 64.3284 19.5454L57.9314 19.5454L57.9314 13.4575L77.1544 13.4575L77.1544 30.3994L69.0387 30.3994C68.9328 29.9722 68.7415 29.438 68.4654 28.7974C68.1901 28.1562 67.9034 27.6489 67.6062 27.2754C67.4156 27.4888 67.076 27.8091 66.5881 28.2363C66.1212 28.6367 65.4529 29.0508 64.583 29.478C63.7343 29.8784 62.6629 30.2256 61.3686 30.5195C60.0744 30.8398 58.4937 31 56.6266 31L55.7991 31Z" fill="#2B2929" fill-opacity="1.000000" fill-rule="nonzero"/>
		<path id="Vector" d="M99.2809 27.5571C97.7339 27.5571 96.4133 27.4453 95.3177 27.2212C94.2229 27.0146 93.2988 26.7305 92.5461 26.3687C91.7935 26.0068 91.1911 25.5933 90.739 25.1284C90.3014 24.6631 89.9658 24.1807 89.7334 23.6812C89.5004 23.1816 89.3502 22.6909 89.2813 22.2085C89.2131 21.709 89.1787 21.2524 89.1787 20.8389L89.1787 20.6323L98.3158 20.6323C98.3158 20.8389 98.3429 21.063 98.3979 21.3037C98.4528 21.5449 98.562 21.769 98.7262 21.9756C98.8904 22.1826 99.13 22.355 99.4451 22.4927C99.7734 22.6304 100.205 22.6992 100.739 22.6992C101.19 22.6992 101.567 22.665 101.868 22.5957C102.169 22.5098 102.409 22.4062 102.587 22.2856C102.764 22.165 102.888 22.0273 102.956 21.8726C103.038 21.7002 103.079 21.5278 103.079 21.3555L103.079 21.2783C103.079 21.123 103.052 20.9683 102.997 20.813C102.956 20.6577 102.84 20.52 102.648 20.3994C102.456 20.2788 102.169 20.1758 101.786 20.0894C101.416 20.0034 100.903 19.9429 100.246 19.9087L97.0223 19.7793C95.4482 19.7104 94.1679 19.4951 93.1829 19.1333C92.1973 18.7715 91.4234 18.3154 90.8621 17.7642C90.3146 17.2129 89.9386 16.584 89.7334 15.8774C89.5276 15.1714 89.425 14.439 89.425 13.6812L89.425 13.4487C89.425 12.5527 89.5825 11.7432 89.8976 11.02C90.212 10.2964 90.7462 9.68457 91.4989 9.18506C92.2515 8.66846 93.2445 8.28076 94.4764 8.02246C95.7215 7.74658 97.2686 7.60889 99.1167 7.60889L101.724 7.60889C103.778 7.60889 105.454 7.77246 106.754 8.09961C108.068 8.41016 109.095 8.84082 109.835 9.39209C110.587 9.94287 111.108 10.5894 111.395 11.3296C111.683 12.0532 111.826 12.8286 111.826 13.6553L111.826 13.7847L102.874 13.7847C102.86 13.6294 102.826 13.4658 102.771 13.2935C102.716 13.104 102.607 12.9316 102.443 12.7769C102.278 12.6216 102.046 12.4927 101.745 12.3892C101.444 12.2856 101.04 12.2344 100.533 12.2344C100.068 12.2344 99.6913 12.2603 99.404 12.3115C99.1167 12.3462 98.8904 12.4062 98.7262 12.4927C98.562 12.5786 98.4528 12.6909 98.3979 12.8286C98.3429 12.9492 98.3158 13.0869 98.3158 13.2422L98.3158 13.2935C98.3158 13.4829 98.3568 13.647 98.4389 13.7847C98.5349 13.9053 98.6924 14.0171 98.9109 14.1206C99.13 14.2065 99.4312 14.2842 99.8145 14.353C100.198 14.4048 100.684 14.439 101.273 14.4565L104.352 14.5596C105.844 14.6113 107.097 14.7666 108.11 15.0249C109.136 15.2832 109.964 15.6538 110.595 16.1362C111.237 16.6182 111.696 17.2212 111.97 17.9448C112.257 18.6509 112.401 19.4951 112.401 20.4771L112.401 20.8389C112.401 21.7002 112.264 22.5356 111.991 23.3452C111.717 24.1377 111.196 24.8525 110.43 25.4902C109.677 26.1104 108.623 26.6099 107.268 26.9888C105.913 27.3677 104.147 27.5571 101.97 27.5571L99.2809 27.5571Z" fill="#2B2929" fill-opacity="1.000000" fill-rule="nonzero"/>
		<path id="Vector" d="M119.016 14.5596L112.426 14.5596L112.426 7.94482L133.41 7.94482L133.41 14.5596L126.819 14.5596L126.819 27.1694L119.016 27.1694L119.016 14.5596Z" fill="#2B2929" fill-opacity="1.000000" fill-rule="nonzero"/>
		<path id="Vector" d="M142.288 20.3477L133.562 7.94434L142.555 7.94434L146.477 13.7324L150.46 7.94434L158.735 7.94434L150.091 20.4766L150.091 27.1689L142.288 27.1689L142.288 20.3477Z" fill="#2B2929" fill-opacity="1.000000" fill-rule="nonzero"/>
		<path id="Vector" d="M166.832 7.94434L166.832 20.3218L177.428 20.3218L177.428 27.1689L159.03 27.1689L159.03 7.94434L166.832 7.94434Z" fill="#2B2929" fill-opacity="1.000000" fill-rule="nonzero"/>
		<path id="Vector" d="M196.918 7.94482L196.918 13.3193L186.18 13.3193L186.18 14.8184L196.795 14.8184L196.795 20.0894L186.18 20.0894L186.18 21.7432L197 21.7432L197 27.1694L178.5 27.1694L178.5 7.94482L196.918 7.94482Z" fill="#2B2929" fill-opacity="1.000000" fill-rule="nonzero"/>
	</g>
</svg>
