<svg width="187.000000" height="96.000000" viewBox="0 0 187 96" fill="none" xmlns="http://www.w3.org/2000/svg" xmlns:xlink="http://www.w3.org/1999/xlink">
	<desc>
			Created with Pixso.
	</desc>
	<defs>
		<clipPath id="clip225_2101">
			<rect id="air-jordan-logo 1" width="40.170368" height="37.028572" transform="translate(72.722168 12.342834)" fill="white" fill-opacity="0"/>
		</clipPath>
		<clipPath id="clip225_2099">
			<rect id="Frame 513746" rx="6.000000" width="186.000000" height="95.000000" transform="translate(0.500000 0.500000)" fill="white" fill-opacity="0"/>
		</clipPath>
	</defs>
	<g clip-path="url(#clip225_2099)">
		<rect id="air-jordan-logo 1" width="40.170368" height="37.028572" transform="translate(72.722168 12.342834)" fill="#FFFFFF" fill-opacity="0"/>
		<g clip-path="url(#clip225_2101)">
			<path id="Vector" d="M94.5459 14.8667C94.5303 14.7844 94.5198 14.7012 94.5142 14.6176C94.4846 14.1982 94.5815 13.7796 94.7927 13.4147C95.0039 13.0498 95.3198 12.7549 95.7007 12.5674C96.0815 12.3799 96.51 12.3082 96.9319 12.3613C97.354 12.4143 97.7505 12.5898 98.0715 12.8656C98.3928 13.1414 98.6238 13.5051 98.7358 13.9106C98.8477 14.3162 98.8354 14.7454 98.7007 15.1441C98.5657 15.5428 98.3142 15.893 97.978 16.1505C97.6416 16.408 97.2358 16.5611 96.8113 16.5906C96.7373 16.5948 96.6631 16.5948 96.5891 16.5906C96.5454 16.5974 96.5046 16.6163 96.4712 16.645C96.3496 16.8359 96.7815 16.7978 96.4878 17.6187C96.4849 17.6802 96.4731 17.7409 96.4529 17.7991C96.4297 18.1141 96.3071 19.0486 96.2898 19.546C96.3525 19.6185 96.3699 19.6529 96.363 19.8323C96.3252 20.2302 96.2668 20.6259 96.1882 21.0179C96.1748 21.1124 96.1396 21.2026 96.0854 21.2816C96.0315 21.3607 95.96 21.4266 95.8762 21.4742C95.7275 22.1328 95.6877 22.6788 95.3054 23.4788C95.2705 24.0859 95.2271 24.251 95.0986 24.5469C95.084 25.4404 95.147 25.5731 94.5364 26.9878C94.3789 27.6493 94.5286 28.1065 94.6948 28.7947C94.8647 29.5012 95.3362 29.7961 95.4067 30.5197C95.572 32.2236 95.5303 33.3834 95.1604 34.7197L95.4832 35.4758C95.884 35.6571 96.8779 36.1535 96.3264 36.9401C97.0991 37.3439 98.2759 37.7715 99.2429 38.5895C99.6594 38.9199 100.05 39.2808 100.412 39.6692C101.114 39.777 101.039 39.8324 101.559 40.1465C103.09 41.0734 105.544 42.9147 106.969 44.2158C107.215 44.3571 107.314 44.4592 107.512 44.5613C107.543 44.6205 107.552 44.6339 107.545 44.6492C107.476 44.819 107.479 44.8239 107.418 44.9594C107.516 45.0432 107.618 45.1219 107.724 45.1951C107.804 45.22 107.804 45.1818 107.941 45.1484C108.12 45.3135 108.341 45.4462 108.424 45.4348C108.667 45.3737 108.625 45.4233 108.83 45.1971C108.903 45.1226 109.023 45.1971 109.023 45.1971C109.154 45.0417 109.31 44.9083 109.485 44.8019C109.66 44.6997 109.996 44.6883 109.996 44.6883C110.108 44.6883 110.086 44.8029 110.077 44.8401C109.95 44.905 109.681 44.9756 109.53 45.0854C109.306 45.3264 109.109 45.5912 108.944 45.8748C109.605 45.7851 110.012 45.9474 110.564 45.8853C110.864 45.8681 111.086 45.8853 111.402 45.661C111.585 45.5348 111.779 45.4255 111.982 45.3345C112.247 45.2209 112.497 45.2811 112.729 45.4481C112.894 45.6314 112.992 45.6323 112.743 45.8901C112.653 45.9903 112.522 46.103 112.357 46.2653C112.01 46.6145 111.643 46.944 111.258 47.2523C110.895 47.5369 110.502 47.7832 110.086 47.9872C109.349 48.5104 109.523 48.3691 108.945 48.8922C108.871 48.9571 108.677 49.0726 108.583 49.1337C108.354 49.2817 108.284 49.1585 108.134 48.8865C108.069 48.7836 108.008 48.6775 107.954 48.5686C107.831 48.3318 107.738 48.0617 107.776 48.0665C107.639 48.0493 107.02 47.3334 107.019 47.1797C106.889 47.1501 106.332 46.6165 106.311 46.5115L105.818 46.1201C105.252 46.2357 105.123 45.8891 103.631 44.8429C103.46 44.8429 103.198 44.7474 102.821 44.4725C102.145 43.9399 100.532 42.7343 100.259 42.5968C99.9692 42.4489 99.6138 42.3105 99.3984 42.1339C99.0757 42.0747 98.8989 42.0384 98.7375 41.9974C98.4985 41.9226 98.2532 41.8699 98.0044 41.8398C97.3281 41.7568 96.6191 41.4781 95.9478 41.1459C95.6299 40.9969 95.3525 40.9206 95.0784 40.8051C94.4639 40.5493 93.9385 40.3183 93.5327 40.2247C93.0857 40.1298 92.6541 39.9756 92.2488 39.7665C92.1541 39.7056 92.0535 39.6541 91.9482 39.6129C91.8032 39.5866 91.6531 39.6091 91.5225 39.6768C91.0249 39.9336 90.5564 40.1541 90.1284 40.3832C89.7275 40.5951 89.3555 40.8146 88.9692 41.037C88.6165 41.2385 88.209 41.4285 87.7905 41.626C87.7905 41.626 86.5967 42.2179 85.9446 42.447C85.1736 43.0466 84.3621 43.5936 83.5159 44.084C83.1663 44.2482 82.4871 44.674 82.1741 44.7684C81.9954 44.9107 81.3586 45.3593 80.8604 45.7297C80.4739 46.0161 80.1841 46.2547 80.1841 46.2547C79.96 46.4532 79.9753 46.5468 79.5503 46.3683C79.4324 46.4637 79.3408 46.5239 79.2605 46.5793C78.9534 46.7998 78.9272 46.7463 78.8152 46.7406C78.6008 46.9239 78.5737 46.8293 78.3862 47.0394C78.2637 47.2303 78.3862 47.1826 78.1294 47.2742C78.0742 47.2952 78.0481 47.3601 78.0066 47.3964C77.7981 47.5663 77.7971 48.0455 77.2976 48.0798C77.0078 48.2841 77.082 48.5295 76.8608 48.519C76.8745 48.7309 76.4746 49.0392 76.3972 49.0382C75.7607 49.2559 75.7161 48.7929 74.9482 49.1337C74.8516 49.1786 74.7039 49.3017 74.5134 49.338C74.1772 49.401 73.7705 49.338 73.5232 49.147C73.137 48.8502 72.7737 48.2765 72.7737 48.2765C72.6499 47.9901 72.7214 47.7992 73.1089 47.53C73.2703 47.4288 73.302 47.3525 73.5706 47.3391C73.7048 47.2885 73.6672 47.3658 73.9087 47.2799C74.0479 47.2303 74.0479 47.2656 74.3289 47.2418C74.4165 47.1993 74.509 47.1672 74.6042 47.1463C74.8264 47.0737 75.043 46.9935 75.043 46.9935C75.043 46.9935 75.0999 46.9373 75.3125 46.9573C75.4929 46.8838 75.6785 46.7759 75.7732 46.7425C75.749 46.4561 75.78 46.4733 75.9124 46.3607C76.0774 46.2203 76.1055 46.2433 76.2302 46.3301C76.2822 46.3005 76.3074 46.29 76.3015 46.2471C76.2812 46.1001 76.1538 46.0304 76.1924 45.7059C76.1355 45.576 76.0522 45.4195 76.0708 45.3183C76.0891 45.2171 76.1238 45.1636 76.1875 45.1274C76.2515 45.0911 76.2783 45.1398 76.3142 45.1808C76.3694 45.2729 76.4092 45.3732 76.4321 45.4777C76.4551 45.7288 76.5334 46.0505 76.7847 45.8701C76.9324 45.7221 76.9614 45.3269 77.2676 45.4119L77.4832 45.597C77.5713 45.5042 77.6724 45.4241 77.7834 45.3593C77.7834 45.3593 77.6125 45.1885 77.7622 45.0558C77.9231 44.9377 78.0725 44.8051 78.2085 44.6597C78.686 44.1208 79.2107 43.6248 79.7764 43.1772C80.9053 42.2768 82.1621 41.5451 83.5063 41.0056C83.8135 40.6237 84.1128 40.3641 84.7949 40.2992C85.6055 38.9466 87.1577 37.7381 87.5151 37.5453C87.8052 37.026 87.9316 37.0814 88.3103 36.9725C88.6108 36.7349 88.6792 36.7349 88.8137 36.4857C88.9441 35.9722 88.5122 34.6004 89.6155 34.5308C89.7483 34.335 89.8945 34.1484 90.053 33.9724C89.9089 33.6181 89.8088 33.2479 89.7554 32.8698C89.7468 32.8335 89.3179 32.5347 89.4397 32.1443C89.199 31.8486 88.988 31.5306 88.8098 31.1945C88.7615 31.1899 88.7136 31.1816 88.6667 31.1697C88.6108 31.1611 88.5422 31.164 88.4639 31.1573C88.292 31.5955 88.1045 31.6279 87.7993 31.7253C87.2534 32.8707 87.0613 33.3605 85.5176 34.3112C85.1489 34.7228 84.874 35.2078 84.7119 35.7335C84.6064 35.9578 84.6433 36.2709 84.6992 36.4389C84.6182 36.688 84.6394 36.7119 84.6394 36.7119C84.657 36.7668 84.6865 36.8172 84.7261 36.8594C84.7659 36.9017 84.8142 36.9348 84.8684 36.9563C85.0537 37.005 85.2393 36.9973 85.2288 37.2016C85.2036 37.4575 84.8645 37.4155 84.7041 37.3868C84.0859 37.2914 84.282 36.8923 83.887 37.025C83.5845 37.2159 83.4705 37.7982 82.9768 37.7228C82.9111 37.6799 82.9314 37.5538 82.9768 37.4632C83.0464 37.3209 83.1702 37.2026 83.0957 37.1501C82.7749 37.2455 82.1296 37.4603 82.1296 37.4603C81.8274 37.5424 81.4958 37.3925 81.7935 37.1959C81.9966 37.1264 82.1909 37.0345 82.373 36.9219C82.373 36.9219 82.4988 36.753 82.2581 36.837C81.9592 36.9383 81.6431 36.9792 81.3279 36.9573C81.3279 36.9573 80.7483 36.8828 80.6768 36.838C80.6052 36.7931 80.5337 36.6165 80.7144 36.6174C81.1348 36.6007 81.5522 36.5399 81.9597 36.436C82.1741 36.3539 82.5808 36.1154 82.8098 36.0037C82.8098 36.0037 83.0581 35.6466 83.196 35.576C83.4241 35.3163 83.6165 35.1636 83.8174 34.8992C84.0105 34.4973 84.2183 33.8616 84.8704 32.8774C85.2034 32.3588 85.5869 31.8738 86.0159 31.4294C86.1182 30.9324 86.3757 30.4797 86.7522 30.1349C86.9128 29.7814 87.0942 29.4374 87.2959 29.105C87.3752 28.9733 87.4495 28.8578 87.5249 28.7327C87.718 28.4377 87.9114 27.8879 88.657 27.801C88.8174 27.6852 88.9646 27.5524 89.0957 27.4049C89.2888 27.2446 89.2424 26.9944 89.397 26.8188C89.1604 26.5906 88.5566 26.163 88.4978 25.5674C88.4656 25.2869 88.4988 25.0029 88.5942 24.737C88.6899 24.4711 88.8455 24.2301 89.0493 24.0324C89.4783 23.6086 89.9294 23.3976 90.478 23.4291C91.1631 23.5294 91.2925 23.7537 91.5107 23.9761C91.729 24.1985 91.8005 24.0515 91.8865 24.2978C92.4614 24.4486 92.4294 24.3828 92.4246 24.7999C92.5125 24.9173 92.6614 25.0271 92.6594 25.2705C92.8525 24.8743 92.8911 24.8018 93.407 24.3656C93.5288 24.0114 93.6118 23.663 93.719 23.3088C93.8157 22.9814 93.9441 22.6407 94.0417 22.3906C93.9395 21.6746 94.1499 21.5563 94.4282 20.9291C94.3779 20.8432 94.3887 20.8184 94.4099 20.6761C94.519 20.2609 94.6899 19.713 94.7961 19.355C94.8069 19.314 94.8301 19.2773 94.8628 19.2499C94.8955 19.2226 94.936 19.2059 94.9788 19.2023C95.1072 18.7499 95.3005 17.906 95.3333 17.7342C95.4656 17.2569 95.3806 17.1089 95.2783 16.8417C95.2454 16.7548 95.261 16.6298 95.2039 16.5334C95.0435 16.2575 94.8706 15.8986 94.7537 15.6418C94.6775 15.4786 94.5605 14.8629 94.5605 14.8629C94.458 14.5488 94.5479 14.8629 94.5479 14.8629L94.5459 14.8667Z" fill="#464646" fill-opacity="1.000000" fill-rule="nonzero"/>
		</g>
		<path id="Vector" d="M135.395 75.0184L135.395 75.5576L138.736 75.5576L138.676 63.5958L141.319 75.5576L144.752 75.5576L144.752 51.5126L141.409 51.5126L141.44 63.4459L138.827 51.5126L135.395 51.5126L135.395 75.0184ZM99.1484 75.0184L99.1484 75.5576L102.855 75.5576C103.48 75.5917 104.107 75.5208 104.708 75.3477C105.225 75.2279 105.711 74.9572 106.044 74.5378C106.136 74.4476 106.227 74.3585 106.288 74.2376L106.319 74.2376C106.625 73.7535 106.86 73.2288 107.017 72.6793C107.382 71.3303 107.594 69.9512 107.716 68.5722L107.716 68.5416C107.843 65.4951 107.863 62.4453 107.777 59.3975C107.777 58.2278 107.685 57.0287 107.442 55.8597C107.321 55.0799 107.077 54.3007 106.744 53.5511C106.47 52.9512 106.044 52.4116 105.467 52.0217C105.437 51.9916 105.407 51.9615 105.377 51.9615L105.346 51.9615C105.133 51.8117 104.89 51.722 104.616 51.6619C104.282 51.5722 103.918 51.512 103.584 51.512L99.1484 51.512L99.1484 75.0184ZM102.308 71.0908L102.308 55.9499C102.673 55.9499 103.038 55.9499 103.402 56.01C103.493 56.01 103.584 56.0401 103.645 56.0702L103.676 56.0702C103.767 56.1298 103.857 56.22 103.919 56.3102C103.949 56.3403 103.949 56.3704 103.979 56.4299C104.07 56.6694 104.161 56.91 104.221 57.1495C104.373 57.6592 104.434 58.1989 104.465 58.7385C104.616 61.0772 104.647 63.4153 104.586 65.7545C104.586 66.7437 104.526 67.7328 104.434 68.7226C104.374 69.3519 104.221 69.9518 104.04 70.5505C104.009 70.6407 103.948 70.731 103.918 70.7906L103.887 70.7906C103.856 70.8808 103.766 70.9404 103.704 70.97L103.675 70.97C103.583 71.0306 103.462 71.0602 103.37 71.0602L103.157 71.0602L102.308 71.0908ZM78.002 75.0184L78.002 75.5576L81.0095 75.5576L81.0095 65.4833C81.3743 65.4833 81.7083 65.514 82.0425 65.5735L82.073 65.5735C82.1638 65.5735 82.2546 65.6042 82.3462 65.6332C82.498 65.6938 82.5889 65.783 82.7107 65.9038C82.832 66.1138 82.9534 66.3528 82.9839 66.5928C83.0754 66.9832 83.1057 67.4026 83.1357 67.7925L83.1968 72.1095C83.1968 73.1287 83.2576 74.1179 83.3789 75.1071L83.4399 75.5571L87.2678 75.5571L86.8428 74.7183C86.6604 74.3585 86.5085 73.9987 86.4478 73.5782C86.3867 73.1293 86.3264 72.6793 86.3264 72.2292L86.2051 67.2523C86.2051 66.5327 86.144 65.783 86.0227 65.0935C85.9287 64.5012 85.7002 63.9375 85.3538 63.4449L85.3235 63.4142C85.2483 63.31 85.1558 63.2189 85.0503 63.1447C85.1106 63.0851 85.1716 63.0239 85.2021 62.9642C85.5662 62.4547 85.8398 61.8849 85.9617 61.2555C86.2959 59.4265 86.3567 57.5679 86.1135 55.7388C86.0601 55.0385 85.8958 54.3507 85.627 53.7004C85.4143 53.1005 85.0496 52.5909 84.5637 52.1715L84.5332 52.1414C84.0168 51.7816 83.3784 51.5416 82.7102 51.5115L78.0007 51.5115L78.0007 75.0184L78.002 75.0184ZM81.0103 61.2265L81.0103 55.8L81.709 55.8C81.9521 55.8 82.1643 55.8301 82.4077 55.9198C82.5295 55.9799 82.6509 56.0401 82.7417 56.1599C82.7417 56.1599 82.7417 56.1899 82.7722 56.1899L82.7722 56.22C82.8027 56.2501 82.8027 56.2796 82.8333 56.3097C82.9546 56.5497 83.0459 56.8193 83.0764 57.0593C83.1978 58.0485 83.1672 59.0382 83.0459 59.9973C83.0154 60.2674 82.9246 60.5069 82.8333 60.7469C82.7722 60.8667 82.6814 60.9569 82.5898 61.0466C82.3984 61.1378 82.1934 61.1985 81.9827 61.2265L81.0103 61.2265ZM60.6841 63.5351C60.6538 64.9141 60.6841 66.2642 60.7451 67.6432C60.7756 68.7226 60.8665 69.8019 60.9878 70.8808L60.9878 70.9103C61.1096 71.9296 61.3828 72.9493 61.7781 73.9385C61.9907 74.5089 62.3555 75.019 62.8108 75.4679C62.9019 75.5581 63.0237 75.6177 63.1145 75.7079L63.145 75.7079C63.3577 75.8578 63.6006 75.948 63.8438 76.0081C64.3601 76.1279 64.8767 76.158 65.3936 76.0377C65.7026 75.973 65.9998 75.862 66.2747 75.7085L66.2747 75.6774L66.3052 75.6774C66.7615 75.353 67.1272 74.92 67.3684 74.4186C67.4294 74.2988 67.5203 74.1786 67.5508 74.0588C68.0063 73.009 68.3105 71.87 68.4014 70.731C68.7056 67.0128 68.7964 63.2956 68.6445 59.608C68.6138 58.4049 68.5227 57.2042 68.3713 56.01C68.25 55.0209 67.9763 54.0311 67.6118 53.1016C67.3687 52.5334 67.0061 52.0226 66.5483 51.6028C66.4265 51.5126 66.3357 51.4229 66.2441 51.3628L66.2136 51.3327C65.9944 51.2119 65.7593 51.1212 65.5149 51.0631C65.0056 50.9428 64.4749 50.9428 63.9656 51.0631C63.6565 51.1276 63.3594 51.2388 63.0845 51.3928L63.0845 51.4229L63.0542 51.4229C62.6287 51.7526 62.2639 52.2026 61.9907 52.6822L61.8086 53.042C61.3865 54.0481 61.1104 55.1078 60.9878 56.1899C60.7451 58.6183 60.6238 61.0772 60.6841 63.5351ZM63.6011 63.5652L63.6011 63.5345C63.6011 62.0664 63.6011 60.5671 63.6614 59.0978C63.6614 58.3186 63.7529 57.569 63.8743 56.8193L63.8743 56.7892C63.9084 56.4886 63.9905 56.1953 64.1169 55.9198C64.178 55.8 64.2388 55.6803 64.3601 55.5901L64.4211 55.5305C64.573 55.4408 64.7856 55.4408 64.968 55.5305C64.968 55.5605 64.9985 55.5605 65.0291 55.5901C65.0596 55.6202 65.1199 55.6502 65.1504 55.6803C65.2717 55.8602 65.363 56.0401 65.3936 56.2501C65.5454 56.7897 65.6064 57.3295 65.6667 57.8691C65.7881 60.8076 65.8186 63.7462 65.7576 66.7142L65.7576 66.7437C65.7625 67.8864 65.6914 69.0282 65.5449 70.1617C65.5107 70.4911 65.429 70.8139 65.3022 71.1203C65.2412 71.2411 65.1809 71.3604 65.0588 71.4506C65.0588 71.4812 64.998 71.5102 64.968 71.5408C64.8162 71.6004 64.6035 71.6004 64.4517 71.5102C64.4211 71.5102 64.3906 71.4807 64.3906 71.4807L64.3601 71.4807C64.3228 71.446 64.292 71.4051 64.2693 71.3598C64.1479 71.21 64.0564 71 63.9961 70.79C63.8748 70.3105 63.7834 69.8304 63.7534 69.3208C63.6316 67.4031 63.5706 65.4839 63.6011 63.5652ZM43.458 67.2227L42.9409 67.2227L42.9409 70.2809C42.9409 71.181 43.0322 72.08 43.2451 72.9493C43.4006 73.5804 43.668 74.1794 44.0347 74.7188C44.3689 75.2579 44.9158 75.6774 45.5237 75.8873C46.3743 76.1875 47.3467 76.1875 48.1973 75.8578C48.7136 75.6478 49.1997 75.3176 49.5344 74.8981C50.0398 74.2239 50.3828 73.4449 50.5374 72.6202C50.658 71.9975 50.719 71.365 50.7195 70.731L50.75 52.0523L50.75 51.5126L47.1345 51.5126L47.1345 66.8624C47.1648 68.1523 47.1345 69.4417 47.104 70.76C47.104 70.97 47.0735 71.21 47.0132 71.45C47.0132 71.5096 46.9827 71.5698 46.9521 71.6294C46.9216 71.66 46.9216 71.6901 46.8911 71.6901C46.863 71.7159 46.8276 71.7325 46.7896 71.7379C46.7515 71.7431 46.7126 71.7368 46.6785 71.7196L46.6179 71.6901C46.5811 71.6443 46.5505 71.5939 46.5271 71.5402L46.4363 71.2696C46.4058 71.0596 46.3752 70.8502 46.3752 70.6403L46.3752 67.2222L43.458 67.2227Z" fill="#464646" fill-opacity="1.000000" fill-rule="evenodd"/>
		<path id="Vector" d="M117.407 74.9282L117.346 75.5576L120.567 75.5576L121.144 69.8019L122.998 69.8019L123.575 75.5576L126.948 75.5576L124.031 51.5126L120.203 51.5126L117.407 74.9282Z" fill="#464646" fill-opacity="1.000000" fill-rule="evenodd"/>
		<path id="Vector" d="M75.2979 64.5248L73.5356 60.1471L72.5938 60.1471L70.8621 64.5248L71.8035 64.5248L72.1682 63.5345L73.9607 63.5345L74.3252 64.5248L75.2979 64.5248ZM73.6575 62.7859L72.4424 62.7859L73.0503 61.1669L73.6575 62.7859ZM93.1021 64.7042L93.9829 64.7042L93.9829 60.3275L93.1021 60.3275L93.1021 64.7042ZM111.543 65.1541L112.456 65.1541L112.456 63.3552L112.637 63.3552C112.76 63.3246 112.88 63.3552 113.002 63.3552C113.082 63.3771 113.156 63.4182 113.216 63.4749C113.306 63.5056 113.366 63.5958 113.428 63.6553C113.58 63.8347 113.702 64.0151 113.823 64.2251L114.462 65.1541L115.556 65.1541L115.008 64.3154C114.917 64.1655 114.795 64.0151 114.704 63.8654C114.526 63.6035 114.286 63.3876 114.006 63.236C114.127 63.236 114.248 63.2053 114.339 63.1458C114.567 63.0922 114.77 62.9656 114.917 62.7859C115.1 62.576 115.191 62.3053 115.191 62.0068C115.191 61.9471 115.191 61.8569 115.16 61.7968C115.129 61.4064 114.856 61.0767 114.491 60.9268C114.391 60.8658 114.275 60.8347 114.158 60.8372C113.914 60.8071 113.671 60.777 113.428 60.8071L111.544 60.8071L111.544 65.1541L111.543 65.1541ZM112.456 62.6361L112.456 61.5267L113.641 61.5267C113.701 61.5267 113.762 61.5573 113.792 61.5573L113.883 61.5573C113.948 61.574 114.008 61.6041 114.061 61.6454C114.113 61.6868 114.156 61.7385 114.187 61.7973C114.248 61.8865 114.248 61.9767 114.248 62.0669L114.248 62.1866C114.233 62.2833 114.191 62.374 114.126 62.4482C114.062 62.5225 113.978 62.5771 113.883 62.606C113.823 62.606 113.761 62.6061 113.701 62.6367L112.456 62.6367L112.456 62.6361Z" fill="#464646" fill-opacity="1.000000" fill-rule="evenodd"/>
		<path id="Vector" d="M121.632 65.2443L122.542 65.2443L122.086 60.7469L121.632 65.2443Z" fill="#FFFFFF" fill-opacity="1.000000" fill-rule="evenodd"/>
	</g>
	<rect id="Frame 513746" rx="6.000000" width="186.000000" height="95.000000" transform="translate(0.500000 0.500000)" stroke="#E1E1E1" stroke-opacity="0" stroke-width="1.000000"/>
</svg>
