<svg width="185.000000" height="98.000000" viewBox="0 0 185 98" fill="none" xmlns="http://www.w3.org/2000/svg" xmlns:xlink="http://www.w3.org/1999/xlink">
	<desc>
			Created with Pixso.
	</desc>
	<defs/>
	<path id="Vector" d="M31.0093 59.992C29.5383 59.992 28.3865 61.0355 28.3865 62.5582C28.3865 64.0818 29.5442 65.1194 31.0093 65.1194C32.4736 65.1194 33.6321 64.0748 33.6321 62.5582C33.6321 61.0355 32.4795 59.992 31.0093 59.992ZM31.0093 64.3856C29.9604 64.3856 29.1824 63.6087 29.1824 62.5582C29.1824 61.5087 29.9546 60.7258 31.0093 60.7258C32.0513 60.7258 32.8354 61.5207 32.8354 62.5582C32.8354 63.5897 32.0444 64.3856 31.0093 64.3856ZM56.531 51.0165L43.7627 51.0165L45.2141 28.5145L36.9224 51.0165L25.0657 51.0165L43.8784 0.155365L56.4944 0.155365L55.0381 22.9661L63.4871 0.155365L75.3447 0.155365L56.531 51.0165ZM58.0713 51.0165L76.8831 0.155365L88.7397 0.155365L69.928 51.0165L58.0713 51.0165Z" fill="#FFFFFF" fill-opacity="1.000000" fill-rule="evenodd"/>
	<path id="Vector" d="M23.6985 33.4854C7.12988 53.2138 -8.49951 79.4638 5.30591 91.5518C18.6831 103.266 35.4038 96.3303 46.8047 91.7062C58.2056 87.0821 184.22 31.5968 184.22 31.5968C185.436 30.9804 185.209 30.2095 183.688 30.5944C183.075 30.7498 46.5012 68.2779 46.5012 68.2779C29.1704 73.2108 9.40967 62.46 23.6985 33.4854Z" fill="#FFFFFF" fill-opacity="1.000000" fill-rule="evenodd"/>
	<path id="Vector" d="M31.4561 62.7386C31.8237 62.7206 32.1116 62.5281 32.1116 62.0119C32.1116 61.3463 31.6824 61.1789 30.9658 61.1789L29.9355 61.1789L29.9355 63.9385L30.6226 63.9385L30.6226 62.7637L30.7383 62.7637L31.364 63.9385L32.1541 63.9385L31.4561 62.7386ZM31.0151 62.2915L30.6235 62.2915L30.6235 61.651L30.9539 61.651C31.1565 61.651 31.3889 61.6751 31.3889 61.9427C31.3889 62.2294 31.2544 62.2915 31.0151 62.2915ZM150.197 0C148.726 0 147.574 1.04451 147.574 2.56616C147.574 4.08882 148.733 5.12631 150.197 5.12631C151.661 5.12631 152.82 4.0818 152.82 2.56616C152.821 1.04451 151.669 0 150.197 0ZM150.197 4.39455C149.148 4.39455 148.37 3.61769 148.37 2.56717C148.37 1.51764 149.142 0.734756 150.197 0.734756C151.239 0.734756 152.024 1.52968 152.024 2.56717C152.024 3.59865 151.233 4.39455 150.197 4.39455Z" fill="#FFFFFF" fill-opacity="1.000000" fill-rule="evenodd"/>
	<path id="Vector" d="M150.645 2.74658C151.013 2.72855 151.302 2.53609 151.302 2.01984C151.302 1.35425 150.871 1.18684 150.156 1.18684L149.125 1.18684L149.125 3.94547L149.812 3.94547L149.812 2.77165L149.928 2.77165L150.553 3.94547L151.344 3.94547L150.645 2.74658ZM150.203 2.29951L149.812 2.29951L149.812 1.65898L150.143 1.65898C150.344 1.65898 150.578 1.68404 150.578 1.95168C150.578 2.23737 150.442 2.29951 150.203 2.29951ZM142.385 8.63272L145.571 0.155365L109.393 0.155365L96.9709 15.414L102.706 0.155365L90.697 0.155365L72.0356 51.0165L83.8923 51.0165L91.8599 29.7474L92.4055 51.0165L128.786 50.9363L132.25 41.1528L118.417 41.1528L122.962 28.8232L134.362 28.8232L137.87 19.3444L126.47 19.3444L130.378 8.63272L142.385 8.63272ZM104.168 47.6254L103.408 21.1167L121.335 1.15977L104.168 47.6254Z" fill="#FFFFFF" fill-opacity="1.000000" fill-rule="evenodd"/>
</svg>
