<svg width="40.000000" height="40.000000" viewBox="0 0 40 40" fill="none" xmlns="http://www.w3.org/2000/svg" xmlns:xlink="http://www.w3.org/1999/xlink">
	<desc>
			Created with Pixso.
	</desc>
	<defs/>
	<circle id="Ellipse 41" cx="20.000000" cy="20.000000" r="20.000000" fill="#1EBC24" fill-opacity="1.000000"/>
	<path id="3" d="M25.5996 24.2598C25.5996 27.1191 23.0859 29.2402 19.7051 29.2402C16.3184 29.2402 13.8984 27.3828 13.7754 24.6348L15.9199 24.6348C16.0488 26.3223 17.6484 27.3652 19.6699 27.3652C21.9141 27.3652 23.5254 26.1113 23.5254 24.2598C23.5254 22.3379 22.0488 20.9902 19.4004 20.9902L18 20.9902L18 19.1152L19.4004 19.1152C21.4688 19.1152 22.9102 17.9199 22.9102 16.0801C22.9102 14.3164 21.6621 13.1504 19.7402 13.1504C17.9238 13.1504 16.2715 14.1699 16.1953 15.9102L14.1504 15.9102C14.25 13.1621 16.7578 11.3047 19.7754 11.3047C23.0039 11.3047 24.9551 13.5078 24.9551 15.9746C24.9551 17.9434 23.8535 19.3965 22.0898 19.9297L22.0898 20.0703C24.2871 20.4336 25.5996 22.0449 25.5996 24.2598Z" fill="#FFFFFF" fill-opacity="1.000000" fill-rule="evenodd"/>
</svg>
