<svg width="64.000000" height="64.000000" viewBox="0 0 64 64" fill="none" xmlns="http://www.w3.org/2000/svg" xmlns:xlink="http://www.w3.org/1999/xlink">
	<desc>
			Created with Pixso.
	</desc>
	<defs/>
	<path id="Vector" d="M52 64L12 64C8.81738 64 5.76514 62.7357 3.51465 60.4853C1.26416 58.2349 0 55.1826 0 52L0 12C0 8.81741 1.26416 5.76517 3.51465 3.51471C5.76514 1.26428 8.81738 0 12 0L52 0C55.1826 0 58.2349 1.26428 60.4854 3.51471C62.7358 5.76517 64 8.81741 64 12L64 52C64 55.1826 62.7358 58.2349 60.4854 60.4853C58.2349 62.7357 55.1826 64 52 64Z" fill="#FFE6E2" fill-opacity="1.000000" fill-rule="nonzero"/>
	<path id="Vector" d="M41 21L37.4795 14.6517C37.3975 14.5012 37.2876 14.3696 37.1562 14.2646C37.0249 14.1596 36.8745 14.0833 36.7148 14.0404C36.5552 13.9974 36.3887 13.9886 36.2256 14.0145C36.0625 14.0403 35.9062 14.1003 35.7651 14.1909L25 20.9843L41 21Z" fill="#FD907E" fill-opacity="1.000000" fill-rule="nonzero"/>
	<path id="Vector" d="M17.9092 22.4765C17.0083 22.4765 16.272 21.748 16.272 20.8568C16.272 19.9656 17.0083 19.2371 17.9092 19.2371L23.4243 19.2371L28.8901 16L17.9092 16C15.4863 16 13.4736 17.7484 13.0811 20.0481C13.0493 20.1768 13 20.308 13 20.4537L13 45.1432C13 47.8145 15.209 50 17.9092 50L45.7256 50C47.5249 50 48.9976 48.543 48.9976 46.7629L48.9976 43.5259L44.9082 43.5259C40.8511 43.5259 37.5449 40.2549 37.5449 36.2407C37.5449 32.2266 40.8511 28.9555 44.9082 28.9555L49 28.9555L49 25.7184C49 23.9384 47.5273 22.4814 45.728 22.4814L17.9092 22.4814L17.9092 22.4765ZM44.0908 19.2395C44.0908 17.6052 42.8638 16.2453 41.2612 16.034L44.0908 20.8592L44.0908 19.2395Z" fill="#FC573B" fill-opacity="1.000000" fill-rule="nonzero"/>
	<path id="Vector" d="M50.7998 31L44.7998 31C42.1528 31 40 33.2425 40 36C40 38.7575 42.1528 41 44.7998 41L50.7998 41C51.1182 41 51.4233 40.8683 51.6484 40.6339C51.8735 40.3995 52 40.0815 52 39.75L52 32.25C52 31.9185 51.8735 31.6005 51.6484 31.3661C51.4233 31.1317 51.1182 31 50.7998 31ZM44.7998 37.665C44.5898 37.6648 44.3813 37.6215 44.187 37.5375C43.9927 37.4535 43.8164 37.3304 43.6675 37.1754C43.519 37.0203 43.4009 36.8362 43.3208 36.6337C43.2402 36.4312 43.1992 36.2141 43.1992 35.995C43.1992 35.7758 43.2407 35.5589 43.3218 35.3565C43.4023 35.1541 43.5205 34.9702 43.6694 34.8154C43.8184 34.6606 43.9946 34.5378 44.1895 34.454C44.3838 34.3703 44.5918 34.3273 44.8022 34.3275C45.2271 34.3278 45.6348 34.504 45.9351 34.8171C46.2349 35.1303 46.4033 35.5549 46.4033 35.9975C46.4028 36.4401 46.2339 36.8644 45.9331 37.1771C45.6323 37.4898 45.2251 37.6653 44.7998 37.665Z" fill="#FD907E" fill-opacity="1.000000" fill-rule="nonzero"/>
</svg>
