<svg width="64.000000" height="64.000000" viewBox="0 0 64 64" fill="none" xmlns="http://www.w3.org/2000/svg" xmlns:xlink="http://www.w3.org/1999/xlink">
	<desc>
			Created with Pixso.
	</desc>
	<defs/>
	<path id="Vector" d="M12 0L52 0C55.1826 0 58.2349 1.26428 60.4854 3.51471C62.7358 5.76517 64 8.81741 64 12L64 52C64 55.1826 62.7358 58.2349 60.4854 60.4853C58.2349 62.7357 55.1826 64 52 64L12 64C8.81738 64 5.76514 62.7357 3.51465 60.4853C1.26416 58.2349 0 55.1826 0 52L0 12C0 8.81741 1.26416 5.76517 3.51465 3.51471C5.76514 1.26428 8.81738 0 12 0Z" fill="#FFF9DD" fill-opacity="1.000000" fill-rule="nonzero"/>
	<path id="Vector" d="M38 31.5C38 35.0898 35.3135 38 32 38C28.6865 38 26 35.0898 26 31.5C26 27.9102 28.6865 25 32 25C35.3135 25 38 27.9102 38 31.5Z" fill="#FFE777" fill-opacity="1.000000" fill-rule="evenodd"/>
	<path id="Vector" d="M49.25 16L14.75 16C11.5791 16 9 18.6068 9 21.8123L9 41.1877C9 44.3932 11.5791 47 14.75 47L49.25 47C52.4209 47 55 44.3932 55 41.1877L55 21.8123C55 18.6068 52.4209 16 49.25 16ZM24.9966 43.1232L12.8354 33.4631L12.8354 29.534L24.9966 19.8739L39.0063 19.8739L51.1675 29.534L51.1675 33.4631L39.0034 43.1232L24.9966 43.1232ZM51.1675 21.8123L51.1675 24.608L45.2075 19.8739L49.25 19.8739C50.3081 19.8739 51.1675 20.7429 51.1675 21.8123ZM14.75 19.8739L18.7925 19.8739L12.8325 24.608L12.8325 21.8123C12.8325 20.7429 13.6919 19.8739 14.75 19.8739ZM12.8325 41.1848L12.8325 38.389L18.7925 43.1232L14.75 43.1232C14.2412 43.1232 13.7534 42.9189 13.394 42.5555C13.0342 42.1919 12.8325 41.6989 12.8325 41.1848ZM49.25 43.1232L45.2075 43.1232L51.1675 38.389L51.1675 41.1848C51.1675 41.6989 50.9658 42.1919 50.606 42.5555C50.2461 42.9189 49.7588 43.1232 49.25 43.1232Z" fill="#FFD200" fill-opacity="1.000000" fill-rule="nonzero"/>
	<path id="Vector" d="M20.2773 32.8929L18.3887 32.8929C17.8877 32.8929 17.4072 32.6939 17.0532 32.3398C16.6992 31.9855 16.5 31.5051 16.5 31.0042C16.5 30.5032 16.6992 30.0228 17.0532 29.6686C17.4072 29.3144 17.8877 29.1154 18.3887 29.1154L20.2773 29.1154C20.7783 29.1154 21.2588 29.3144 21.6133 29.6686C21.9673 30.0228 22.1665 30.5032 22.1665 31.0042C22.1665 31.5051 21.9673 31.9855 21.6133 32.3398C21.2588 32.6939 20.7783 32.8929 20.2773 32.8929ZM44.8203 32.8929L42.9312 32.8929C42.4307 32.8929 41.9502 32.6939 41.5957 32.3398C41.2417 31.9855 41.0425 31.5051 41.0425 31.0042C41.0425 30.5032 41.2417 30.0228 41.5957 29.6686C41.9502 29.3144 42.4307 29.1154 42.9312 29.1154L44.8203 29.1154C45.3213 29.1154 45.8013 29.3144 46.1558 29.6686C46.5098 30.0228 46.709 30.5032 46.709 31.0042C46.709 31.5051 46.5098 31.9855 46.1558 32.3398C45.8013 32.6939 45.3213 32.8929 44.8203 32.8929Z" fill="#FFE777" fill-opacity="1.000000" fill-rule="nonzero"/>
</svg>
