<svg width="64.000000" height="64.000000" viewBox="0 0 64 64" fill="none" xmlns="http://www.w3.org/2000/svg" xmlns:xlink="http://www.w3.org/1999/xlink">
	<desc>
			Created with Pixso.
	</desc>
	<defs/>
	<path id="Vector" d="M52 64L12 64C8.81738 64 5.76514 62.7357 3.51465 60.4853C1.26416 58.2349 0 55.1826 0 52L0 12C0 8.81741 1.26416 5.76517 3.51465 3.51471C5.76514 1.26428 8.81738 0 12 0L52 0C55.1826 0 58.2349 1.26428 60.4854 3.51471C62.7358 5.76517 64 8.81741 64 12L64 52C64 55.1826 62.7358 58.2349 60.4854 60.4853C58.2349 62.7357 55.1826 64 52 64Z" fill="#F5E6FE" fill-opacity="1.000000" fill-rule="nonzero"/>
	<path id="Vector" d="M36 28.1914C36 26.3216 34.4785 24.7999 32.6094 24.7999L31.3931 24.7999C31.2617 24.7993 31.1313 24.7726 31.0107 24.7215C30.8896 24.6704 30.7798 24.5959 30.6875 24.5022C30.5957 24.4085 30.5229 24.2975 30.4736 24.1755C30.4248 24.0536 30.4004 23.9232 30.4019 23.7918C30.4019 23.2445 30.8481 22.8005 31.3931 22.8005L34.8003 22.8005C35.1187 22.8005 35.4238 22.674 35.6484 22.449C35.8735 22.2239 36 21.9186 36 21.6004C36 21.2821 35.8735 20.9768 35.6484 20.7517C35.4238 20.5267 35.1187 20.4002 34.8003 20.4002L33.1997 20.4002L33.1997 19.2001C33.1997 18.8818 33.0732 18.5766 32.8481 18.3515C32.6235 18.1264 32.3184 18 32 18C31.6816 18 31.3765 18.1264 31.1519 18.3515C30.9268 18.5766 30.8003 18.8818 30.8003 19.2001L30.8003 20.4602C29.9702 20.6149 29.2275 21.0731 28.7168 21.7456C28.2061 22.4182 27.9639 23.2568 28.0376 24.0981C28.1113 24.9395 28.4956 25.7232 29.1152 26.2967C29.7354 26.8701 30.5464 27.1922 31.3906 27.2001L32.6069 27.2001C33.1543 27.2001 33.5981 27.6466 33.5981 28.2082C33.5977 28.4709 33.4927 28.7227 33.3071 28.9085C33.1216 29.0942 32.8696 29.1989 32.6069 29.1995L29.1997 29.1995C28.8813 29.1995 28.5762 29.326 28.3516 29.551C28.1265 29.7761 28 30.0814 28 30.3996C28 30.7179 28.1265 31.0232 28.3516 31.2483C28.5762 31.4733 28.8813 31.5998 29.1997 31.5998L30.8003 31.5998L30.8003 32.7999C30.8003 33.1182 30.9268 33.4234 31.1519 33.6485C31.3765 33.8736 31.6816 34 32 34C32.3184 34 32.6235 33.8736 32.8481 33.6485C33.0732 33.4234 33.1997 33.1182 33.1997 32.7999L33.1997 31.5398C33.9854 31.3994 34.6963 30.987 35.2085 30.3748C35.7202 29.7625 36.0005 28.9896 36 28.1914Z" fill="#D9A4FC" fill-opacity="1.000000" fill-rule="nonzero"/>
	<path id="Vector" d="M19.5562 37C19.1436 37 18.7476 36.8328 18.4561 36.5352C18.1641 36.2376 18 35.8339 18 35.4131L18 18.7585C18 16.1342 20.0928 14 22.6665 14L41.3335 14C43.9072 14 46 16.1342 46 18.7585L46 35.4131C46 35.8339 45.8359 36.2376 45.5439 36.5352C45.2524 36.8328 44.8564 37 44.4438 37C44.0308 37 43.6353 36.8328 43.3433 36.5352C43.0513 36.2376 42.8872 35.8339 42.8872 35.4131L42.8872 18.7585C42.8872 18.55 42.8472 18.3437 42.769 18.1512C42.6904 17.9586 42.5762 17.7837 42.4316 17.6363C42.2871 17.489 42.1152 17.3721 41.9268 17.2923C41.7378 17.2126 41.5352 17.1715 41.3311 17.1715L22.6646 17.1715C22.2515 17.1715 21.8555 17.3387 21.564 17.6363C21.272 17.9339 21.1079 18.3376 21.1079 18.7585L21.1079 35.4131C21.1084 35.6212 21.0688 35.8275 20.9912 36.02C20.9136 36.2125 20.7993 36.3875 20.6553 36.5349C20.5112 36.6823 20.3398 36.7993 20.1514 36.8791C19.9629 36.9589 19.7603 37 19.5562 37Z" fill="#BE63F9" fill-opacity="1.000000" fill-rule="nonzero"/>
	<path id="Vector" d="M51 28.2427C51 26.5107 50.0522 24.9205 48.5254 24.0935L44.6685 22L44.6685 25.5892L47.0098 26.8604C47.2598 26.9959 47.4678 27.1957 47.6128 27.439C47.7578 27.6823 47.8345 27.9599 47.834 28.2427L47.834 30.211L32.9287 37.9565C32.6421 38.1017 32.3252 38.1776 32.0039 38.178C31.6821 38.1784 31.3652 38.1033 31.0786 37.9588L16.1685 30.211L16.1685 28.2427C16.1685 27.6662 16.4839 27.1369 16.9946 26.8604L19.3364 25.5892L19.3364 22L15.4795 24.0935C14.729 24.4991 14.103 25.0987 13.6665 25.829C13.23 26.5592 13 27.3931 13 28.2427L13 45.2743C13 47.8805 15.1304 50 17.75 50L46.25 50C48.8696 50 51 47.8805 51 45.2743L51 28.2427Z" fill="#BE63F9" fill-opacity="1.000000" fill-rule="nonzero"/>
</svg>
