<svg width="64.000000" height="64.000000" viewBox="0 0 64 64" fill="none" xmlns="http://www.w3.org/2000/svg" xmlns:xlink="http://www.w3.org/1999/xlink">
	<desc>
			Created with Pixso.
	</desc>
	<defs/>
	<path id="Vector" d="M52 64L12 64C8.81738 64 5.76514 62.7357 3.51465 60.4853C1.26416 58.2349 0 55.1826 0 52L0 12C0 8.81741 1.26416 5.76517 3.51465 3.51471C5.76514 1.26428 8.81738 0 12 0L52 0C55.1826 0 58.2349 1.26428 60.4854 3.51471C62.7358 5.76517 64 8.81741 64 12L64 52C64 55.1826 62.7358 58.2349 60.4854 60.4853C58.2349 62.7357 55.1826 64 52 64Z" fill="#E3F8FA" fill-opacity="1.000000" fill-rule="nonzero"/>
	<path id="Vector" d="M32.5 12C25.6074 12 20 17.6075 20 24.5C20 31.3925 25.6074 37 32.5 37C39.3926 37 45 31.3925 45 24.5C45 17.6075 39.3926 12 32.5 12ZM31.8677 23.25L33.1348 23.25C34.0186 23.2516 34.8696 23.5838 35.5205 24.1814C36.1719 24.7789 36.5757 25.5985 36.6528 26.4788C36.73 27.3591 36.4746 28.2363 35.9375 28.938C35.4004 29.6396 34.6201 30.1148 33.75 30.27L33.75 31.5825C33.75 31.914 33.6182 32.232 33.3838 32.4664C33.1494 32.7008 32.8315 32.8325 32.5 32.8325C32.1685 32.8325 31.8506 32.7008 31.6162 32.4664C31.3818 32.232 31.25 31.914 31.25 31.5825L31.25 30.3325L29.5825 30.3325C29.251 30.3325 28.9331 30.2008 28.6987 29.9664C28.4644 29.732 28.3325 29.414 28.3325 29.0825C28.3325 28.751 28.4644 28.433 28.6987 28.1986C28.9331 27.9642 29.251 27.8325 29.5825 27.8325L33.1323 27.8325C33.4087 27.8325 33.6733 27.7228 33.8687 27.5275C34.064 27.3322 34.1738 27.0674 34.1738 26.7913C34.1738 26.5151 34.064 26.2502 33.8687 26.055C33.6733 25.8597 33.4087 25.75 33.1323 25.75L31.8652 25.75C30.9814 25.7484 30.1304 25.4162 29.4795 24.8186C28.8281 24.2211 28.4243 23.4015 28.3472 22.5212C28.27 21.6409 28.5254 20.7637 29.0625 20.062C29.5996 19.3604 30.3799 18.8852 31.25 18.73L31.25 17.4175C31.25 17.086 31.3818 16.768 31.6162 16.5336C31.8506 16.2992 32.1685 16.1675 32.5 16.1675C32.8315 16.1675 33.1494 16.2992 33.3838 16.5336C33.6182 16.768 33.75 17.086 33.75 17.4175L33.75 18.6675L35.4175 18.6675C35.749 18.6675 36.0669 18.7992 36.3013 19.0336C36.5356 19.268 36.6675 19.586 36.6675 19.9175C36.6675 20.249 36.5356 20.567 36.3013 20.8014C36.0669 21.0358 35.749 21.1675 35.4175 21.1675L31.8677 21.1675C31.5938 21.1682 31.3315 21.2772 31.1382 21.4706C30.9448 21.6641 30.8354 21.9264 30.835 22.2C30.8335 22.3369 30.8589 22.4727 30.9097 22.5997C30.9609 22.7267 31.0366 22.8423 31.1328 22.9399C31.2285 23.0375 31.3428 23.1152 31.4692 23.1684C31.5952 23.2216 31.7305 23.2494 31.8677 23.25Z" fill="#8CE1EB" fill-opacity="1.000000" fill-rule="nonzero"/>
	<path id="Vector" d="M52 37.3239L52 37.2303C52 37.186 51.9775 37.1491 51.9751 37.1073C51.855 34.6383 49.6426 32.5065 45.6548 31C43.2974 36.1177 38.0698 39.692 32 39.692C25.9302 39.692 20.7051 36.1177 18.3452 31C14.2427 32.5483 12 34.7564 12 37.3165L12 43.7339C12 43.8201 12.0376 43.8964 12.0498 43.9801C12.5776 49.243 22.3325 52 32 52C41.5898 52 51.2651 49.2873 51.9351 44.1081C51.9575 44.0022 52 43.9062 52 43.7954L52 43.5345L52 37.3239ZM48.6675 43.5444C48.6602 45.6564 42.1675 48.7187 32 48.7187C21.8252 48.7187 15.3325 45.6515 15.3325 43.5394L15.3325 42.1905C19.1074 44.5536 25.5698 45.777 32 45.777C38.4277 45.777 44.8926 44.5536 48.6675 42.1929L48.6675 43.5444Z" fill="#26C6DA" fill-opacity="1.000000" fill-rule="nonzero"/>
</svg>
