<svg width="415.000000" height="208.000000" viewBox="0 0 415 208" fill="none" xmlns="http://www.w3.org/2000/svg" xmlns:xlink="http://www.w3.org/1999/xlink">
	<desc>
			Created with Pixso.
	</desc>
	<defs>
		<clipPath id="clip86_406">
			<rect id="icon" width="64.000000" height="64.000000" transform="translate(24.000000 24.000000)" fill="white" fill-opacity="0"/>
		</clipPath>
		<clipPath id="clip86_404">
			<rect id="Frame 513775" rx="6.000000" width="414.000000" height="207.000000" transform="translate(0.500000 0.500000)" fill="white" fill-opacity="0"/>
		</clipPath>
	</defs>
	<g clip-path="url(#clip86_404)">
		<rect id="icon" width="64.000000" height="64.000000" transform="translate(24.000000 24.000000)" fill="#FFFFFF" fill-opacity="0"/>
		<g clip-path="url(#clip86_406)">
			<path id="Vector" d="M76 88L36 88C32.8174 88 29.7651 86.7357 27.5146 84.4853C25.2642 82.2349 24 79.1826 24 76L24 36C24 32.8174 25.2642 29.7652 27.5146 27.5147C29.7651 25.2643 32.8174 24 36 24L76 24C79.1826 24 82.2349 25.2643 84.4854 27.5147C86.7358 29.7652 88 32.8174 88 36L88 76C88 79.1826 86.7358 82.2349 84.4854 84.4853C82.2349 86.7357 79.1826 88 76 88Z" fill="#FFE6E2" fill-opacity="1.000000" fill-rule="nonzero"/>
			<path id="Vector" d="M65 45L61.4795 38.6517C61.3975 38.5012 61.2876 38.3696 61.1562 38.2646C61.0249 38.1596 60.8745 38.0833 60.7148 38.0404C60.5552 37.9974 60.3887 37.9886 60.2256 38.0145C60.0625 38.0403 59.9062 38.1003 59.7651 38.1909L49 44.9843L65 45Z" fill="#FD907E" fill-opacity="1.000000" fill-rule="nonzero"/>
			<path id="Vector" d="M41.9092 46.4765C41.0083 46.4765 40.272 45.748 40.272 44.8568C40.272 43.9656 41.0083 43.2371 41.9092 43.2371L47.4243 43.2371L52.8901 40L41.9092 40C39.4863 40 37.4736 41.7484 37.0811 44.0481C37.0493 44.1768 37 44.308 37 44.4537L37 69.1432C37 71.8145 39.209 74 41.9092 74L69.7256 74C71.5249 74 72.9976 72.543 72.9976 70.7629L72.9976 67.5259L68.9082 67.5259C64.8511 67.5259 61.5449 64.2549 61.5449 60.2407C61.5449 56.2266 64.8511 52.9555 68.9082 52.9555L73 52.9555L73 49.7184C73 47.9384 71.5273 46.4814 69.728 46.4814L41.9092 46.4814L41.9092 46.4765ZM68.0908 43.2395C68.0908 41.6052 66.8638 40.2453 65.2612 40.034L68.0908 44.8592L68.0908 43.2395Z" fill="#FC573B" fill-opacity="1.000000" fill-rule="nonzero"/>
			<path id="Vector" d="M74.7998 55L68.7998 55C66.1528 55 64 57.2425 64 60C64 62.7575 66.1528 65 68.7998 65L74.7998 65C75.1182 65 75.4233 64.8683 75.6484 64.6339C75.8735 64.3995 76 64.0815 76 63.75L76 56.25C76 55.9185 75.8735 55.6005 75.6484 55.3661C75.4233 55.1317 75.1182 55 74.7998 55ZM68.7998 61.665C68.5898 61.6648 68.3813 61.6215 68.187 61.5375C67.9927 61.4535 67.8164 61.3304 67.6675 61.1754C67.519 61.0203 67.4009 60.8362 67.3208 60.6337C67.2402 60.4312 67.1992 60.2141 67.1992 59.995C67.1992 59.7758 67.2407 59.5589 67.3218 59.3565C67.4023 59.1541 67.5205 58.9702 67.6694 58.8154C67.8184 58.6606 67.9946 58.5378 68.1895 58.454C68.3838 58.3703 68.5918 58.3273 68.8022 58.3275C69.2271 58.3278 69.6348 58.504 69.9351 58.8171C70.2349 59.1303 70.4033 59.5549 70.4033 59.9975C70.4028 60.4401 70.2339 60.8644 69.9331 61.1771C69.6323 61.4898 69.2251 61.6653 68.7998 61.665Z" fill="#FD907E" fill-opacity="1.000000" fill-rule="nonzero"/>
		</g>
		<path id="Оплата онлайн" d="M181.543 108.018C182.544 108.018 182.94 107.402 182.949 106.704L184.873 106.704C184.873 108.364 183.584 109.487 181.543 109.487C179.512 109.487 178.223 108.364 178.233 106.704L180.142 106.704C180.142 107.388 180.527 108.018 181.543 108.018ZM31.749 110.254C35.5625 110.254 38.4336 113.027 38.4336 117.729C38.4336 122.427 35.5625 125.2 31.749 125.2C27.9258 125.2 25.0645 122.422 25.0645 117.729C25.0645 113.027 27.9258 110.254 31.749 110.254ZM121.736 110.254C125.549 110.254 128.42 113.027 128.42 117.729C128.42 122.427 125.549 125.2 121.736 125.2C117.912 125.2 115.051 122.422 115.051 117.729C115.051 113.027 117.912 110.254 121.736 110.254ZM41.411 110.454L52.9979 110.454L52.9979 125L50.3856 125L50.3856 112.642L44.0233 112.642L44.0233 125L41.411 125L41.411 110.454ZM56.1125 125L55.3996 125L55.3996 122.812L55.8147 122.793C57.4846 122.7 58.0364 121.235 58.1926 117.109L58.4319 110.454L67.9631 110.454L67.9631 125L65.385 125L65.385 112.622L60.8928 112.622L60.6633 117.925C60.4582 122.705 59.5159 125 56.1125 125ZM74.102 121.411L72.9008 125L70.0883 125L75.2104 110.454L78.4623 110.454L83.5893 125L80.7768 125L79.5707 121.411L74.102 121.411ZM87.806 112.661L83.309 112.661L83.309 110.454L94.9154 110.454L94.9154 112.661L90.4184 112.661L90.4184 125L87.806 125L87.806 112.661ZM98.6497 121.411L97.4485 125L94.636 125L99.7581 110.454L103.01 110.454L108.137 125L105.324 125L104.118 121.411L98.6497 121.411ZM133.751 125L131.119 125L131.119 110.454L133.751 110.454L133.751 116.611L140.494 116.611L140.494 110.454L143.136 110.454L143.136 125L140.494 125L140.494 118.823L133.751 118.823L133.751 125ZM145.964 125L145.251 125L145.251 122.812L145.666 122.793C147.336 122.7 147.888 121.235 148.044 117.109L148.284 110.454L157.815 110.454L157.815 125L155.237 125L155.237 112.622L150.745 112.622L150.515 117.925C150.31 122.705 149.368 125 145.964 125ZM163.954 121.411L162.752 125L159.94 125L165.062 110.454L168.314 110.454L173.441 125L170.628 125L169.422 121.411L163.954 121.411ZM175.562 125L175.562 110.454L178.174 110.454L178.174 120.371L178.311 120.371L185.147 110.454L187.515 110.454L187.515 125L184.878 125L184.878 115.093L184.756 115.093L177.896 125L175.562 125ZM193.209 125L190.577 125L190.577 110.454L193.209 110.454L193.209 116.611L199.952 116.611L199.952 110.454L202.594 110.454L202.594 125L199.952 125L199.952 118.823L193.209 118.823L193.209 125ZM31.749 122.832C34.1221 122.832 35.7822 121.035 35.7822 117.729C35.7822 114.419 34.1221 112.622 31.749 112.622C29.3857 112.622 27.7158 114.419 27.7158 117.729C27.7158 121.035 29.3857 122.832 31.749 122.832ZM121.736 122.832C124.109 122.832 125.769 121.035 125.769 117.729C125.769 114.419 124.109 112.622 121.736 112.622C119.372 112.622 117.702 114.419 117.702 117.729C117.702 121.035 119.372 122.832 121.736 122.832ZM76.7826 113.438L74.8148 119.297L78.8627 119.297L76.8949 113.438L76.7826 113.438ZM101.33 113.438L99.3626 119.297L103.41 119.297L101.443 113.438L101.33 113.438ZM166.634 113.438L164.667 119.297L168.714 119.297L166.747 113.438L166.634 113.438Z" fill="#2B2929" fill-opacity="1.000000" fill-rule="evenodd"/>
		<path id="Отплата банковскими картами VISA, MasterCard, платежной системой «Мир»" d="M100.462 145.352C101.352 145.359 101.989 145.359 102.415 145L103.099 145.816C102.302 146.59 101.145 146.547 99.5282 146.613C97.7118 146.684 96.872 147.887 96.6884 150.137L96.8017 150.137C97.3954 149.047 98.5126 148.547 99.7118 148.547C101.751 148.547 103.325 150 103.325 152.75C103.325 155.488 101.774 157.184 99.4384 157.184C97.0985 157.184 95.5282 155.5 95.5282 152.273L95.5282 151.34C95.5282 147.453 96.8485 145.434 99.5087 145.363C99.8524 145.352 100.173 145.352 100.462 145.352ZM30.0898 145.203C33.0664 145.203 35.2266 147.5 35.2266 151.184C35.2266 154.863 33.0664 157.16 30.0898 157.16C27.1133 157.16 24.9531 154.863 24.9531 151.184C24.9531 147.5 27.1133 145.203 30.0898 145.203ZM299.937 148.273L298.574 148.273C298.437 147.125 297.366 146.453 295.96 146.453C294.413 146.453 293.39 147.273 293.39 148.387C293.39 149.637 294.777 150.09 295.64 150.316L296.824 150.637C298.027 150.953 300.097 151.66 300.097 153.84C300.097 155.727 298.574 157.203 295.89 157.203C293.39 157.203 291.847 155.91 291.71 154L293.163 154C293.277 155.316 294.503 155.934 295.89 155.934C297.503 155.934 298.734 155.09 298.734 153.816C298.734 152.66 297.64 152.227 296.413 151.887L294.984 151.477C293.163 150.953 292.027 150.023 292.027 148.453C292.027 146.5 293.777 145.203 296.003 145.203C298.253 145.203 299.874 146.516 299.937 148.273ZM275.845 145.363L277.321 145.363L280.774 155.16L280.911 155.16L284.368 145.363L285.845 145.363L281.571 157L280.118 157L275.845 145.363ZM287.823 145.363L289.229 145.363L289.229 157L287.823 157L287.823 145.363ZM304.223 153.703L303.051 157L301.575 157L305.848 145.363L307.301 145.363L311.575 157L310.098 157L308.926 153.703L304.223 153.703ZM30.0898 155.84C32.2031 155.84 33.8633 154.203 33.8633 151.184C33.8633 148.16 32.2031 146.523 30.0898 146.523C27.9766 146.523 26.3164 148.16 26.3164 151.184C26.3164 154.203 27.9766 155.84 30.0898 155.84ZM306.528 147.203L304.665 152.453L308.481 152.453L306.618 147.203L306.528 147.203ZM70.504 155.816C70.2306 156.387 69.4337 157.203 67.9142 157.203C66.254 157.203 64.9337 156.227 64.9337 154.523C64.9337 152.523 66.7032 152.164 68.3204 151.953C69.9142 151.75 70.5704 151.809 70.5704 151.16L70.5704 151.113C70.5704 149.996 69.9649 149.34 68.7306 149.34C67.4532 149.34 66.754 150.023 66.4571 150.66L65.1837 150.203C65.8673 148.613 67.3673 148.16 68.6837 148.16C69.8009 148.16 71.9142 148.477 71.9142 151.25L71.9142 157L70.5704 157L70.5704 155.816L70.504 155.816ZM87.2558 155.816C86.9824 156.387 86.1855 157.203 84.666 157.203C83.0058 157.203 81.6855 156.227 81.6855 154.523C81.6855 152.523 83.455 152.164 85.0722 151.953C86.666 151.75 87.3222 151.809 87.3222 151.16L87.3222 151.113C87.3222 149.996 86.7168 149.34 85.4824 149.34C84.205 149.34 83.5058 150.023 83.2089 150.66L81.9355 150.203C82.6191 148.613 84.1191 148.16 85.4355 148.16C86.5527 148.16 88.666 148.477 88.666 151.25L88.666 157L87.3222 157L87.3222 155.816L87.2558 155.816ZM110.69 155.816C110.417 156.387 109.62 157.203 108.101 157.203C106.44 157.203 105.12 156.227 105.12 154.523C105.12 152.523 106.89 152.164 108.507 151.953C110.101 151.75 110.757 151.809 110.757 151.16L110.757 151.113C110.757 149.996 110.151 149.34 108.917 149.34C107.64 149.34 106.94 150.023 106.643 150.66L105.37 150.203C106.054 148.613 107.554 148.16 108.87 148.16C109.987 148.16 112.101 148.477 112.101 151.25L112.101 157L110.757 157L110.757 155.816L110.69 155.816ZM140.078 152.684C140.078 155.387 138.489 157.184 136.125 157.184C133.762 157.184 132.168 155.387 132.168 152.684C132.168 149.953 133.762 148.16 136.125 148.16C138.489 148.16 140.078 149.953 140.078 152.684ZM158.398 154.453C158.171 156 156.898 157.184 154.968 157.184C152.511 157.184 151.011 155.297 151.011 152.684C151.011 150.023 152.581 148.16 154.945 148.16C156.784 148.16 158.171 149.25 158.398 150.887L157.058 150.887C156.855 150.09 156.148 149.363 154.968 149.363C153.398 149.363 152.355 150.66 152.355 152.637C152.355 154.66 153.378 155.977 154.968 155.977C156.011 155.977 156.808 155.41 157.058 154.453L158.398 154.453ZM219.406 155.816C219.132 156.387 218.336 157.203 216.816 157.203C215.156 157.203 213.836 156.227 213.836 154.523C213.836 152.523 215.605 152.164 217.222 151.953C218.816 151.75 219.472 151.809 219.472 151.16L219.472 151.113C219.472 149.996 218.867 149.34 217.632 149.34C216.355 149.34 215.656 150.023 215.359 150.66L214.086 150.203C214.769 148.613 216.269 148.16 217.586 148.16C218.703 148.16 220.816 148.477 220.816 151.25L220.816 157L219.472 157L219.472 155.816L219.406 155.816ZM224.768 160.273L223.428 160.273L223.428 148.273L224.725 148.273L224.725 149.66L224.885 149.66C225.178 149.203 225.702 148.16 227.405 148.16C229.612 148.16 231.135 149.91 231.135 152.66C231.135 155.434 229.612 157.184 227.428 157.184C225.749 157.184 225.178 156.137 224.885 155.66L224.768 155.66L224.768 160.273ZM246.113 155.816C245.84 156.387 245.043 157.203 243.523 157.203C241.863 157.203 240.543 156.227 240.543 154.523C240.543 152.523 242.312 152.164 243.93 151.953C245.523 151.75 246.18 151.809 246.18 151.16L246.18 151.113C246.18 149.996 245.574 149.34 244.34 149.34C243.062 149.34 242.363 150.023 242.066 150.66L240.793 150.203C241.476 148.613 242.976 148.16 244.293 148.16C245.41 148.16 247.523 148.477 247.523 151.25L247.523 157L246.18 157L246.18 155.816L246.113 155.816ZM39.9551 149.523L37.0684 149.523L37.0684 148.273L44.1582 148.273L44.1582 149.523L41.2949 149.523L41.2949 157L39.9551 157L39.9551 149.523ZM47.6137 157L46.2738 157L46.2738 148.273L53.1371 148.273L53.1371 157L51.7973 157L51.7973 149.523L47.6137 149.523L47.6137 157ZM55.4356 157L54.9786 157L54.9786 155.75L55.2989 155.75C56.3419 155.75 56.6387 155.066 56.752 152.137L56.9122 148.273L62.7286 148.273L62.7286 157L61.3887 157L61.3887 149.523L58.1856 149.523L58.0489 152.637C57.9239 155.5 57.3653 157 55.4356 157ZM76.2315 149.523L73.3447 149.523L73.3447 148.273L80.4346 148.273L80.4346 149.523L77.5713 149.523L77.5713 157L76.2315 157L76.2315 149.523ZM114.713 148.273L116.053 148.273L116.053 152.023L120.236 152.023L120.236 148.273L121.576 148.273L121.576 157L120.236 157L120.236 153.273L116.053 153.273L116.053 157L114.713 157L114.713 148.273ZM125.531 157L124.191 157L124.191 148.273L125.531 148.273L125.531 152.066L126.418 152.066L129.554 148.273L131.281 148.273L127.761 152.477L131.328 157L129.601 157L126.738 153.316L125.531 153.316L125.531 157ZM146.397 157L142.284 157L142.284 148.273L145.854 148.273C147.729 148.273 148.921 149.199 148.921 150.59C148.921 151.652 148.221 152.203 147.241 152.41C148.198 152.551 149.241 153.289 149.241 154.66C149.241 156 148.171 157 146.397 157ZM161.853 157L160.513 157L160.513 148.273L161.853 148.273L161.853 152.066L162.74 152.066L165.876 148.273L167.603 148.273L164.083 152.477L167.65 157L165.923 157L163.06 153.316L161.853 153.316L161.853 157ZM170.604 148.273L170.604 155.023L174.811 148.273L176.354 148.273L176.354 157L175.014 157L175.014 150.25L170.834 157L169.264 157L169.264 148.273L170.604 148.273ZM180.743 148.273L183.743 155.184L186.79 148.273L188.516 148.273L188.516 157L187.176 157L187.176 150.324L184.29 157L183.196 157L180.309 150.199L180.309 157L178.969 157L178.969 148.273L180.743 148.273ZM192.469 148.273L192.469 155.023L196.676 148.273L198.219 148.273L198.219 157L196.879 157L196.879 150.25L192.7 157L191.129 157L191.129 148.273L192.469 148.273ZM206.835 157L205.495 157L205.495 148.273L206.835 148.273L206.835 152.066L207.721 152.066L210.858 148.273L212.585 148.273L209.065 152.477L212.632 157L210.905 157L208.042 153.316L206.835 153.316L206.835 157ZM235.089 149.523L232.202 149.523L232.202 148.273L239.292 148.273L239.292 149.523L236.429 149.523L236.429 157L235.089 157L235.089 149.523ZM251.909 148.273L254.909 155.184L257.956 148.273L259.683 148.273L259.683 157L258.343 157L258.343 150.324L255.456 157L254.362 157L251.476 150.199L251.476 157L250.136 157L250.136 148.273L251.909 148.273ZM263.636 148.273L263.636 155.023L267.843 148.273L269.386 148.273L269.386 157L268.046 157L268.046 150.25L263.866 157L262.296 157L262.296 148.273L263.636 148.273ZM133.512 152.684C133.512 154.434 134.328 155.977 136.125 155.977C137.918 155.977 138.739 154.434 138.739 152.684C138.739 150.934 137.918 149.363 136.125 149.363C134.328 149.363 133.512 150.934 133.512 152.684ZM227.249 149.363C225.612 149.363 224.749 150.684 224.749 152.637C224.749 154.613 225.635 155.977 227.249 155.977C228.928 155.977 229.792 154.5 229.792 152.637C229.792 150.797 228.952 149.363 227.249 149.363ZM143.557 149.5L143.557 151.934L145.854 151.934C146.928 151.934 147.581 151.461 147.581 150.684C147.581 149.949 146.928 149.5 145.854 149.5L143.557 149.5ZM96.872 152.75C96.872 154.703 97.8485 155.977 99.4384 155.977C101.02 155.977 101.985 154.715 101.985 152.75C101.985 150.84 101.013 149.75 99.4149 149.75C97.8603 149.75 96.8993 150.84 96.872 152.75ZM66.2774 154.59C66.2774 155.523 67.0509 156 68.1173 156C69.7071 156 70.5704 154.934 70.5704 153.84L70.5704 152.613C70.3438 152.887 68.8204 153.047 68.254 153.113C67.2071 153.25 66.2774 153.566 66.2774 154.59ZM83.0293 154.59C83.0293 155.523 83.8027 156 84.8691 156C86.4589 156 87.3222 154.934 87.3222 153.84L87.3222 152.613C87.0957 152.887 85.5722 153.047 85.0058 153.113C83.9589 153.25 83.0293 153.566 83.0293 154.59ZM106.464 154.59C106.464 155.523 107.237 156 108.304 156C109.893 156 110.757 154.934 110.757 153.84L110.757 152.613C110.53 152.887 109.007 153.047 108.44 153.113C107.393 153.25 106.464 153.566 106.464 154.59ZM215.179 154.59C215.179 155.523 215.953 156 217.019 156C218.609 156 219.472 154.934 219.472 153.84L219.472 152.613C219.246 152.887 217.722 153.047 217.156 153.113C216.109 153.25 215.179 153.566 215.179 154.59ZM241.887 154.59C241.887 155.523 242.66 156 243.726 156C245.316 156 246.18 154.934 246.18 153.84L246.18 152.613C245.953 152.887 244.43 153.047 243.863 153.113C242.816 153.25 241.887 153.566 241.887 154.59ZM143.557 153.09L143.557 155.773L146.397 155.773C147.319 155.773 147.874 155.309 147.874 154.547C147.874 153.641 147.319 153.09 146.397 153.09L143.557 153.09ZM313.916 155.41L315.369 155.41L315.28 156.023C315.084 157.316 314.506 159.066 314.233 159.84L313.209 159.84C313.358 159.121 313.682 157.586 313.846 156.047L313.916 155.41ZM83.6635 167.203C86.0072 167.203 87.9135 168.613 88.3471 171L86.9369 171C86.5971 169.387 85.2104 168.523 83.6635 168.523C81.5502 168.523 79.89 170.16 79.89 173.184C79.89 176.203 81.5502 177.84 83.6635 177.84C85.2104 177.84 86.5971 176.977 86.9369 175.363L88.3471 175.363C87.9135 177.75 86.0072 179.16 83.6635 179.16C80.6869 179.16 78.5268 176.863 78.5268 173.184C78.5268 169.5 80.6869 167.203 83.6635 167.203ZM25.4102 179L25.4102 167.363L27.0898 167.363L31.0469 177.023L31.1836 177.023L35.1367 167.363L36.8164 167.363L36.8164 179L35.5 179L35.5 170.16L35.3867 170.16L31.75 179L30.4766 179L26.8398 170.16L26.7266 170.16L26.7266 179L25.4102 179ZM111.461 177.66C111.168 178.137 110.598 179.184 108.918 179.184C106.734 179.184 105.211 177.434 105.211 174.66C105.211 171.91 106.734 170.16 108.941 170.16C110.645 170.16 111.168 171.203 111.461 171.66L111.578 171.66L111.578 167.363L112.918 167.363L112.918 179L111.621 179L111.621 177.66L111.461 177.66ZM206.201 168.477C206.994 168.477 207.314 167.953 207.314 167.363L208.564 167.363C208.564 168.59 207.654 169.453 206.201 169.453C204.767 169.453 203.861 168.59 203.861 167.363L205.111 167.363C205.111 167.953 205.404 168.477 206.201 168.477ZM287.868 168.477C288.661 168.477 288.981 167.953 288.981 167.363L290.231 167.363C290.231 168.59 289.321 169.453 287.868 169.453C286.434 169.453 285.528 168.59 285.528 167.363L286.778 167.363C286.778 167.953 287.071 168.477 287.868 168.477ZM307.667 179L307.667 167.363L309.346 167.363L313.303 177.023L313.44 177.023L317.393 167.363L319.073 167.363L319.073 179L317.756 179L317.756 170.16L317.643 170.16L314.006 179L312.733 179L309.096 170.16L308.983 170.16L308.983 179L307.667 179ZM59.2538 170.273L61.1171 170.273L61.1171 171.41L59.2538 171.41L59.2538 176.5C59.2538 177.637 59.8202 177.816 60.41 177.816C60.7069 177.816 60.8905 177.773 61.0038 177.75L61.2772 178.953C61.0936 179.023 60.7772 179.113 60.2772 179.113C59.1405 179.113 57.91 178.387 57.91 176.863L57.91 171.41L56.5936 171.41L56.5936 170.273L57.91 170.273L57.91 168.184L59.2538 168.184L59.2538 170.273ZM74.0255 179L72.6857 179L72.6857 170.273L73.9825 170.273L73.9825 171.59L74.0724 171.59C74.3927 170.727 75.2989 170.137 76.3458 170.137C76.545 170.137 76.8966 170.148 77.0489 170.16L77.0489 171.523C76.9591 171.5 76.588 171.434 76.2325 171.434C74.9591 171.434 74.0255 172.297 74.0255 173.477L74.0255 179ZM101.119 179L99.7793 179L99.7793 170.273L101.076 170.273L101.076 171.59L101.166 171.59C101.486 170.727 102.393 170.137 103.439 170.137C103.639 170.137 103.99 170.148 104.143 170.16L104.143 171.523C104.053 171.5 103.682 171.434 103.326 171.434C102.053 171.434 101.119 172.297 101.119 173.477L101.119 179ZM44.774 177.816C44.5006 178.387 43.7037 179.203 42.1841 179.203C40.524 179.203 39.2037 178.227 39.2037 176.523C39.2037 174.523 40.9732 174.164 42.5904 173.953C44.1841 173.75 44.8404 173.809 44.8404 173.16L44.8404 173.113C44.8404 171.996 44.2349 171.34 43.0006 171.34C41.7232 171.34 41.024 172.023 40.7271 172.66L39.4537 172.203C40.1373 170.613 41.6373 170.16 42.9537 170.16C44.0709 170.16 46.1841 170.477 46.1841 173.25L46.1841 179L44.8404 179L44.8404 177.816L44.774 177.816ZM51.8864 170.16C53.6169 170.16 54.5583 170.988 54.9802 172.227L53.7731 172.566C53.5427 171.965 53.0583 171.316 51.8864 171.316C50.82 171.316 50.0231 171.863 50.0231 172.613C50.0231 173.285 50.4919 173.629 51.5231 173.887L52.82 174.203C54.3786 174.586 55.1364 175.352 55.1364 176.566C55.1364 178.074 53.7575 179.184 51.7302 179.184C49.945 179.184 48.7223 178.391 48.4098 176.91L49.6833 176.59C49.9216 177.527 50.6091 178 51.7067 178C52.9567 178 53.7536 177.387 53.7536 176.637C53.7536 176.035 53.3356 175.613 52.4567 175.41L51.0036 175.066C49.3981 174.691 48.6833 173.887 48.6833 172.684C48.6833 171.203 50.0466 170.16 51.8864 170.16ZM70.3442 176.977C69.934 178.297 68.6411 179.184 66.8676 179.184C64.3442 179.184 62.7973 177.387 62.7973 174.703C62.7973 172.023 64.3676 170.16 66.7309 170.16C68.5473 170.16 70.4809 171.273 70.4809 174.523L70.4809 175.09L64.145 175.09C64.2075 176.961 65.2934 177.977 66.8676 177.977C67.9184 177.977 68.7075 177.523 69.0473 176.613L70.3442 176.977ZM95.7567 177.816C95.4833 178.387 94.6864 179.203 93.1669 179.203C91.5067 179.203 90.1864 178.227 90.1864 176.523C90.1864 174.523 91.9559 174.164 93.5731 173.953C95.1669 173.75 95.8231 173.809 95.8231 173.16L95.8231 173.113C95.8231 171.996 95.2177 171.34 93.9833 171.34C92.7059 171.34 92.0067 172.023 91.7098 172.66L90.4364 172.203C91.12 170.613 92.62 170.16 93.9364 170.16C95.0536 170.16 97.1669 170.477 97.1669 173.25L97.1669 179L95.8231 179L95.8231 177.816L95.7567 177.816ZM149.24 177.816C148.967 178.387 148.17 179.203 146.651 179.203C144.99 179.203 143.67 178.227 143.67 176.523C143.67 174.523 145.44 174.164 147.057 173.953C148.651 173.75 149.307 173.809 149.307 173.16L149.307 173.113C149.307 171.996 148.701 171.34 147.467 171.34C146.19 171.34 145.49 172.023 145.193 172.66L143.92 172.203C144.604 170.613 146.104 170.16 147.42 170.16C148.537 170.16 150.651 170.477 150.651 173.25L150.651 179L149.307 179L149.307 177.816L149.24 177.816ZM167.969 176.977C167.559 178.297 166.266 179.184 164.492 179.184C161.969 179.184 160.422 177.387 160.422 174.703C160.422 172.023 161.992 170.16 164.355 170.16C166.172 170.16 168.105 171.273 168.105 174.523L168.105 175.09L161.77 175.09C161.832 176.961 162.918 177.977 164.492 177.977C165.543 177.977 166.332 177.523 166.672 176.613L167.969 176.977ZM200.448 174.684C200.448 177.387 198.859 179.184 196.495 179.184C194.132 179.184 192.538 177.387 192.538 174.684C192.538 171.953 194.132 170.16 196.495 170.16C198.859 170.16 200.448 171.953 200.448 174.684ZM223.996 176.453C223.769 178 222.496 179.184 220.566 179.184C218.109 179.184 216.609 177.297 216.609 174.684C216.609 172.023 218.18 170.16 220.543 170.16C222.383 170.16 223.769 171.25 223.996 172.887L222.656 172.887C222.453 172.09 221.746 171.363 220.566 171.363C218.996 171.363 217.953 172.66 217.953 174.637C217.953 176.66 218.976 177.977 220.566 177.977C221.609 177.977 222.406 177.41 222.656 176.453L223.996 176.453ZM242.793 176.453C242.567 178 241.293 179.184 239.364 179.184C236.906 179.184 235.406 177.297 235.406 174.684C235.406 172.023 236.977 170.16 239.34 170.16C241.18 170.16 242.567 171.25 242.793 172.887L241.453 172.887C241.25 172.09 240.543 171.363 239.364 171.363C237.793 171.363 236.75 172.66 236.75 174.637C236.75 176.66 237.774 177.977 239.364 177.977C240.406 177.977 241.203 177.41 241.453 176.453L242.793 176.453ZM260.114 176.977C259.704 178.297 258.411 179.184 256.638 179.184C254.114 179.184 252.567 177.387 252.567 174.703C252.567 172.023 254.138 170.16 256.501 170.16C258.317 170.16 260.251 171.273 260.251 174.523L260.251 175.09L253.915 175.09C253.978 176.961 255.063 177.977 256.638 177.977C257.688 177.977 258.478 177.523 258.817 176.613L260.114 176.977ZM282.116 174.684C282.116 177.387 280.526 179.184 278.163 179.184C275.799 179.184 274.206 177.387 274.206 174.684C274.206 171.953 275.799 170.16 278.163 170.16C280.526 170.16 282.116 171.953 282.116 174.684ZM332.916 182.273L331.576 182.273L331.576 170.273L332.873 170.273L332.873 171.66L333.033 171.66C333.326 171.203 333.849 170.16 335.552 170.16C337.759 170.16 339.283 171.91 339.283 174.66C339.283 177.434 337.759 179.184 335.576 179.184C333.896 179.184 333.326 178.137 333.033 177.66L332.916 177.66L332.916 182.273ZM126.35 179L125.01 179L125.01 170.273L131.873 170.273L131.873 179L130.534 179L130.534 171.523L126.35 171.523L126.35 179ZM134.172 179L133.715 179L133.715 177.75L134.035 177.75C135.078 177.75 135.375 177.066 135.488 174.137L135.649 170.273L141.465 170.273L141.465 179L140.125 179L140.125 171.523L136.922 171.523L136.785 174.637C136.66 177.5 136.102 179 134.172 179ZM154.968 171.523L152.081 171.523L152.081 170.273L159.171 170.273L159.171 171.523L156.308 171.523L156.308 179L154.968 179L154.968 171.523ZM171.153 179L169.54 179L173.083 174.566L169.583 170.273L171.173 170.273L174.083 174L174.81 174L174.81 170.273L176.153 170.273L176.153 174L176.856 174L179.767 170.273L181.356 170.273L177.88 174.566L181.403 179L179.79 179L176.833 175.25L176.153 175.25L176.153 179L174.81 179L174.81 175.25L174.13 175.25L171.153 179ZM183.47 170.273L184.81 170.273L184.81 174.023L188.994 174.023L188.994 170.273L190.334 170.273L190.334 179L188.994 179L188.994 175.273L184.81 175.273L184.81 179L183.47 179L183.47 170.273ZM203.994 170.273L203.994 177.023L208.201 170.273L209.744 170.273L209.744 179L208.404 179L208.404 172.25L204.224 179L202.654 179L202.654 170.273L203.994 170.273ZM227.451 170.273L227.451 177.023L231.658 170.273L233.201 170.273L233.201 179L231.861 179L231.861 172.25L227.681 179L226.111 179L226.111 170.273L227.451 170.273ZM247.113 171.523L244.227 171.523L244.227 170.273L251.316 170.273L251.316 171.523L248.453 171.523L248.453 179L247.113 179L247.113 171.523ZM264.229 170.273L267.229 177.184L270.276 170.273L272.003 170.273L272.003 179L270.663 179L270.663 172.324L267.776 179L266.682 179L263.796 172.199L263.796 179L262.456 179L262.456 170.273L264.229 170.273ZM285.661 170.273L285.661 177.023L289.868 170.273L291.411 170.273L291.411 179L290.071 179L290.071 172.25L285.892 179L284.321 179L284.321 170.273L285.661 170.273ZM323.21 170.273L323.21 177.023L327.417 170.273L328.96 170.273L328.96 179L327.62 179L327.62 172.25L323.441 179L321.87 179L321.87 170.273L323.21 170.273ZM299.847 174.262L302.007 177.75L300.823 177.75L298.526 174.34L298.526 174.184L300.823 170.773L302.007 170.773L299.847 174.262ZM302.757 174.262L304.913 177.75L303.734 177.75L301.437 174.34L301.437 174.184L303.734 170.773L304.913 170.773L302.757 174.262ZM342.509 177.75L341.326 177.75L343.486 174.262L341.326 170.773L342.509 170.773L344.806 174.184L344.806 174.34L342.509 177.75ZM345.419 177.75L344.236 177.75L346.396 174.262L344.236 170.773L345.419 170.773L347.712 174.184L347.712 174.34L345.419 177.75ZM66.7309 171.363C65.1958 171.363 64.2348 172.574 64.145 173.934L69.1176 173.934C69.1176 172.453 68.184 171.363 66.7309 171.363ZM106.555 174.637C106.555 176.5 107.418 177.977 109.098 177.977C110.711 177.977 111.598 176.613 111.598 174.637C111.598 172.684 110.734 171.363 109.098 171.363C107.395 171.363 106.555 172.797 106.555 174.637ZM164.355 171.363C162.82 171.363 161.859 172.574 161.77 173.934L166.742 173.934C166.742 172.453 165.809 171.363 164.355 171.363ZM193.882 174.684C193.882 176.434 194.698 177.977 196.495 177.977C198.288 177.977 199.109 176.434 199.109 174.684C199.109 172.934 198.288 171.363 196.495 171.363C194.698 171.363 193.882 172.934 193.882 174.684ZM256.501 171.363C254.966 171.363 254.005 172.574 253.915 173.934L258.888 173.934C258.888 172.453 257.954 171.363 256.501 171.363ZM275.549 174.684C275.549 176.434 276.366 177.977 278.163 177.977C279.956 177.977 280.776 176.434 280.776 174.684C280.776 172.934 279.956 171.363 278.163 171.363C276.366 171.363 275.549 172.934 275.549 174.684ZM335.396 171.363C333.759 171.363 332.896 172.684 332.896 174.637C332.896 176.613 333.783 177.977 335.396 177.977C337.076 177.977 337.939 176.5 337.939 174.637C337.939 172.797 337.099 171.363 335.396 171.363ZM40.5474 176.59C40.5474 177.523 41.3209 178 42.3873 178C43.9771 178 44.8404 176.934 44.8404 175.84L44.8404 174.613C44.6138 174.887 43.0904 175.047 42.524 175.113C41.4771 175.25 40.5474 175.566 40.5474 176.59ZM91.5302 176.59C91.5302 177.523 92.3036 178 93.37 178C94.9598 178 95.8231 176.934 95.8231 175.84L95.8231 174.613C95.5966 174.887 94.0731 175.047 93.5067 175.113C92.4598 175.25 91.5302 175.566 91.5302 176.59ZM145.014 176.59C145.014 177.523 145.787 178 146.854 178C148.443 178 149.307 176.934 149.307 175.84L149.307 174.613C149.08 174.887 147.557 175.047 146.99 175.113C145.943 175.25 145.014 175.566 145.014 176.59ZM116.26 177.41L117.713 177.41L117.623 178.023C117.428 179.316 116.85 181.066 116.576 181.84L115.553 181.84C115.701 181.121 116.025 179.586 116.189 178.047L116.26 177.41Z" fill="#716969" fill-opacity="1.000000" fill-rule="evenodd"/>
	</g>
	<rect id="Frame 513775" rx="6.000000" width="414.000000" height="207.000000" transform="translate(0.500000 0.500000)" stroke="#BABABA" stroke-opacity="1.000000" stroke-width="1.000000"/>
</svg>
