<svg width="64.048828" height="64.048950" viewBox="0 0 64.0488 64.049" fill="none" xmlns="http://www.w3.org/2000/svg" xmlns:xlink="http://www.w3.org/1999/xlink">
	<desc>
			Created with Pixso.
	</desc>
	<defs>
		<clipPath id="clip99_723">
			<rect id="QRcode_A1 2" width="53.837017" height="53.837017" transform="translate(11.441406 0.000000) rotate(12.270462)" fill="white" fill-opacity="0"/>
		</clipPath>
	</defs>
	<rect id="QRcode_A1 2" width="53.837017" height="53.837017" transform="translate(11.441406 0.000000) rotate(12.270462)" fill="#FFFFFF" fill-opacity="0"/>
	<g clip-path="url(#clip99_723)">
		<path id="Vector" d="M17.3223 9.1499L18.8252 9.47681L18.498 10.9799L16.9951 10.653L17.3223 9.1499Z" fill="#876400" fill-opacity="1.000000" fill-rule="evenodd"/>
		<path id="Vector" d="M16.9951 10.653L18.498 10.9799L18.1709 12.4829L16.668 12.156L16.9951 10.653Z" fill="#876400" fill-opacity="1.000000" fill-rule="evenodd"/>
		<path id="Vector" d="M16.668 12.156L18.1709 12.4829L17.8438 13.986L16.3408 13.6591L16.668 12.156Z" fill="#876400" fill-opacity="1.000000" fill-rule="evenodd"/>
		<path id="Vector" d="M16.3418 13.6591L17.8447 13.986L17.5176 15.489L16.0146 15.1621L16.3418 13.6591Z" fill="#876400" fill-opacity="1.000000" fill-rule="evenodd"/>
		<path id="Vector" d="M16.0146 15.1621L17.5176 15.489L17.1904 16.9921L15.6875 16.6652L16.0146 15.1621Z" fill="#876400" fill-opacity="1.000000" fill-rule="evenodd"/>
		<path id="Vector" d="M15.6875 16.6652L17.1904 16.9921L16.8633 18.4951L15.3604 18.1682L15.6875 16.6652Z" fill="#876400" fill-opacity="1.000000" fill-rule="evenodd"/>
		<path id="Vector" d="M15.3604 18.1682L16.8633 18.4951L16.5361 19.9982L15.0332 19.6713L15.3604 18.1682Z" fill="#876400" fill-opacity="1.000000" fill-rule="evenodd"/>
		<path id="Vector" d="M14.707 21.1743L16.21 21.5012L15.8828 23.0043L14.3799 22.6774L14.707 21.1743Z" fill="#876400" fill-opacity="1.000000" fill-rule="evenodd"/>
		<path id="Vector" d="M14.0527 24.1804L15.5557 24.5073L15.2285 26.0104L13.7256 25.6835L14.0527 24.1804Z" fill="#876400" fill-opacity="1.000000" fill-rule="evenodd"/>
		<path id="Vector" d="M13.7266 25.6835L15.2295 26.0104L14.9023 27.5134L13.3994 27.1865L13.7266 25.6835Z" fill="#876400" fill-opacity="1.000000" fill-rule="evenodd"/>
		<path id="Vector" d="M13.3994 27.1865L14.9023 27.5134L14.5752 29.0165L13.0723 28.6896L13.3994 27.1865Z" fill="#876400" fill-opacity="1.000000" fill-rule="evenodd"/>
		<path id="Vector" d="M13.0723 28.6897L14.5752 29.0166L14.248 30.5197L12.7451 30.1927L13.0723 28.6897Z" fill="#876400" fill-opacity="1.000000" fill-rule="evenodd"/>
		<path id="Vector" d="M12.4189 31.6958L13.9219 32.0227L13.5947 33.5258L12.0918 33.1989L12.4189 31.6958Z" fill="#876400" fill-opacity="1.000000" fill-rule="evenodd"/>
		<path id="Vector" d="M12.0918 33.1989L13.5947 33.5258L13.2676 35.0288L11.7646 34.7019L12.0918 33.1989Z" fill="#876400" fill-opacity="1.000000" fill-rule="evenodd"/>
		<path id="Vector" d="M11.4375 36.205L12.9404 36.5319L12.6133 38.0349L11.1104 37.708L11.4375 36.205Z" fill="#876400" fill-opacity="1.000000" fill-rule="evenodd"/>
		<path id="Vector" d="M11.1104 37.708L12.6133 38.0349L12.2861 39.538L10.7832 39.2111L11.1104 37.708Z" fill="#876400" fill-opacity="1.000000" fill-rule="evenodd"/>
		<path id="Vector" d="M10.7842 39.2111L12.2871 39.538L11.96 41.041L10.457 40.7141L10.7842 39.2111Z" fill="#876400" fill-opacity="1.000000" fill-rule="evenodd"/>
		<path id="Vector" d="M10.457 40.7141L11.96 41.041L11.6328 42.5441L10.1299 42.2172L10.457 40.7141Z" fill="#876400" fill-opacity="1.000000" fill-rule="evenodd"/>
		<path id="Vector" d="M10.1299 42.2172L11.6328 42.5441L11.3057 44.0471L9.80273 43.7202L10.1299 42.2172Z" fill="#876400" fill-opacity="1.000000" fill-rule="evenodd"/>
		<path id="Vector" d="M9.80371 43.7202L11.3066 44.0471L10.9795 45.5502L9.47656 45.2233L9.80371 43.7202Z" fill="#876400" fill-opacity="1.000000" fill-rule="evenodd"/>
		<path id="Vector" d="M9.47656 45.2233L10.9795 45.5502L10.6523 47.0532L9.14941 46.7263L9.47656 45.2233Z" fill="#876400" fill-opacity="1.000000" fill-rule="evenodd"/>
		<path id="Vector" d="M18.8252 9.47681L20.3281 9.80371L20.001 11.3068L18.498 10.9799L18.8252 9.47681Z" fill="#876400" fill-opacity="1.000000" fill-rule="evenodd"/>
		<path id="Vector" d="M16.8643 18.4951L18.3672 18.822L18.04 20.3251L16.5371 19.9982L16.8643 18.4951Z" fill="#876400" fill-opacity="1.000000" fill-rule="evenodd"/>
		<path id="Vector" d="M15.5557 24.5073L17.0586 24.8342L16.7314 26.3373L15.2285 26.0104L15.5557 24.5073Z" fill="#876400" fill-opacity="1.000000" fill-rule="evenodd"/>
		<path id="Vector" d="M14.9023 27.5134L16.4053 27.8403L16.0781 29.3434L14.5752 29.0165L14.9023 27.5134Z" fill="#876400" fill-opacity="1.000000" fill-rule="evenodd"/>
		<path id="Vector" d="M14.5752 29.0166L16.0781 29.3435L15.751 30.8466L14.248 30.5197L14.5752 29.0166Z" fill="#876400" fill-opacity="1.000000" fill-rule="evenodd"/>
		<path id="Vector" d="M12.9404 36.5319L14.4434 36.8588L14.1162 38.3618L12.6133 38.0349L12.9404 36.5319Z" fill="#876400" fill-opacity="1.000000" fill-rule="evenodd"/>
		<path id="Vector" d="M10.9795 45.5502L12.4824 45.8771L12.1553 47.3801L10.6523 47.0532L10.9795 45.5502Z" fill="#876400" fill-opacity="1.000000" fill-rule="evenodd"/>
		<path id="Vector" d="M20.3281 9.80371L21.8311 10.1306L21.5039 11.6337L20.001 11.3068L20.3281 9.80371Z" fill="#876400" fill-opacity="1.000000" fill-rule="evenodd"/>
		<path id="Vector" d="M19.6748 12.8098L21.1777 13.1367L20.8506 14.6398L19.3477 14.3129L19.6748 12.8098Z" fill="#876400" fill-opacity="1.000000" fill-rule="evenodd"/>
		<path id="Vector" d="M19.3477 14.3129L20.8506 14.6398L20.5234 16.1428L19.0205 15.8159L19.3477 14.3129Z" fill="#876400" fill-opacity="1.000000" fill-rule="evenodd"/>
		<path id="Vector" d="M19.0205 15.8159L20.5234 16.1428L20.1963 17.6459L18.6934 17.319L19.0205 15.8159Z" fill="#876400" fill-opacity="1.000000" fill-rule="evenodd"/>
		<path id="Vector" d="M18.3672 18.822L19.8701 19.1489L19.543 20.652L18.04 20.3251L18.3672 18.822Z" fill="#876400" fill-opacity="1.000000" fill-rule="evenodd"/>
		<path id="Vector" d="M17.3857 23.3312L18.8887 23.6581L18.5615 25.1611L17.0586 24.8342L17.3857 23.3312Z" fill="#876400" fill-opacity="1.000000" fill-rule="evenodd"/>
		<path id="Vector" d="M17.0596 24.8342L18.5625 25.1611L18.2354 26.6642L16.7324 26.3373L17.0596 24.8342Z" fill="#876400" fill-opacity="1.000000" fill-rule="evenodd"/>
		<path id="Vector" d="M15.752 30.8466L17.2549 31.1735L16.9277 32.6765L15.4248 32.3496L15.752 30.8466Z" fill="#876400" fill-opacity="1.000000" fill-rule="evenodd"/>
		<path id="Vector" d="M15.0977 33.8527L16.6006 34.1796L16.2734 35.6826L14.7705 35.3557L15.0977 33.8527Z" fill="#876400" fill-opacity="1.000000" fill-rule="evenodd"/>
		<path id="Vector" d="M14.4443 36.8588L15.9473 37.1857L15.6201 38.6887L14.1172 38.3618L14.4443 36.8588Z" fill="#876400" fill-opacity="1.000000" fill-rule="evenodd"/>
		<path id="Vector" d="M13.79 39.8649L15.293 40.1918L14.9658 41.6948L13.4629 41.3679L13.79 39.8649Z" fill="#876400" fill-opacity="1.000000" fill-rule="evenodd"/>
		<path id="Vector" d="M13.4629 41.3679L14.9658 41.6948L14.6387 43.1979L13.1357 42.871L13.4629 41.3679Z" fill="#876400" fill-opacity="1.000000" fill-rule="evenodd"/>
		<path id="Vector" d="M13.1357 42.871L14.6387 43.1979L14.3115 44.7009L12.8086 44.374L13.1357 42.871Z" fill="#876400" fill-opacity="1.000000" fill-rule="evenodd"/>
		<path id="Vector" d="M12.4824 45.8771L13.9854 46.204L13.6582 47.707L12.1553 47.3801L12.4824 45.8771Z" fill="#876400" fill-opacity="1.000000" fill-rule="evenodd"/>
		<path id="Vector" d="M21.8311 10.1306L23.334 10.4575L23.0068 11.9606L21.5039 11.6337L21.8311 10.1306Z" fill="#876400" fill-opacity="1.000000" fill-rule="evenodd"/>
		<path id="Vector" d="M21.1777 13.1367L22.6807 13.4636L22.3535 14.9667L20.8506 14.6398L21.1777 13.1367Z" fill="#876400" fill-opacity="1.000000" fill-rule="evenodd"/>
		<path id="Vector" d="M20.8506 14.6398L22.3535 14.9667L22.0264 16.4697L20.5234 16.1428L20.8506 14.6398Z" fill="#876400" fill-opacity="1.000000" fill-rule="evenodd"/>
		<path id="Vector" d="M20.5234 16.1428L22.0264 16.4697L21.6992 17.9728L20.1963 17.6459L20.5234 16.1428Z" fill="#876400" fill-opacity="1.000000" fill-rule="evenodd"/>
		<path id="Vector" d="M19.8701 19.1489L21.373 19.4758L21.0459 20.9789L19.543 20.652L19.8701 19.1489Z" fill="#876400" fill-opacity="1.000000" fill-rule="evenodd"/>
		<path id="Vector" d="M19.2158 22.155L20.7188 22.4819L20.3916 23.985L18.8887 23.6581L19.2158 22.155Z" fill="#876400" fill-opacity="1.000000" fill-rule="evenodd"/>
		<path id="Vector" d="M18.8896 23.6581L20.3926 23.985L20.0654 25.488L18.5625 25.1611L18.8896 23.6581Z" fill="#876400" fill-opacity="1.000000" fill-rule="evenodd"/>
		<path id="Vector" d="M18.2354 26.6643L19.7383 26.9912L19.4111 28.4943L17.9082 28.1674L18.2354 26.6643Z" fill="#876400" fill-opacity="1.000000" fill-rule="evenodd"/>
		<path id="Vector" d="M16.9277 32.6765L18.4307 33.0034L18.1035 34.5065L16.6006 34.1796L16.9277 32.6765Z" fill="#876400" fill-opacity="1.000000" fill-rule="evenodd"/>
		<path id="Vector" d="M15.9473 37.1857L17.4502 37.5126L17.123 39.0156L15.6201 38.6887L15.9473 37.1857Z" fill="#876400" fill-opacity="1.000000" fill-rule="evenodd"/>
		<path id="Vector" d="M15.293 40.1918L16.7959 40.5187L16.4688 42.0217L14.9658 41.6948L15.293 40.1918Z" fill="#876400" fill-opacity="1.000000" fill-rule="evenodd"/>
		<path id="Vector" d="M14.9658 41.6948L16.4688 42.0217L16.1416 43.5248L14.6387 43.1979L14.9658 41.6948Z" fill="#876400" fill-opacity="1.000000" fill-rule="evenodd"/>
		<path id="Vector" d="M14.6396 43.1979L16.1426 43.5248L15.8154 45.0278L14.3125 44.7009L14.6396 43.1979Z" fill="#876400" fill-opacity="1.000000" fill-rule="evenodd"/>
		<path id="Vector" d="M13.9854 46.204L15.4883 46.5309L15.1611 48.0339L13.6582 47.707L13.9854 46.204Z" fill="#876400" fill-opacity="1.000000" fill-rule="evenodd"/>
		<path id="Vector" d="M23.335 10.4575L24.8379 10.7844L24.5107 12.2875L23.0078 11.9606L23.335 10.4575Z" fill="#876400" fill-opacity="1.000000" fill-rule="evenodd"/>
		<path id="Vector" d="M22.6807 13.4636L24.1836 13.7905L23.8564 15.2936L22.3535 14.9667L22.6807 13.4636Z" fill="#876400" fill-opacity="1.000000" fill-rule="evenodd"/>
		<path id="Vector" d="M22.3535 14.9667L23.8564 15.2936L23.5293 16.7966L22.0264 16.4697L22.3535 14.9667Z" fill="#876400" fill-opacity="1.000000" fill-rule="evenodd"/>
		<path id="Vector" d="M22.0264 16.4697L23.5293 16.7966L23.2021 18.2997L21.6992 17.9728L22.0264 16.4697Z" fill="#876400" fill-opacity="1.000000" fill-rule="evenodd"/>
		<path id="Vector" d="M21.373 19.4758L22.876 19.8027L22.5488 21.3058L21.0459 20.9789L21.373 19.4758Z" fill="#876400" fill-opacity="1.000000" fill-rule="evenodd"/>
		<path id="Vector" d="M20.7188 22.4819L22.2217 22.8088L21.8945 24.3119L20.3916 23.985L20.7188 22.4819Z" fill="#876400" fill-opacity="1.000000" fill-rule="evenodd"/>
		<path id="Vector" d="M20.3926 23.985L21.8955 24.3119L21.5684 25.8149L20.0654 25.488L20.3926 23.985Z" fill="#876400" fill-opacity="1.000000" fill-rule="evenodd"/>
		<path id="Vector" d="M20.0654 25.488L21.5684 25.8149L21.2412 27.318L19.7383 26.9911L20.0654 25.488Z" fill="#876400" fill-opacity="1.000000" fill-rule="evenodd"/>
		<path id="Vector" d="M18.7578 31.5004L20.2607 31.8273L19.9336 33.3303L18.4307 33.0034L18.7578 31.5004Z" fill="#876400" fill-opacity="1.000000" fill-rule="evenodd"/>
		<path id="Vector" d="M18.4307 33.0034L19.9336 33.3303L19.6064 34.8334L18.1035 34.5065L18.4307 33.0034Z" fill="#876400" fill-opacity="1.000000" fill-rule="evenodd"/>
		<path id="Vector" d="M18.1035 34.5065L19.6064 34.8334L19.2793 36.3364L17.7764 36.0095L18.1035 34.5065Z" fill="#876400" fill-opacity="1.000000" fill-rule="evenodd"/>
		<path id="Vector" d="M17.4502 37.5126L18.9531 37.8395L18.626 39.3425L17.123 39.0156L17.4502 37.5126Z" fill="#876400" fill-opacity="1.000000" fill-rule="evenodd"/>
		<path id="Vector" d="M16.7959 40.5187L18.2988 40.8456L17.9717 42.3486L16.4688 42.0217L16.7959 40.5187Z" fill="#876400" fill-opacity="1.000000" fill-rule="evenodd"/>
		<path id="Vector" d="M16.4697 42.0217L17.9727 42.3486L17.6455 43.8517L16.1426 43.5248L16.4697 42.0217Z" fill="#876400" fill-opacity="1.000000" fill-rule="evenodd"/>
		<path id="Vector" d="M16.1426 43.5248L17.6455 43.8517L17.3184 45.3547L15.8154 45.0278L16.1426 43.5248Z" fill="#876400" fill-opacity="1.000000" fill-rule="evenodd"/>
		<path id="Vector" d="M15.4883 46.531L16.9912 46.8579L16.6641 48.361L15.1611 48.0341L15.4883 46.531Z" fill="#876400" fill-opacity="1.000000" fill-rule="evenodd"/>
		<path id="Vector" d="M24.8369 10.7844L26.3398 11.1113L26.0127 12.6144L24.5098 12.2875L24.8369 10.7844Z" fill="#876400" fill-opacity="1.000000" fill-rule="evenodd"/>
		<path id="Vector" d="M22.876 19.8027L24.3789 20.1296L24.0518 21.6327L22.5488 21.3058L22.876 19.8027Z" fill="#876400" fill-opacity="1.000000" fill-rule="evenodd"/>
		<path id="Vector" d="M22.2217 22.8088L23.7246 23.1357L23.3975 24.6388L21.8945 24.3119L22.2217 22.8088Z" fill="#876400" fill-opacity="1.000000" fill-rule="evenodd"/>
		<path id="Vector" d="M21.8955 24.3119L23.3984 24.6388L23.0713 26.1418L21.5684 25.8149L21.8955 24.3119Z" fill="#876400" fill-opacity="1.000000" fill-rule="evenodd"/>
		<path id="Vector" d="M21.5684 25.8149L23.0713 26.1418L22.7441 27.6449L21.2412 27.318L21.5684 25.8149Z" fill="#876400" fill-opacity="1.000000" fill-rule="evenodd"/>
		<path id="Vector" d="M21.2412 27.3181L22.7441 27.645L22.417 29.1481L20.9141 28.8212L21.2412 27.3181Z" fill="#876400" fill-opacity="1.000000" fill-rule="evenodd"/>
		<path id="Vector" d="M20.915 28.8212L22.418 29.1481L22.0908 30.6511L20.5879 30.3242L20.915 28.8212Z" fill="#876400" fill-opacity="1.000000" fill-rule="evenodd"/>
		<path id="Vector" d="M18.9531 37.8395L20.4561 38.1664L20.1289 39.6694L18.626 39.3425L18.9531 37.8395Z" fill="#876400" fill-opacity="1.000000" fill-rule="evenodd"/>
		<path id="Vector" d="M16.9912 46.8579L18.4941 47.1848L18.167 48.6879L16.6641 48.361L16.9912 46.8579Z" fill="#876400" fill-opacity="1.000000" fill-rule="evenodd"/>
		<path id="Vector" d="M26.3408 11.1113L27.8438 11.4382L27.5166 12.9413L26.0137 12.6144L26.3408 11.1113Z" fill="#876400" fill-opacity="1.000000" fill-rule="evenodd"/>
		<path id="Vector" d="M26.0137 12.6144L27.5166 12.9413L27.1895 14.4443L25.6865 14.1174L26.0137 12.6144Z" fill="#876400" fill-opacity="1.000000" fill-rule="evenodd"/>
		<path id="Vector" d="M25.6865 14.1174L27.1895 14.4443L26.8623 15.9474L25.3594 15.6205L25.6865 14.1174Z" fill="#876400" fill-opacity="1.000000" fill-rule="evenodd"/>
		<path id="Vector" d="M25.3604 15.6205L26.8633 15.9474L26.5361 17.4504L25.0332 17.1235L25.3604 15.6205Z" fill="#876400" fill-opacity="1.000000" fill-rule="evenodd"/>
		<path id="Vector" d="M25.0332 17.1235L26.5361 17.4504L26.209 18.9535L24.7061 18.6266L25.0332 17.1235Z" fill="#876400" fill-opacity="1.000000" fill-rule="evenodd"/>
		<path id="Vector" d="M24.7061 18.6266L26.209 18.9535L25.8818 20.4565L24.3789 20.1296L24.7061 18.6266Z" fill="#876400" fill-opacity="1.000000" fill-rule="evenodd"/>
		<path id="Vector" d="M24.3789 20.1296L25.8818 20.4565L25.5547 21.9596L24.0518 21.6327L24.3789 20.1296Z" fill="#876400" fill-opacity="1.000000" fill-rule="evenodd"/>
		<path id="Vector" d="M23.7256 23.1357L25.2285 23.4626L24.9014 24.9657L23.3984 24.6388L23.7256 23.1357Z" fill="#876400" fill-opacity="1.000000" fill-rule="evenodd"/>
		<path id="Vector" d="M23.0713 26.1418L24.5742 26.4688L24.2471 27.9718L22.7441 27.6449L23.0713 26.1418Z" fill="#876400" fill-opacity="1.000000" fill-rule="evenodd"/>
		<path id="Vector" d="M22.418 29.1481L23.9209 29.475L23.5938 30.978L22.0908 30.6511L22.418 29.1481Z" fill="#876400" fill-opacity="1.000000" fill-rule="evenodd"/>
		<path id="Vector" d="M21.7637 32.1542L23.2666 32.4811L22.9395 33.9841L21.4365 33.6572L21.7637 32.1542Z" fill="#876400" fill-opacity="1.000000" fill-rule="evenodd"/>
		<path id="Vector" d="M21.1104 35.1603L22.6133 35.4872L22.2861 36.9902L20.7832 36.6633L21.1104 35.1603Z" fill="#876400" fill-opacity="1.000000" fill-rule="evenodd"/>
		<path id="Vector" d="M20.4561 38.1664L21.959 38.4933L21.6318 39.9963L20.1289 39.6694L20.4561 38.1664Z" fill="#876400" fill-opacity="1.000000" fill-rule="evenodd"/>
		<path id="Vector" d="M20.1289 39.6694L21.6318 39.9963L21.3047 41.4994L19.8018 41.1725L20.1289 39.6694Z" fill="#876400" fill-opacity="1.000000" fill-rule="evenodd"/>
		<path id="Vector" d="M19.8027 41.1725L21.3057 41.4994L20.9785 43.0024L19.4756 42.6755L19.8027 41.1725Z" fill="#876400" fill-opacity="1.000000" fill-rule="evenodd"/>
		<path id="Vector" d="M19.4756 42.6755L20.9785 43.0024L20.6514 44.5055L19.1484 44.1786L19.4756 42.6755Z" fill="#876400" fill-opacity="1.000000" fill-rule="evenodd"/>
		<path id="Vector" d="M19.1484 44.1786L20.6514 44.5055L20.3242 46.0085L18.8213 45.6816L19.1484 44.1786Z" fill="#876400" fill-opacity="1.000000" fill-rule="evenodd"/>
		<path id="Vector" d="M18.8213 45.6816L20.3242 46.0085L19.9971 47.5116L18.4941 47.1847L18.8213 45.6816Z" fill="#876400" fill-opacity="1.000000" fill-rule="evenodd"/>
		<path id="Vector" d="M18.4951 47.1848L19.998 47.5117L19.6709 49.0148L18.168 48.6879L18.4951 47.1848Z" fill="#876400" fill-opacity="1.000000" fill-rule="evenodd"/>
		<path id="Vector" d="M25.2285 23.4626L26.7314 23.7896L26.4043 25.2926L24.9014 24.9657L25.2285 23.4626Z" fill="#876400" fill-opacity="1.000000" fill-rule="evenodd"/>
		<path id="Vector" d="M24.5742 26.4688L26.0771 26.7957L25.75 28.2987L24.2471 27.9718L24.5742 26.4688Z" fill="#876400" fill-opacity="1.000000" fill-rule="evenodd"/>
		<path id="Vector" d="M24.2471 27.9719L25.75 28.2988L25.4229 29.8019L23.9199 29.475L24.2471 27.9719Z" fill="#876400" fill-opacity="1.000000" fill-rule="evenodd"/>
		<path id="Vector" d="M23.9209 29.475L25.4238 29.8019L25.0967 31.3049L23.5938 30.978L23.9209 29.475Z" fill="#876400" fill-opacity="1.000000" fill-rule="evenodd"/>
		<path id="Vector" d="M23.5938 30.978L25.0967 31.3049L24.7695 32.808L23.2666 32.4811L23.5938 30.978Z" fill="#876400" fill-opacity="1.000000" fill-rule="evenodd"/>
		<path id="Vector" d="M29.3467 11.7651L30.8496 12.092L30.5225 13.5951L29.0195 13.2682L29.3467 11.7651Z" fill="#876400" fill-opacity="1.000000" fill-rule="evenodd"/>
		<path id="Vector" d="M28.0391 17.7773L29.542 18.1042L29.2148 19.6073L27.7119 19.2804L28.0391 17.7773Z" fill="#876400" fill-opacity="1.000000" fill-rule="evenodd"/>
		<path id="Vector" d="M27.3857 20.7834L28.8887 21.1104L28.5615 22.6134L27.0586 22.2865L27.3857 20.7834Z" fill="#876400" fill-opacity="1.000000" fill-rule="evenodd"/>
		<path id="Vector" d="M27.0586 22.2865L28.5615 22.6134L28.2344 24.1165L26.7314 23.7896L27.0586 22.2865Z" fill="#876400" fill-opacity="1.000000" fill-rule="evenodd"/>
		<path id="Vector" d="M26.7314 23.7896L28.2344 24.1165L27.9072 25.6195L26.4043 25.2926L26.7314 23.7896Z" fill="#876400" fill-opacity="1.000000" fill-rule="evenodd"/>
		<path id="Vector" d="M26.4043 25.2927L27.9072 25.6196L27.5801 27.1227L26.0771 26.7958L26.4043 25.2927Z" fill="#876400" fill-opacity="1.000000" fill-rule="evenodd"/>
		<path id="Vector" d="M25.751 28.2988L27.2539 28.6257L26.9268 30.1288L25.4238 29.8019L25.751 28.2988Z" fill="#876400" fill-opacity="1.000000" fill-rule="evenodd"/>
		<path id="Vector" d="M25.0967 31.3049L26.5996 31.6318L26.2725 33.1349L24.7695 32.808L25.0967 31.3049Z" fill="#876400" fill-opacity="1.000000" fill-rule="evenodd"/>
		<path id="Vector" d="M24.4434 34.311L25.9463 34.6379L25.6191 36.141L24.1162 35.8141L24.4434 34.311Z" fill="#876400" fill-opacity="1.000000" fill-rule="evenodd"/>
		<path id="Vector" d="M23.7891 37.3171L25.292 37.644L24.9648 39.1471L23.4619 38.8202L23.7891 37.3171Z" fill="#876400" fill-opacity="1.000000" fill-rule="evenodd"/>
		<path id="Vector" d="M23.4619 38.8202L24.9648 39.1471L24.6377 40.6501L23.1348 40.3232L23.4619 38.8202Z" fill="#876400" fill-opacity="1.000000" fill-rule="evenodd"/>
		<path id="Vector" d="M23.1357 40.3232L24.6387 40.6501L24.3115 42.1532L22.8086 41.8263L23.1357 40.3232Z" fill="#876400" fill-opacity="1.000000" fill-rule="evenodd"/>
		<path id="Vector" d="M22.8086 41.8263L24.3115 42.1532L23.9844 43.6562L22.4814 43.3293L22.8086 41.8263Z" fill="#876400" fill-opacity="1.000000" fill-rule="evenodd"/>
		<path id="Vector" d="M22.4814 43.3293L23.9844 43.6562L23.6572 45.1593L22.1543 44.8324L22.4814 43.3293Z" fill="#876400" fill-opacity="1.000000" fill-rule="evenodd"/>
		<path id="Vector" d="M21.501 47.8386L23.0039 48.1655L22.6768 49.6686L21.1738 49.3417L21.501 47.8386Z" fill="#876400" fill-opacity="1.000000" fill-rule="evenodd"/>
		<path id="Vector" d="M30.8496 12.092L32.3525 12.4189L32.0254 13.922L30.5225 13.5951L30.8496 12.092Z" fill="#876400" fill-opacity="1.000000" fill-rule="evenodd"/>
		<path id="Vector" d="M30.5225 13.5951L32.0254 13.922L31.6982 15.425L30.1953 15.0981L30.5225 13.5951Z" fill="#876400" fill-opacity="1.000000" fill-rule="evenodd"/>
		<path id="Vector" d="M29.542 18.1042L31.0449 18.4312L30.7178 19.9342L29.2148 19.6073L29.542 18.1042Z" fill="#876400" fill-opacity="1.000000" fill-rule="evenodd"/>
		<path id="Vector" d="M28.5615 22.6134L30.0645 22.9403L29.7373 24.4434L28.2344 24.1165L28.5615 22.6134Z" fill="#876400" fill-opacity="1.000000" fill-rule="evenodd"/>
		<path id="Vector" d="M27.5811 27.1227L29.084 27.4496L28.7568 28.9526L27.2539 28.6257L27.5811 27.1227Z" fill="#876400" fill-opacity="1.000000" fill-rule="evenodd"/>
		<path id="Vector" d="M27.2539 28.6257L28.7568 28.9526L28.4297 30.4557L26.9268 30.1288L27.2539 28.6257Z" fill="#876400" fill-opacity="1.000000" fill-rule="evenodd"/>
		<path id="Vector" d="M26.5996 31.6318L28.1025 31.9587L27.7754 33.4618L26.2725 33.1349L26.5996 31.6318Z" fill="#876400" fill-opacity="1.000000" fill-rule="evenodd"/>
		<path id="Vector" d="M26.2725 33.1349L27.7754 33.4618L27.4482 34.9648L25.9453 34.6379L26.2725 33.1349Z" fill="#876400" fill-opacity="1.000000" fill-rule="evenodd"/>
		<path id="Vector" d="M25.9463 34.6379L27.4492 34.9648L27.1221 36.4679L25.6191 36.141L25.9463 34.6379Z" fill="#876400" fill-opacity="1.000000" fill-rule="evenodd"/>
		<path id="Vector" d="M24.3115 42.1532L25.8145 42.4801L25.4873 43.9832L23.9844 43.6562L24.3115 42.1532Z" fill="#876400" fill-opacity="1.000000" fill-rule="evenodd"/>
		<path id="Vector" d="M23.9844 43.6562L25.4873 43.9832L25.1602 45.4862L23.6572 45.1593L23.9844 43.6562Z" fill="#876400" fill-opacity="1.000000" fill-rule="evenodd"/>
		<path id="Vector" d="M23.3311 46.6625L24.834 46.9894L24.5068 48.4924L23.0039 48.1655L23.3311 46.6625Z" fill="#876400" fill-opacity="1.000000" fill-rule="evenodd"/>
		<path id="Vector" d="M32.3525 12.4189L33.8555 12.7458L33.5283 14.2489L32.0254 13.922L32.3525 12.4189Z" fill="#876400" fill-opacity="1.000000" fill-rule="evenodd"/>
		<path id="Vector" d="M32.0264 13.922L33.5293 14.2489L33.2021 15.752L31.6992 15.425L32.0264 13.922Z" fill="#876400" fill-opacity="1.000000" fill-rule="evenodd"/>
		<path id="Vector" d="M31.6992 15.425L33.2021 15.752L32.875 17.255L31.3721 16.9281L31.6992 15.425Z" fill="#876400" fill-opacity="1.000000" fill-rule="evenodd"/>
		<path id="Vector" d="M31.3721 16.9281L32.875 17.255L32.5479 18.7581L31.0449 18.4312L31.3721 16.9281Z" fill="#876400" fill-opacity="1.000000" fill-rule="evenodd"/>
		<path id="Vector" d="M30.7178 19.9342L32.2207 20.2611L31.8936 21.7642L30.3906 21.4373L30.7178 19.9342Z" fill="#876400" fill-opacity="1.000000" fill-rule="evenodd"/>
		<path id="Vector" d="M30.3916 21.4373L31.8945 21.7642L31.5674 23.2672L30.0645 22.9403L30.3916 21.4373Z" fill="#876400" fill-opacity="1.000000" fill-rule="evenodd"/>
		<path id="Vector" d="M30.0645 22.9403L31.5674 23.2672L31.2402 24.7703L29.7373 24.4434L30.0645 22.9403Z" fill="#876400" fill-opacity="1.000000" fill-rule="evenodd"/>
		<path id="Vector" d="M29.7373 24.4434L31.2402 24.7703L30.9131 26.2733L29.4102 25.9464L29.7373 24.4434Z" fill="#876400" fill-opacity="1.000000" fill-rule="evenodd"/>
		<path id="Vector" d="M28.7568 28.9526L30.2598 29.2795L29.9326 30.7826L28.4297 30.4557L28.7568 28.9526Z" fill="#876400" fill-opacity="1.000000" fill-rule="evenodd"/>
		<path id="Vector" d="M27.4492 34.9648L28.9521 35.2917L28.625 36.7948L27.1221 36.4679L27.4492 34.9648Z" fill="#876400" fill-opacity="1.000000" fill-rule="evenodd"/>
		<path id="Vector" d="M26.1416 40.9771L27.6445 41.304L27.3174 42.807L25.8145 42.4801L26.1416 40.9771Z" fill="#876400" fill-opacity="1.000000" fill-rule="evenodd"/>
		<path id="Vector" d="M25.8145 42.4801L27.3174 42.807L26.9902 44.3101L25.4873 43.9832L25.8145 42.4801Z" fill="#876400" fill-opacity="1.000000" fill-rule="evenodd"/>
		<path id="Vector" d="M25.4873 43.9832L26.9902 44.3101L26.6631 45.8131L25.1602 45.4862L25.4873 43.9832Z" fill="#876400" fill-opacity="1.000000" fill-rule="evenodd"/>
		<path id="Vector" d="M25.1611 45.4863L26.6641 45.8132L26.3369 47.3163L24.834 46.9894L25.1611 45.4863Z" fill="#876400" fill-opacity="1.000000" fill-rule="evenodd"/>
		<path id="Vector" d="M33.8555 12.7458L35.3584 13.0728L35.0312 14.5758L33.5283 14.2489L33.8555 12.7458Z" fill="#876400" fill-opacity="1.000000" fill-rule="evenodd"/>
		<path id="Vector" d="M33.2021 15.752L34.7051 16.0789L34.3779 17.5819L32.875 17.255L33.2021 15.752Z" fill="#876400" fill-opacity="1.000000" fill-rule="evenodd"/>
		<path id="Vector" d="M32.875 17.255L34.3779 17.5819L34.0508 19.085L32.5479 18.7581L32.875 17.255Z" fill="#876400" fill-opacity="1.000000" fill-rule="evenodd"/>
		<path id="Vector" d="M31.5674 23.2673L33.0703 23.5942L32.7432 25.0973L31.2402 24.7704L31.5674 23.2673Z" fill="#876400" fill-opacity="1.000000" fill-rule="evenodd"/>
		<path id="Vector" d="M31.2402 24.7703L32.7432 25.0972L32.416 26.6002L30.9131 26.2733L31.2402 24.7703Z" fill="#876400" fill-opacity="1.000000" fill-rule="evenodd"/>
		<path id="Vector" d="M30.9131 26.2734L32.416 26.6003L32.0889 28.1034L30.5859 27.7765L30.9131 26.2734Z" fill="#876400" fill-opacity="1.000000" fill-rule="evenodd"/>
		<path id="Vector" d="M30.5869 27.7765L32.0898 28.1034L31.7627 29.6064L30.2598 29.2795L30.5869 27.7765Z" fill="#876400" fill-opacity="1.000000" fill-rule="evenodd"/>
		<path id="Vector" d="M29.2793 33.7887L30.7822 34.1156L30.4551 35.6187L28.9521 35.2917L29.2793 33.7887Z" fill="#876400" fill-opacity="1.000000" fill-rule="evenodd"/>
		<path id="Vector" d="M28.9521 35.2917L30.4551 35.6187L30.1279 37.1217L28.625 36.7948L28.9521 35.2917Z" fill="#876400" fill-opacity="1.000000" fill-rule="evenodd"/>
		<path id="Vector" d="M27.9717 39.8009L29.4746 40.1278L29.1475 41.6309L27.6445 41.304L27.9717 39.8009Z" fill="#876400" fill-opacity="1.000000" fill-rule="evenodd"/>
		<path id="Vector" d="M27.6445 41.304L29.1475 41.6309L28.8203 43.1339L27.3174 42.807L27.6445 41.304Z" fill="#876400" fill-opacity="1.000000" fill-rule="evenodd"/>
		<path id="Vector" d="M27.3174 42.807L28.8203 43.1339L28.4932 44.637L26.9902 44.3101L27.3174 42.807Z" fill="#876400" fill-opacity="1.000000" fill-rule="evenodd"/>
		<path id="Vector" d="M26.6641 45.8132L28.167 46.1401L27.8398 47.6432L26.3369 47.3163L26.6641 45.8132Z" fill="#876400" fill-opacity="1.000000" fill-rule="evenodd"/>
		<path id="Vector" d="M26.3369 47.3163L27.8398 47.6432L27.5127 49.1462L26.0098 48.8193L26.3369 47.3163Z" fill="#876400" fill-opacity="1.000000" fill-rule="evenodd"/>
		<path id="Vector" d="M35.0322 14.5758L36.5352 14.9027L36.208 16.4058L34.7051 16.0789L35.0322 14.5758Z" fill="#876400" fill-opacity="1.000000" fill-rule="evenodd"/>
		<path id="Vector" d="M34.7051 16.0789L36.208 16.4058L35.8809 17.9088L34.3779 17.5819L34.7051 16.0789Z" fill="#876400" fill-opacity="1.000000" fill-rule="evenodd"/>
		<path id="Vector" d="M34.3779 17.5819L35.8809 17.9088L35.5537 19.4119L34.0508 19.085L34.3779 17.5819Z" fill="#876400" fill-opacity="1.000000" fill-rule="evenodd"/>
		<path id="Vector" d="M34.0518 19.085L35.5547 19.4119L35.2275 20.9149L33.7246 20.588L34.0518 19.085Z" fill="#876400" fill-opacity="1.000000" fill-rule="evenodd"/>
		<path id="Vector" d="M33.7246 20.588L35.2275 20.9149L34.9004 22.418L33.3975 22.0911L33.7246 20.588Z" fill="#876400" fill-opacity="1.000000" fill-rule="evenodd"/>
		<path id="Vector" d="M33.3975 22.0911L34.9004 22.418L34.5732 23.921L33.0703 23.5941L33.3975 22.0911Z" fill="#876400" fill-opacity="1.000000" fill-rule="evenodd"/>
		<path id="Vector" d="M31.1094 32.6125L32.6123 32.9395L32.2852 34.4425L30.7822 34.1156L31.1094 32.6125Z" fill="#876400" fill-opacity="1.000000" fill-rule="evenodd"/>
		<path id="Vector" d="M30.7822 34.1156L32.2852 34.4425L31.958 35.9456L30.4551 35.6187L30.7822 34.1156Z" fill="#876400" fill-opacity="1.000000" fill-rule="evenodd"/>
		<path id="Vector" d="M29.8018 38.6248L31.3047 38.9517L30.9775 40.4547L29.4746 40.1278L29.8018 38.6248Z" fill="#876400" fill-opacity="1.000000" fill-rule="evenodd"/>
		<path id="Vector" d="M29.4746 40.1278L30.9775 40.4547L30.6504 41.9578L29.1475 41.6309L29.4746 40.1278Z" fill="#876400" fill-opacity="1.000000" fill-rule="evenodd"/>
		<path id="Vector" d="M29.1475 41.6309L30.6504 41.9578L30.3232 43.4608L28.8203 43.1339L29.1475 41.6309Z" fill="#876400" fill-opacity="1.000000" fill-rule="evenodd"/>
		<path id="Vector" d="M28.4941 44.637L29.9971 44.9639L29.6699 46.4669L28.167 46.14L28.4941 44.637Z" fill="#876400" fill-opacity="1.000000" fill-rule="evenodd"/>
		<path id="Vector" d="M28.167 46.1401L29.6699 46.467L29.3428 47.9701L27.8398 47.6432L28.167 46.1401Z" fill="#876400" fill-opacity="1.000000" fill-rule="evenodd"/>
		<path id="Vector" d="M27.8398 47.6432L29.3428 47.9701L29.0156 49.4731L27.5127 49.1462L27.8398 47.6432Z" fill="#876400" fill-opacity="1.000000" fill-rule="evenodd"/>
		<path id="Vector" d="M27.5127 49.1462L29.0156 49.4731L28.6885 50.9762L27.1855 50.6493L27.5127 49.1462Z" fill="#876400" fill-opacity="1.000000" fill-rule="evenodd"/>
		<path id="Vector" d="M36.8623 13.3997L38.3652 13.7266L38.0381 15.2296L36.5352 14.9027L36.8623 13.3997Z" fill="#876400" fill-opacity="1.000000" fill-rule="evenodd"/>
		<path id="Vector" d="M35.2275 20.9149L36.7305 21.2418L36.4033 22.7449L34.9004 22.418L35.2275 20.9149Z" fill="#876400" fill-opacity="1.000000" fill-rule="evenodd"/>
		<path id="Vector" d="M34.5732 23.9211L36.0762 24.248L35.749 25.7511L34.2461 25.4242L34.5732 23.9211Z" fill="#876400" fill-opacity="1.000000" fill-rule="evenodd"/>
		<path id="Vector" d="M34.2471 25.4242L35.75 25.7511L35.4229 27.2542L33.9199 26.9272L34.2471 25.4242Z" fill="#876400" fill-opacity="1.000000" fill-rule="evenodd"/>
		<path id="Vector" d="M33.5928 28.4303L35.0957 28.7572L34.7686 30.2603L33.2656 29.9333L33.5928 28.4303Z" fill="#876400" fill-opacity="1.000000" fill-rule="evenodd"/>
		<path id="Vector" d="M32.9385 31.4364L34.4414 31.7633L34.1143 33.2664L32.6113 32.9395L32.9385 31.4364Z" fill="#876400" fill-opacity="1.000000" fill-rule="evenodd"/>
		<path id="Vector" d="M31.958 35.9456L33.4609 36.2725L33.1338 37.7755L31.6309 37.4486L31.958 35.9456Z" fill="#876400" fill-opacity="1.000000" fill-rule="evenodd"/>
		<path id="Vector" d="M31.6318 37.4486L33.1348 37.7755L32.8076 39.2786L31.3047 38.9517L31.6318 37.4486Z" fill="#876400" fill-opacity="1.000000" fill-rule="evenodd"/>
		<path id="Vector" d="M31.3047 38.9517L32.8076 39.2786L32.4805 40.7816L30.9775 40.4547L31.3047 38.9517Z" fill="#876400" fill-opacity="1.000000" fill-rule="evenodd"/>
		<path id="Vector" d="M30.3232 43.4609L31.8262 43.7878L31.499 45.2909L29.9961 44.964L30.3232 43.4609Z" fill="#876400" fill-opacity="1.000000" fill-rule="evenodd"/>
		<path id="Vector" d="M29.3428 47.9701L30.8457 48.297L30.5186 49.8L29.0156 49.4731L29.3428 47.9701Z" fill="#876400" fill-opacity="1.000000" fill-rule="evenodd"/>
		<path id="Vector" d="M37.7109 16.7327L39.2139 17.0596L38.8867 18.5626L37.3838 18.2357L37.7109 16.7327Z" fill="#876400" fill-opacity="1.000000" fill-rule="evenodd"/>
		<path id="Vector" d="M37.3838 18.2357L38.8867 18.5626L38.5596 20.0657L37.0566 19.7388L37.3838 18.2357Z" fill="#876400" fill-opacity="1.000000" fill-rule="evenodd"/>
		<path id="Vector" d="M36.4033 22.7449L37.9062 23.0718L37.5791 24.5748L36.0762 24.2479L36.4033 22.7449Z" fill="#876400" fill-opacity="1.000000" fill-rule="evenodd"/>
		<path id="Vector" d="M36.0771 24.248L37.5801 24.575L37.2529 26.078L35.75 25.7511L36.0771 24.248Z" fill="#876400" fill-opacity="1.000000" fill-rule="evenodd"/>
		<path id="Vector" d="M35.4229 27.2542L36.9258 27.5811L36.5986 29.0841L35.0957 28.7572L35.4229 27.2542Z" fill="#876400" fill-opacity="1.000000" fill-rule="evenodd"/>
		<path id="Vector" d="M35.0957 28.7572L36.5986 29.0841L36.2715 30.5872L34.7686 30.2603L35.0957 28.7572Z" fill="#876400" fill-opacity="1.000000" fill-rule="evenodd"/>
		<path id="Vector" d="M34.7686 30.2603L36.2715 30.5872L35.9443 32.0902L34.4414 31.7633L34.7686 30.2603Z" fill="#876400" fill-opacity="1.000000" fill-rule="evenodd"/>
		<path id="Vector" d="M34.4424 31.7633L35.9453 32.0902L35.6182 33.5933L34.1152 33.2664L34.4424 31.7633Z" fill="#876400" fill-opacity="1.000000" fill-rule="evenodd"/>
		<path id="Vector" d="M34.1152 33.2664L35.6182 33.5933L35.291 35.0963L33.7881 34.7694L34.1152 33.2664Z" fill="#876400" fill-opacity="1.000000" fill-rule="evenodd"/>
		<path id="Vector" d="M33.7881 34.7694L35.291 35.0963L34.9639 36.5994L33.4609 36.2725L33.7881 34.7694Z" fill="#876400" fill-opacity="1.000000" fill-rule="evenodd"/>
		<path id="Vector" d="M33.4619 36.2725L34.9648 36.5994L34.6377 38.1024L33.1348 37.7755L33.4619 36.2725Z" fill="#876400" fill-opacity="1.000000" fill-rule="evenodd"/>
		<path id="Vector" d="M33.1348 37.7755L34.6377 38.1024L34.3105 39.6055L32.8076 39.2786L33.1348 37.7755Z" fill="#876400" fill-opacity="1.000000" fill-rule="evenodd"/>
		<path id="Vector" d="M32.8076 39.2786L34.3105 39.6055L33.9834 41.1085L32.4805 40.7816L32.8076 39.2786Z" fill="#876400" fill-opacity="1.000000" fill-rule="evenodd"/>
		<path id="Vector" d="M32.1533 42.2847L33.6562 42.6116L33.3291 44.1146L31.8262 43.7877L32.1533 42.2847Z" fill="#876400" fill-opacity="1.000000" fill-rule="evenodd"/>
		<path id="Vector" d="M31.8271 43.7878L33.3301 44.1147L33.0029 45.6178L31.5 45.2909L31.8271 43.7878Z" fill="#876400" fill-opacity="1.000000" fill-rule="evenodd"/>
		<path id="Vector" d="M31.5 45.2908L33.0029 45.6177L32.6758 47.1207L31.1729 46.7938L31.5 45.2908Z" fill="#876400" fill-opacity="1.000000" fill-rule="evenodd"/>
		<path id="Vector" d="M31.1729 46.7939L32.6758 47.1208L32.3486 48.6239L30.8457 48.297L31.1729 46.7939Z" fill="#876400" fill-opacity="1.000000" fill-rule="evenodd"/>
		<path id="Vector" d="M38.8877 18.5626L40.3906 18.8895L40.0635 20.3926L38.5605 20.0657L38.8877 18.5626Z" fill="#876400" fill-opacity="1.000000" fill-rule="evenodd"/>
		<path id="Vector" d="M37.2529 26.078L38.7559 26.4049L38.4287 27.908L36.9258 27.5811L37.2529 26.078Z" fill="#876400" fill-opacity="1.000000" fill-rule="evenodd"/>
		<path id="Vector" d="M36.2725 30.5872L37.7754 30.9141L37.4482 32.4171L35.9453 32.0902L36.2725 30.5872Z" fill="#876400" fill-opacity="1.000000" fill-rule="evenodd"/>
		<path id="Vector" d="M35.6182 33.5933L37.1211 33.9202L36.7939 35.4232L35.291 35.0963L35.6182 33.5933Z" fill="#876400" fill-opacity="1.000000" fill-rule="evenodd"/>
		<path id="Vector" d="M34.9648 36.5994L36.4678 36.9263L36.1406 38.4293L34.6377 38.1024L34.9648 36.5994Z" fill="#876400" fill-opacity="1.000000" fill-rule="evenodd"/>
		<path id="Vector" d="M33.9834 41.1085L35.4863 41.4354L35.1592 42.9385L33.6562 42.6116L33.9834 41.1085Z" fill="#876400" fill-opacity="1.000000" fill-rule="evenodd"/>
		<path id="Vector" d="M33.6572 42.6116L35.1602 42.9385L34.833 44.4415L33.3301 44.1146L33.6572 42.6116Z" fill="#876400" fill-opacity="1.000000" fill-rule="evenodd"/>
		<path id="Vector" d="M33.3301 44.1147L34.833 44.4417L34.5059 45.9447L33.0029 45.6178L33.3301 44.1147Z" fill="#876400" fill-opacity="1.000000" fill-rule="evenodd"/>
		<path id="Vector" d="M32.6758 47.1208L34.1787 47.4478L33.8516 48.9508L32.3486 48.6239L32.6758 47.1208Z" fill="#876400" fill-opacity="1.000000" fill-rule="evenodd"/>
		<path id="Vector" d="M32.3486 48.6239L33.8516 48.9508L33.5244 50.4539L32.0215 50.127L32.3486 48.6239Z" fill="#876400" fill-opacity="1.000000" fill-rule="evenodd"/>
		<path id="Vector" d="M41.3711 14.3804L42.874 14.7073L42.5469 16.2103L41.0439 15.8834L41.3711 14.3804Z" fill="#876400" fill-opacity="1.000000" fill-rule="evenodd"/>
		<path id="Vector" d="M41.0439 15.8834L42.5469 16.2103L42.2197 17.7134L40.7168 17.3865L41.0439 15.8834Z" fill="#876400" fill-opacity="1.000000" fill-rule="evenodd"/>
		<path id="Vector" d="M40.7178 17.3865L42.2207 17.7134L41.8936 19.2164L40.3906 18.8895L40.7178 17.3865Z" fill="#876400" fill-opacity="1.000000" fill-rule="evenodd"/>
		<path id="Vector" d="M40.3906 18.8895L41.8936 19.2164L41.5664 20.7195L40.0635 20.3926L40.3906 18.8895Z" fill="#876400" fill-opacity="1.000000" fill-rule="evenodd"/>
		<path id="Vector" d="M39.4092 23.3987L40.9121 23.7256L40.585 25.2286L39.082 24.9017L39.4092 23.3987Z" fill="#876400" fill-opacity="1.000000" fill-rule="evenodd"/>
		<path id="Vector" d="M38.7559 26.4049L40.2588 26.7318L39.9316 28.2349L38.4287 27.908L38.7559 26.4049Z" fill="#876400" fill-opacity="1.000000" fill-rule="evenodd"/>
		<path id="Vector" d="M37.4482 32.4171L38.9512 32.744L38.624 34.2471L37.1211 33.9202L37.4482 32.4171Z" fill="#876400" fill-opacity="1.000000" fill-rule="evenodd"/>
		<path id="Vector" d="M37.1211 33.9202L38.624 34.2471L38.2969 35.7501L36.7939 35.4232L37.1211 33.9202Z" fill="#876400" fill-opacity="1.000000" fill-rule="evenodd"/>
		<path id="Vector" d="M36.4678 36.9263L37.9707 37.2532L37.6436 38.7562L36.1406 38.4293L36.4678 36.9263Z" fill="#876400" fill-opacity="1.000000" fill-rule="evenodd"/>
		<path id="Vector" d="M36.1406 38.4293L37.6436 38.7562L37.3164 40.2593L35.8135 39.9324L36.1406 38.4293Z" fill="#876400" fill-opacity="1.000000" fill-rule="evenodd"/>
		<path id="Vector" d="M35.8135 39.9324L37.3164 40.2593L36.9893 41.7623L35.4863 41.4354L35.8135 39.9324Z" fill="#876400" fill-opacity="1.000000" fill-rule="evenodd"/>
		<path id="Vector" d="M35.4873 41.4355L36.9902 41.7625L36.6631 43.2655L35.1602 42.9386L35.4873 41.4355Z" fill="#876400" fill-opacity="1.000000" fill-rule="evenodd"/>
		<path id="Vector" d="M35.1602 42.9385L36.6631 43.2654L36.3359 44.7684L34.833 44.4415L35.1602 42.9385Z" fill="#876400" fill-opacity="1.000000" fill-rule="evenodd"/>
		<path id="Vector" d="M34.833 44.4417L36.3359 44.7686L36.0088 46.2716L34.5059 45.9447L34.833 44.4417Z" fill="#876400" fill-opacity="1.000000" fill-rule="evenodd"/>
		<path id="Vector" d="M34.5059 45.9447L36.0088 46.2716L35.6816 47.7747L34.1787 47.4478L34.5059 45.9447Z" fill="#876400" fill-opacity="1.000000" fill-rule="evenodd"/>
		<path id="Vector" d="M34.1787 47.4478L35.6816 47.7747L35.3545 49.2777L33.8516 48.9508L34.1787 47.4478Z" fill="#876400" fill-opacity="1.000000" fill-rule="evenodd"/>
		<path id="Vector" d="M40.2588 26.7318L41.7617 27.0587L41.4346 28.5618L39.9316 28.2349L40.2588 26.7318Z" fill="#876400" fill-opacity="1.000000" fill-rule="evenodd"/>
		<path id="Vector" d="M39.9316 28.2349L41.4346 28.5618L41.1074 30.0648L39.6045 29.7379L39.9316 28.2349Z" fill="#876400" fill-opacity="1.000000" fill-rule="evenodd"/>
		<path id="Vector" d="M39.6055 29.7379L41.1084 30.0648L40.7812 31.5679L39.2783 31.241L39.6055 29.7379Z" fill="#876400" fill-opacity="1.000000" fill-rule="evenodd"/>
		<path id="Vector" d="M38.624 34.2471L40.127 34.574L39.7998 36.077L38.2969 35.7501L38.624 34.2471Z" fill="#876400" fill-opacity="1.000000" fill-rule="evenodd"/>
		<path id="Vector" d="M38.2979 35.7501L39.8008 36.077L39.4736 37.5801L37.9707 37.2532L38.2979 35.7501Z" fill="#876400" fill-opacity="1.000000" fill-rule="evenodd"/>
		<path id="Vector" d="M37.6436 38.7562L39.1465 39.0831L38.8193 40.5862L37.3164 40.2593L37.6436 38.7562Z" fill="#876400" fill-opacity="1.000000" fill-rule="evenodd"/>
		<path id="Vector" d="M36.3359 44.7686L37.8389 45.0955L37.5117 46.5985L36.0088 46.2716L36.3359 44.7686Z" fill="#876400" fill-opacity="1.000000" fill-rule="evenodd"/>
		<path id="Vector" d="M44.377 15.0342L45.8799 15.3611L45.5527 16.8641L44.0498 16.5372L44.377 15.0342Z" fill="#876400" fill-opacity="1.000000" fill-rule="evenodd"/>
		<path id="Vector" d="M44.0498 16.5372L45.5527 16.8641L45.2256 18.3672L43.7227 18.0403L44.0498 16.5372Z" fill="#876400" fill-opacity="1.000000" fill-rule="evenodd"/>
		<path id="Vector" d="M43.7236 18.0403L45.2266 18.3672L44.8994 19.8702L43.3965 19.5433L43.7236 18.0403Z" fill="#876400" fill-opacity="1.000000" fill-rule="evenodd"/>
		<path id="Vector" d="M43.3965 19.5433L44.8994 19.8702L44.5723 21.3733L43.0693 21.0464L43.3965 19.5433Z" fill="#876400" fill-opacity="1.000000" fill-rule="evenodd"/>
		<path id="Vector" d="M43.0693 21.0464L44.5723 21.3733L44.2451 22.8763L42.7422 22.5494L43.0693 21.0464Z" fill="#876400" fill-opacity="1.000000" fill-rule="evenodd"/>
		<path id="Vector" d="M42.7432 22.5496L44.2461 22.8765L43.9189 24.3795L42.416 24.0526L42.7432 22.5496Z" fill="#876400" fill-opacity="1.000000" fill-rule="evenodd"/>
		<path id="Vector" d="M42.416 24.0526L43.9189 24.3795L43.5918 25.8826L42.0889 25.5557L42.416 24.0526Z" fill="#876400" fill-opacity="1.000000" fill-rule="evenodd"/>
		<path id="Vector" d="M41.7617 27.0587L43.2646 27.3856L42.9375 28.8887L41.4346 28.5618L41.7617 27.0587Z" fill="#876400" fill-opacity="1.000000" fill-rule="evenodd"/>
		<path id="Vector" d="M41.1084 30.0648L42.6113 30.3917L42.2842 31.8948L40.7812 31.5679L41.1084 30.0648Z" fill="#876400" fill-opacity="1.000000" fill-rule="evenodd"/>
		<path id="Vector" d="M39.1465 39.0831L40.6494 39.41L40.3223 40.9131L38.8193 40.5862L39.1465 39.0831Z" fill="#876400" fill-opacity="1.000000" fill-rule="evenodd"/>
		<path id="Vector" d="M38.4932 42.0894L39.9961 42.4163L39.6689 43.9193L38.166 43.5924L38.4932 42.0894Z" fill="#876400" fill-opacity="1.000000" fill-rule="evenodd"/>
		<path id="Vector" d="M37.8389 45.0955L39.3418 45.4224L39.0146 46.9254L37.5117 46.5985L37.8389 45.0955Z" fill="#876400" fill-opacity="1.000000" fill-rule="evenodd"/>
		<path id="Vector" d="M45.8799 15.3611L47.3828 15.688L47.0557 17.191L45.5527 16.8641L45.8799 15.3611Z" fill="#876400" fill-opacity="1.000000" fill-rule="evenodd"/>
		<path id="Vector" d="M43.9189 24.3795L45.4219 24.7064L45.0947 26.2095L43.5918 25.8826L43.9189 24.3795Z" fill="#876400" fill-opacity="1.000000" fill-rule="evenodd"/>
		<path id="Vector" d="M42.6113 30.3917L44.1143 30.7186L43.7871 32.2217L42.2842 31.8948L42.6113 30.3917Z" fill="#876400" fill-opacity="1.000000" fill-rule="evenodd"/>
		<path id="Vector" d="M41.957 33.3978L43.46 33.7247L43.1328 35.2278L41.6299 34.9009L41.957 33.3978Z" fill="#876400" fill-opacity="1.000000" fill-rule="evenodd"/>
		<path id="Vector" d="M41.3037 36.4039L42.8066 36.7308L42.4795 38.2339L40.9766 37.907L41.3037 36.4039Z" fill="#876400" fill-opacity="1.000000" fill-rule="evenodd"/>
		<path id="Vector" d="M40.6494 39.41L42.1523 39.7369L41.8252 41.24L40.3223 40.9131L40.6494 39.41Z" fill="#876400" fill-opacity="1.000000" fill-rule="evenodd"/>
		<path id="Vector" d="M39.3418 45.4224L40.8447 45.7493L40.5176 47.2523L39.0146 46.9254L39.3418 45.4224Z" fill="#876400" fill-opacity="1.000000" fill-rule="evenodd"/>
		<path id="Vector" d="M39.0156 46.9254L40.5186 47.2523L40.1914 48.7554L38.6885 48.4285L39.0156 46.9254Z" fill="#876400" fill-opacity="1.000000" fill-rule="evenodd"/>
		<path id="Vector" d="M38.6885 48.4285L40.1914 48.7554L39.8643 50.2584L38.3613 49.9315L38.6885 48.4285Z" fill="#876400" fill-opacity="1.000000" fill-rule="evenodd"/>
		<path id="Vector" d="M38.3613 49.9315L39.8643 50.2584L39.5371 51.7615L38.0342 51.4346L38.3613 49.9315Z" fill="#876400" fill-opacity="1.000000" fill-rule="evenodd"/>
		<path id="Vector" d="M38.0342 51.4346L39.5371 51.7615L39.21 53.2645L37.707 52.9376L38.0342 51.4346Z" fill="#876400" fill-opacity="1.000000" fill-rule="evenodd"/>
		<path id="Vector" d="M47.3838 15.688L48.8867 16.0149L48.5596 17.5179L47.0566 17.191L47.3838 15.688Z" fill="#876400" fill-opacity="1.000000" fill-rule="evenodd"/>
		<path id="Vector" d="M46.7295 18.6941L48.2324 19.021L47.9053 20.524L46.4023 20.1971L46.7295 18.6941Z" fill="#876400" fill-opacity="1.000000" fill-rule="evenodd"/>
		<path id="Vector" d="M46.4023 20.1973L47.9053 20.5242L47.5781 22.0272L46.0752 21.7003L46.4023 20.1973Z" fill="#876400" fill-opacity="1.000000" fill-rule="evenodd"/>
		<path id="Vector" d="M46.0752 21.7002L47.5781 22.0271L47.251 23.5302L45.748 23.2032L46.0752 21.7002Z" fill="#876400" fill-opacity="1.000000" fill-rule="evenodd"/>
		<path id="Vector" d="M45.4219 24.7064L46.9248 25.0333L46.5977 26.5364L45.0947 26.2095L45.4219 24.7064Z" fill="#876400" fill-opacity="1.000000" fill-rule="evenodd"/>
		<path id="Vector" d="M44.7686 27.7125L46.2715 28.0394L45.9443 29.5425L44.4414 29.2156L44.7686 27.7125Z" fill="#876400" fill-opacity="1.000000" fill-rule="evenodd"/>
		<path id="Vector" d="M44.4414 29.2156L45.9443 29.5425L45.6172 31.0455L44.1143 30.7186L44.4414 29.2156Z" fill="#876400" fill-opacity="1.000000" fill-rule="evenodd"/>
		<path id="Vector" d="M43.7871 32.2217L45.29 32.5486L44.9629 34.0516L43.46 33.7247L43.7871 32.2217Z" fill="#876400" fill-opacity="1.000000" fill-rule="evenodd"/>
		<path id="Vector" d="M43.1338 35.2278L44.6367 35.5547L44.3096 37.0577L42.8066 36.7308L43.1338 35.2278Z" fill="#876400" fill-opacity="1.000000" fill-rule="evenodd"/>
		<path id="Vector" d="M42.8066 36.7308L44.3096 37.0577L43.9824 38.5608L42.4795 38.2339L42.8066 36.7308Z" fill="#876400" fill-opacity="1.000000" fill-rule="evenodd"/>
		<path id="Vector" d="M42.1533 39.7371L43.6562 40.064L43.3291 41.567L41.8262 41.2401L42.1533 39.7371Z" fill="#876400" fill-opacity="1.000000" fill-rule="evenodd"/>
		<path id="Vector" d="M41.8262 41.2401L43.3291 41.567L43.002 43.0701L41.499 42.7432L41.8262 41.2401Z" fill="#876400" fill-opacity="1.000000" fill-rule="evenodd"/>
		<path id="Vector" d="M41.499 42.7432L43.002 43.0701L42.6748 44.5731L41.1719 44.2462L41.499 42.7432Z" fill="#876400" fill-opacity="1.000000" fill-rule="evenodd"/>
		<path id="Vector" d="M41.1719 44.2462L42.6748 44.5731L42.3477 46.0762L40.8447 45.7493L41.1719 44.2462Z" fill="#876400" fill-opacity="1.000000" fill-rule="evenodd"/>
		<path id="Vector" d="M40.8447 45.7493L42.3477 46.0762L42.0205 47.5792L40.5176 47.2523L40.8447 45.7493Z" fill="#876400" fill-opacity="1.000000" fill-rule="evenodd"/>
		<path id="Vector" d="M40.5186 47.2523L42.0215 47.5792L41.6943 49.0823L40.1914 48.7554L40.5186 47.2523Z" fill="#876400" fill-opacity="1.000000" fill-rule="evenodd"/>
		<path id="Vector" d="M40.1914 48.7554L41.6943 49.0823L41.3672 50.5853L39.8643 50.2584L40.1914 48.7554Z" fill="#876400" fill-opacity="1.000000" fill-rule="evenodd"/>
		<path id="Vector" d="M39.5381 51.7615L41.041 52.0884L40.7139 53.5914L39.2109 53.2645L39.5381 51.7615Z" fill="#876400" fill-opacity="1.000000" fill-rule="evenodd"/>
		<path id="Vector" d="M48.8867 16.0149L50.3896 16.3418L50.0625 17.8448L48.5596 17.5179L48.8867 16.0149Z" fill="#876400" fill-opacity="1.000000" fill-rule="evenodd"/>
		<path id="Vector" d="M48.2324 19.021L49.7354 19.3479L49.4082 20.851L47.9053 20.524L48.2324 19.021Z" fill="#876400" fill-opacity="1.000000" fill-rule="evenodd"/>
		<path id="Vector" d="M47.9053 20.5242L49.4082 20.8511L49.0811 22.3541L47.5781 22.0272L47.9053 20.5242Z" fill="#876400" fill-opacity="1.000000" fill-rule="evenodd"/>
		<path id="Vector" d="M47.5791 22.0271L49.082 22.354L48.7549 23.8571L47.252 23.5302L47.5791 22.0271Z" fill="#876400" fill-opacity="1.000000" fill-rule="evenodd"/>
		<path id="Vector" d="M46.9248 25.0333L48.4277 25.3602L48.1006 26.8633L46.5977 26.5364L46.9248 25.0333Z" fill="#876400" fill-opacity="1.000000" fill-rule="evenodd"/>
		<path id="Vector" d="M44.9639 34.0516L46.4668 34.3785L46.1396 35.8816L44.6367 35.5547L44.9639 34.0516Z" fill="#876400" fill-opacity="1.000000" fill-rule="evenodd"/>
		<path id="Vector" d="M43.9824 38.5608L45.4854 38.8877L45.1582 40.3907L43.6553 40.0638L43.9824 38.5608Z" fill="#876400" fill-opacity="1.000000" fill-rule="evenodd"/>
		<path id="Vector" d="M43.3291 41.5669L44.832 41.8938L44.5049 43.3969L43.002 43.0699L43.3291 41.5669Z" fill="#876400" fill-opacity="1.000000" fill-rule="evenodd"/>
		<path id="Vector" d="M43.002 43.0701L44.5049 43.397L44.1777 44.9L42.6748 44.5731L43.002 43.0701Z" fill="#876400" fill-opacity="1.000000" fill-rule="evenodd"/>
		<path id="Vector" d="M42.6748 44.5731L44.1777 44.9L43.8506 46.4031L42.3477 46.0762L42.6748 44.5731Z" fill="#876400" fill-opacity="1.000000" fill-rule="evenodd"/>
		<path id="Vector" d="M41.6943 49.0823L43.1973 49.4092L42.8701 50.9122L41.3672 50.5853L41.6943 49.0823Z" fill="#876400" fill-opacity="1.000000" fill-rule="evenodd"/>
		<path id="Vector" d="M41.3672 50.5853L42.8701 50.9122L42.543 52.4153L41.04 52.0884L41.3672 50.5853Z" fill="#876400" fill-opacity="1.000000" fill-rule="evenodd"/>
		<path id="Vector" d="M41.041 52.0884L42.5439 52.4153L42.2168 53.9183L40.7139 53.5914L41.041 52.0884Z" fill="#876400" fill-opacity="1.000000" fill-rule="evenodd"/>
		<path id="Vector" d="M50.3896 16.3418L51.8926 16.6687L51.5654 18.1718L50.0625 17.8448L50.3896 16.3418Z" fill="#876400" fill-opacity="1.000000" fill-rule="evenodd"/>
		<path id="Vector" d="M49.7354 19.3479L51.2383 19.6748L50.9111 21.1779L49.4082 20.851L49.7354 19.3479Z" fill="#876400" fill-opacity="1.000000" fill-rule="evenodd"/>
		<path id="Vector" d="M49.4092 20.8511L50.9121 21.178L50.585 22.681L49.082 22.3541L49.4092 20.8511Z" fill="#876400" fill-opacity="1.000000" fill-rule="evenodd"/>
		<path id="Vector" d="M49.082 22.3541L50.585 22.681L50.2578 24.1841L48.7549 23.8572L49.082 22.3541Z" fill="#876400" fill-opacity="1.000000" fill-rule="evenodd"/>
		<path id="Vector" d="M48.4277 25.3602L49.9307 25.6871L49.6035 27.1902L48.1006 26.8633L48.4277 25.3602Z" fill="#876400" fill-opacity="1.000000" fill-rule="evenodd"/>
		<path id="Vector" d="M47.4473 29.8694L48.9502 30.1963L48.623 31.6993L47.1201 31.3724L47.4473 29.8694Z" fill="#876400" fill-opacity="1.000000" fill-rule="evenodd"/>
		<path id="Vector" d="M47.1201 31.3724L48.623 31.6993L48.2959 33.2024L46.793 32.8755L47.1201 31.3724Z" fill="#876400" fill-opacity="1.000000" fill-rule="evenodd"/>
		<path id="Vector" d="M46.7939 32.8755L48.2969 33.2024L47.9697 34.7054L46.4668 34.3785L46.7939 32.8755Z" fill="#876400" fill-opacity="1.000000" fill-rule="evenodd"/>
		<path id="Vector" d="M46.4668 34.3785L47.9697 34.7054L47.6426 36.2085L46.1396 35.8816L46.4668 34.3785Z" fill="#876400" fill-opacity="1.000000" fill-rule="evenodd"/>
		<path id="Vector" d="M46.1396 35.8816L47.6426 36.2085L47.3154 37.7115L45.8125 37.3846L46.1396 35.8816Z" fill="#876400" fill-opacity="1.000000" fill-rule="evenodd"/>
		<path id="Vector" d="M45.8125 37.3846L47.3154 37.7115L46.9883 39.2146L45.4854 38.8877L45.8125 37.3846Z" fill="#876400" fill-opacity="1.000000" fill-rule="evenodd"/>
		<path id="Vector" d="M45.4854 38.8877L46.9883 39.2146L46.6611 40.7177L45.1582 40.3907L45.4854 38.8877Z" fill="#876400" fill-opacity="1.000000" fill-rule="evenodd"/>
		<path id="Vector" d="M44.5049 43.397L46.0078 43.7239L45.6807 45.2269L44.1777 44.9L44.5049 43.397Z" fill="#876400" fill-opacity="1.000000" fill-rule="evenodd"/>
		<path id="Vector" d="M43.5244 47.9061L45.0273 48.233L44.7002 49.7361L43.1973 49.4092L43.5244 47.9061Z" fill="#876400" fill-opacity="1.000000" fill-rule="evenodd"/>
		<path id="Vector" d="M42.8701 50.9122L44.373 51.2391L44.0459 52.7422L42.543 52.4153L42.8701 50.9122Z" fill="#876400" fill-opacity="1.000000" fill-rule="evenodd"/>
		<path id="Vector" d="M51.8926 16.6687L53.3955 16.9956L53.0684 18.4987L51.5654 18.1718L51.8926 16.6687Z" fill="#876400" fill-opacity="1.000000" fill-rule="evenodd"/>
		<path id="Vector" d="M49.9307 25.6871L51.4336 26.014L51.1064 27.5171L49.6035 27.1902L49.9307 25.6871Z" fill="#876400" fill-opacity="1.000000" fill-rule="evenodd"/>
		<path id="Vector" d="M48.2969 33.2024L49.7998 33.5293L49.4727 35.0323L47.9697 34.7054L48.2969 33.2024Z" fill="#876400" fill-opacity="1.000000" fill-rule="evenodd"/>
		<path id="Vector" d="M47.6426 36.2085L49.1455 36.5354L48.8184 38.0385L47.3154 37.7115L47.6426 36.2085Z" fill="#876400" fill-opacity="1.000000" fill-rule="evenodd"/>
		<path id="Vector" d="M45.6816 45.2269L47.1846 45.5538L46.8574 47.0569L45.3545 46.73L45.6816 45.2269Z" fill="#876400" fill-opacity="1.000000" fill-rule="evenodd"/>
		<path id="Vector" d="M45.3545 46.73L46.8574 47.0569L46.5303 48.5599L45.0273 48.233L45.3545 46.73Z" fill="#876400" fill-opacity="1.000000" fill-rule="evenodd"/>
		<path id="Vector" d="M45.0273 48.233L46.5303 48.5599L46.2031 50.063L44.7002 49.7361L45.0273 48.233Z" fill="#876400" fill-opacity="1.000000" fill-rule="evenodd"/>
		<path id="Vector" d="M44.7002 49.7361L46.2031 50.063L45.876 51.566L44.373 51.2391L44.7002 49.7361Z" fill="#876400" fill-opacity="1.000000" fill-rule="evenodd"/>
		<path id="Vector" d="M44.374 51.2391L45.877 51.566L45.5498 53.0691L44.0469 52.7422L44.374 51.2391Z" fill="#876400" fill-opacity="1.000000" fill-rule="evenodd"/>
		<path id="Vector" d="M53.3955 16.9956L54.8984 17.3225L54.5713 18.8256L53.0684 18.4987L53.3955 16.9956Z" fill="#876400" fill-opacity="1.000000" fill-rule="evenodd"/>
		<path id="Vector" d="M53.0684 18.4988L54.5713 18.8257L54.2441 20.3287L52.7412 20.0018L53.0684 18.4988Z" fill="#876400" fill-opacity="1.000000" fill-rule="evenodd"/>
		<path id="Vector" d="M52.7422 20.0017L54.2451 20.3286L53.918 21.8317L52.415 21.5048L52.7422 20.0017Z" fill="#876400" fill-opacity="1.000000" fill-rule="evenodd"/>
		<path id="Vector" d="M52.415 21.5049L53.918 21.8318L53.5908 23.3348L52.0879 23.0079L52.415 21.5049Z" fill="#876400" fill-opacity="1.000000" fill-rule="evenodd"/>
		<path id="Vector" d="M52.0879 23.0079L53.5908 23.3348L53.2637 24.8379L51.7607 24.511L52.0879 23.0079Z" fill="#876400" fill-opacity="1.000000" fill-rule="evenodd"/>
		<path id="Vector" d="M51.7607 24.511L53.2637 24.8379L52.9365 26.3409L51.4336 26.014L51.7607 24.511Z" fill="#876400" fill-opacity="1.000000" fill-rule="evenodd"/>
		<path id="Vector" d="M51.4346 26.014L52.9375 26.3409L52.6104 27.844L51.1074 27.5171L51.4346 26.014Z" fill="#876400" fill-opacity="1.000000" fill-rule="evenodd"/>
		<path id="Vector" d="M50.7803 29.0201L52.2832 29.347L51.9561 30.8501L50.4531 30.5232L50.7803 29.0201Z" fill="#876400" fill-opacity="1.000000" fill-rule="evenodd"/>
		<path id="Vector" d="M50.126 32.0262L51.6289 32.3531L51.3018 33.8562L49.7988 33.5293L50.126 32.0262Z" fill="#876400" fill-opacity="1.000000" fill-rule="evenodd"/>
		<path id="Vector" d="M49.4727 35.0323L50.9756 35.3593L50.6484 36.8623L49.1455 36.5354L49.4727 35.0323Z" fill="#876400" fill-opacity="1.000000" fill-rule="evenodd"/>
		<path id="Vector" d="M49.1455 36.5354L50.6484 36.8623L50.3213 38.3654L48.8184 38.0385L49.1455 36.5354Z" fill="#876400" fill-opacity="1.000000" fill-rule="evenodd"/>
		<path id="Vector" d="M48.4922 39.5415L49.9951 39.8684L49.668 41.3715L48.165 41.0446L48.4922 39.5415Z" fill="#876400" fill-opacity="1.000000" fill-rule="evenodd"/>
		<path id="Vector" d="M47.5107 44.0508L49.0137 44.3777L48.6865 45.8807L47.1836 45.5538L47.5107 44.0508Z" fill="#876400" fill-opacity="1.000000" fill-rule="evenodd"/>
		<path id="Vector" d="M46.2041 50.063L47.707 50.3899L47.3799 51.8929L45.877 51.566L46.2041 50.063Z" fill="#876400" fill-opacity="1.000000" fill-rule="evenodd"/>
		<path id="Vector" d="M45.877 51.566L47.3799 51.8929L47.0527 53.396L45.5498 53.0691L45.877 51.566Z" fill="#876400" fill-opacity="1.000000" fill-rule="evenodd"/>
		<path id="Vector" d="M45.5498 53.0691L47.0527 53.396L46.7256 54.899L45.2227 54.5721L45.5498 53.0691Z" fill="#876400" fill-opacity="1.000000" fill-rule="evenodd"/>
	</g>
</svg>
