<svg width="245.004211" height="244.998047" viewBox="0 0 245.004 244.998" fill="none" xmlns="http://www.w3.org/2000/svg" xmlns:xlink="http://www.w3.org/1999/xlink">
	<desc>
			Created with Pixso.
	</desc>
	<defs/>
	<path id="Vector" d="M147.091 175.416L131.394 175.416C130.966 175.413 130.547 175.29 130.185 175.06C129.824 174.831 129.535 174.503 129.351 174.116L118.129 150.146C116.697 147.119 114.437 144.561 111.611 142.765C108.785 140.97 105.508 140.011 102.16 140L52.6353 140C49.2849 140.011 46.0061 140.97 43.1784 142.767C40.3508 144.564 38.09 147.125 36.6578 150.154L25.449 174.103C25.2658 174.494 24.9753 174.825 24.6113 175.058C24.2472 175.29 23.8246 175.414 23.3928 175.416L17.6616 175.416C12.9811 175.419 8.49316 177.279 5.18274 180.588C1.87231 183.897 0.00982666 188.384 0.00402832 193.064L0.00402832 217.389C0.00634766 220.31 1.16711 223.11 3.23163 225.175C5.29614 227.24 8.0957 228.402 11.0159 228.406L20.3915 228.406C21.3911 233.101 23.972 237.31 27.7029 240.33C31.4337 243.35 36.0883 244.998 40.8884 244.998C45.6885 244.998 50.3431 243.35 54.0739 240.33C57.8047 237.31 60.3857 233.101 61.3853 228.406L103.368 228.406C104.409 233.065 107.006 237.23 110.732 240.215C114.457 243.2 119.089 244.827 123.862 244.827C128.636 244.827 133.268 243.2 136.993 240.215C140.719 237.23 143.316 233.065 144.357 228.406L153.733 228.406C156.653 228.402 159.453 227.24 161.517 225.175C163.582 223.11 164.742 220.31 164.745 217.389L164.745 193.064C164.739 188.385 162.878 183.9 159.569 180.591C156.261 177.283 151.77 175.421 147.091 175.416ZM40.8928 236.25C37.652 236.25 34.5439 234.963 32.2524 232.671C29.9608 230.379 28.6734 227.271 28.6734 224.031C28.6734 220.79 29.9608 217.682 32.2524 215.39C34.5439 213.099 37.652 211.811 40.8928 211.811C44.1335 211.811 47.2416 213.099 49.5332 215.39C51.8248 217.682 53.1122 220.79 53.1122 224.031C53.1122 227.271 51.8248 230.379 49.5332 232.671C47.2416 234.963 44.1335 236.25 40.8928 236.25ZM123.869 236.25C120.628 236.25 117.52 234.963 115.229 232.671C112.937 230.379 111.65 227.271 111.65 224.031C111.65 220.79 112.937 217.682 115.229 215.39C117.52 213.099 120.628 211.811 123.869 211.811C127.11 211.811 130.218 213.099 132.509 215.39C134.801 217.682 136.088 220.79 136.088 224.031C136.088 227.271 134.801 230.379 132.509 232.671C130.218 234.963 127.11 236.25 123.869 236.25ZM155.999 217.394C155.99 217.991 155.749 218.561 155.327 218.983C154.904 219.405 154.334 219.646 153.737 219.656L144.362 219.656C143.322 214.994 140.726 210.827 136.999 207.84C133.273 204.853 128.64 203.225 123.865 203.225C119.089 203.225 114.456 204.853 110.73 207.84C107.004 210.827 104.407 214.994 103.368 219.656L61.3853 219.656C60.3444 214.997 57.747 210.831 54.0215 207.846C50.2959 204.861 45.6645 203.235 40.8906 203.235C36.1167 203.235 31.4853 204.861 27.7597 207.846C24.0342 210.831 21.4368 214.997 20.3959 219.656L11.0159 219.656C10.4177 219.648 9.84637 219.406 9.42377 218.983C9.00116 218.559 8.7608 217.988 8.75403 217.389L8.75403 193.064C8.75635 190.704 9.69525 188.441 11.3645 186.773C13.0338 185.104 15.297 184.167 17.6572 184.166L23.3972 184.166C25.4886 184.158 27.5353 183.559 29.2999 182.436C31.0646 181.313 32.475 179.713 33.3678 177.822L44.5809 153.873C45.3033 152.346 46.4429 151.055 47.8682 150.148C49.2935 149.242 50.9462 148.757 52.6353 148.75L102.16 148.75C103.848 148.757 105.499 149.24 106.924 150.145C108.348 151.05 109.487 152.339 110.21 153.864L120.299 175.416L76.7722 175.416C76.3421 175.413 75.9216 175.289 75.5591 175.058C75.1968 174.826 74.9074 174.497 74.7247 174.107L68.3372 160.458C67.8329 159.427 66.9439 158.636 65.8619 158.254C64.7798 157.873 63.5912 157.932 62.5521 158.418C61.5131 158.905 60.7067 159.78 60.3068 160.855C59.9069 161.931 59.9454 163.12 60.414 164.167L66.8015 177.817C67.6934 179.71 69.1042 181.312 70.8699 182.435C72.6357 183.558 74.684 184.156 76.7766 184.161L128.708 184.161C130.48 183.995 144.961 184.271 147.096 184.161C149.456 184.164 151.719 185.103 153.387 186.772C155.056 188.441 155.993 190.704 155.995 193.064L155.999 217.394ZM208.066 0C198.273 0.0114746 188.884 3.90698 181.959 10.8318C175.035 17.7563 171.139 27.145 171.128 36.9382C171.128 57.9031 192.377 83.3875 201.517 93.3669C202.353 94.2676 203.367 94.9863 204.493 95.4775C205.62 95.969 206.837 96.2227 208.066 96.2227C209.295 96.2227 210.511 95.969 211.638 95.4775C212.765 94.9863 213.779 94.2676 214.615 93.3669C223.755 83.3875 245.004 57.9031 245.004 36.9382C244.992 27.145 241.097 17.7563 234.172 10.8318C227.248 3.90698 217.859 0.0114746 208.066 0ZM207.97 87.4607C201.381 80.2593 179.878 55.3394 179.878 36.9382C179.878 29.4622 182.848 22.2925 188.134 17.0061C193.42 11.7197 200.59 8.75 208.066 8.75C215.542 8.75 222.712 11.7197 227.998 17.0061C233.284 22.2925 236.254 29.4622 236.254 36.9382C236.254 55.3394 214.751 80.2593 207.97 87.4607Z" fill="#91824C" fill-opacity="1.000000" fill-rule="nonzero"/>
	<path id="Vector" d="M208.066 19.438C203.425 19.438 198.974 21.2817 195.692 24.5637C192.41 27.8455 190.566 32.2966 190.566 36.938C190.566 41.5793 192.41 46.0305 195.692 49.3123C198.974 52.5942 203.425 54.438 208.066 54.438C212.707 54.438 217.159 52.5942 220.44 49.3123C223.722 46.0305 225.566 41.5793 225.566 36.938C225.566 32.2966 223.722 27.8455 220.44 24.5637C217.159 21.2817 212.707 19.438 208.066 19.438ZM208.066 45.688C205.745 45.688 203.52 44.7661 201.879 43.1252C200.238 41.4841 199.316 39.2585 199.316 36.938C199.316 34.6174 200.238 32.3918 201.879 30.7507C203.52 29.1099 205.745 28.188 208.066 28.188C210.387 28.188 212.612 29.1099 214.253 30.7507C215.894 32.3918 216.816 34.6174 216.816 36.938C216.816 39.2585 215.894 41.4841 214.253 43.1252C212.612 44.7661 210.387 45.688 208.066 45.688ZM157.985 32.5498L136.11 32.5498C134.95 32.5498 133.837 33.0107 133.017 33.8313C132.196 34.6519 131.735 35.7646 131.735 36.9248C131.735 38.0852 132.196 39.198 133.017 40.0186C133.837 40.8389 134.95 41.2998 136.11 41.2998L157.985 41.2998C159.146 41.2998 160.259 40.8389 161.079 40.0186C161.9 39.198 162.36 38.0852 162.36 36.9248C162.36 35.7646 161.9 34.6519 161.079 33.8313C160.259 33.0107 159.146 32.5498 157.985 32.5498ZM150.023 118.125C150.023 119.285 150.484 120.398 151.304 121.219C152.125 122.039 153.238 122.5 154.398 122.5L176.273 122.5C177.433 122.5 178.546 122.039 179.367 121.219C180.187 120.398 180.648 119.285 180.648 118.125C180.648 116.965 180.187 115.852 179.367 115.031C178.546 114.211 177.433 113.75 176.273 113.75L154.398 113.75C153.238 113.75 152.125 114.211 151.304 115.031C150.484 115.852 150.023 116.965 150.023 118.125ZM20.4355 110.149C16.0605 118.855 39.2086 122.701 45.0229 122.5C46.1833 122.494 47.2938 122.028 48.1102 121.203C48.9265 120.378 49.3819 119.263 49.3761 118.103C49.3703 116.943 48.9038 115.832 48.0792 115.016C47.2546 114.199 46.1395 113.744 44.9792 113.75C38.4507 113.748 32.0442 111.981 26.438 108.635C25.4409 108.042 24.249 107.868 23.1238 108.152C21.9987 108.436 21.0319 109.154 20.4355 110.149ZM216.908 127.444C217.918 128.013 219.113 128.159 220.23 127.85C221.348 127.541 222.297 126.802 222.871 125.794C227.049 117.075 203.905 113.623 198.152 113.75C197.578 113.75 197.009 113.863 196.478 114.082C195.947 114.302 195.465 114.624 195.058 115.03C194.652 115.436 194.329 115.918 194.109 116.449C193.889 116.979 193.775 117.548 193.775 118.123C193.775 118.697 193.888 119.266 194.107 119.797C194.327 120.328 194.649 120.811 195.055 121.217C195.461 121.623 195.943 121.946 196.474 122.166C197.005 122.386 197.573 122.5 198.148 122.5C204.722 122.507 211.184 124.21 216.908 127.444ZM237.742 176.697C237.234 176.426 236.679 176.258 236.106 176.202C235.534 176.146 234.956 176.204 234.406 176.373C233.856 176.541 233.344 176.816 232.901 177.183C232.458 177.55 232.091 178 231.822 178.509C230.038 181.869 227.758 184.941 225.059 187.622C222.399 191.227 214.226 193.226 217.341 198.822C221.681 204.361 227.701 196.735 231.245 193.808C234.39 189.976 244.361 180.963 237.742 176.697ZM232.299 134.986C231.306 135.585 230.592 136.554 230.313 137.679C230.034 138.805 230.214 139.995 230.812 140.989C234.194 146.623 236.063 153.035 236.237 159.604C236.267 160.765 236.757 161.865 237.599 162.665C238.44 163.464 239.565 163.896 240.725 163.865C241.886 163.835 242.987 163.345 243.786 162.504C244.585 161.662 245.017 160.537 244.987 159.377C244.974 153.654 240.905 130.567 232.299 134.986ZM25.4405 37.0081C20.2867 39.1956 0.874878 53.0293 8.66675 58.8218C9.14612 59.1387 9.68329 59.3582 10.2475 59.4675C10.8118 59.5769 11.392 59.574 11.9551 59.459C12.5182 59.344 13.0532 59.1191 13.5294 58.7974C14.0056 58.4756 14.4137 58.0632 14.7305 57.5837C18.3381 52.1218 23.3533 47.7356 29.2467 44.8875C30.2916 44.3826 31.0931 43.4834 31.4751 42.3877C31.857 41.292 31.788 40.0894 31.2833 39.0444C30.7786 37.9998 29.8794 37.198 28.7837 36.8162C27.6879 36.4343 26.4854 36.5032 25.4405 37.0081ZM0.0479736 75.5342C-0.415771 81.2568 2.41925 104.641 11.3223 100.634C11.8281 100.36 12.2751 99.99 12.6377 99.5439C13.0003 99.0979 13.2715 98.5847 13.4356 98.0337C13.5997 97.4827 13.6537 96.9048 13.5944 96.333C13.535 95.7612 13.3636 95.2065 13.0898 94.7012C10.2456 89.429 8.7558 83.5327 8.75421 77.5425C10.1498 70.8923 1.0542 68.696 0.0479736 75.5342ZM200.2 198.752C199.513 198.791 198.804 198.791 198.1 198.8L178.565 198.8C177.405 198.8 176.292 199.261 175.472 200.081C174.651 200.902 174.19 202.015 174.19 203.175C174.19 204.335 174.651 205.448 175.472 206.269C176.292 207.089 177.405 207.55 178.565 207.55C180.228 207.532 199.609 207.615 200.681 207.484C201.814 207.386 202.864 206.852 203.609 205.993C204.354 205.135 204.735 204.02 204.673 202.885C204.61 201.75 204.108 200.684 203.273 199.912C202.439 199.141 201.336 198.725 200.2 198.752ZM62.5229 118.125C62.5229 119.285 62.9839 120.398 63.8044 121.219C64.6248 122.039 65.7377 122.5 66.8979 122.5L88.7729 122.5C89.9333 122.5 91.0461 122.039 91.8666 121.219C92.687 120.398 93.1479 119.285 93.1479 118.125C93.1479 116.965 92.687 115.852 91.8666 115.031C91.0461 114.211 89.9333 113.75 88.7729 113.75L66.8979 113.75C65.7377 113.75 64.6248 114.211 63.8044 115.031C62.9839 115.852 62.5229 116.965 62.5229 118.125ZM114.235 32.5498L92.3605 32.5498C91.2001 32.5498 90.0873 33.0107 89.2669 33.8313C88.4464 34.6519 87.9855 35.7646 87.9855 36.9248C87.9855 38.0852 88.4464 39.198 89.2669 40.0186C90.0873 40.8389 91.2001 41.2998 92.3605 41.2998L114.235 41.2998C115.396 41.2998 116.509 40.8389 117.329 40.0186C118.15 39.198 118.61 38.0852 118.61 36.9248C118.61 35.7646 118.15 34.6519 117.329 33.8313C116.509 33.0107 115.396 32.5498 114.235 32.5498ZM106.273 118.125C106.273 119.285 106.734 120.398 107.554 121.219C108.375 122.039 109.488 122.5 110.648 122.5L132.523 122.5C133.683 122.5 134.796 122.039 135.617 121.219C136.437 120.398 136.898 119.285 136.898 118.125C136.898 116.965 136.437 115.852 135.617 115.031C134.796 114.211 133.683 113.75 132.523 113.75L110.648 113.75C109.488 113.75 108.375 114.211 107.554 115.031C106.734 115.852 106.273 116.965 106.273 118.125ZM70.4855 32.5498L48.6105 32.5498C47.4501 32.5498 46.3373 33.0107 45.5169 33.8313C44.6964 34.6519 44.2355 35.7646 44.2355 36.9248C44.2355 38.0852 44.6964 39.198 45.5169 40.0186C46.3373 40.8389 47.4501 41.2998 48.6105 41.2998L70.4855 41.2998C71.6458 41.2998 72.7586 40.8389 73.579 40.0186C74.3995 39.198 74.8605 38.0852 74.8605 36.9248C74.8605 35.7646 74.3995 34.6519 73.579 33.8313C72.7586 33.0107 71.6458 32.5498 70.4855 32.5498Z" fill="#91824C" fill-opacity="1.000000" fill-rule="nonzero"/>
</svg>
