<svg width="32.000000" height="32.000000" viewBox="0 0 32 32" fill="none" xmlns="http://www.w3.org/2000/svg" xmlns:xlink="http://www.w3.org/1999/xlink">
	<desc>
			Created with Pixso.
	</desc>
	<defs/>
	<circle id="Ellipse 4" cx="16.000000" cy="16.000000" r="15.500000" stroke="#464646" stroke-opacity="1.000000" stroke-width="1.000000"/>
	<path id="Vector" d="M23.9697 12.1709L18.3574 17.7829C17.7314 18.407 16.8838 18.7575 16 18.7575C15.1162 18.7575 14.2686 18.407 13.6426 17.7829L8.03027 12.1709C8.02148 12.2762 8 12.3715 8 12.4762L8 20.4762C8.00098 21.3599 8.35254 22.2072 8.97754 22.832C9.60254 23.4569 10.4492 23.8085 11.333 23.8095L20.667 23.8095C21.5508 23.8085 22.3975 23.4569 23.0225 22.832C23.6475 22.2072 23.999 21.3599 24 20.4762L24 12.4762C24 12.3715 23.9785 12.2762 23.9697 12.1709Z" fill="#464646" fill-opacity="1.000000" fill-rule="evenodd"/>
	<path id="Vector" d="M17.415 16.8402L23.5039 10.7502C23.209 10.2611 22.793 9.85622 22.2959 9.57468C21.7988 9.29314 21.2383 9.14442 20.667 9.14286L11.333 9.14286C10.7627 9.14442 10.2012 9.29314 9.7041 9.57468C9.20703 9.85622 8.79102 10.2611 8.49609 10.7502L14.585 16.8402C14.9609 17.2144 15.4697 17.4245 16 17.4245C16.5303 17.4245 17.0391 17.2144 17.415 16.8402Z" fill="#464646" fill-opacity="1.000000" fill-rule="evenodd"/>
</svg>
