<svg width="218.000000" height="100.000000" viewBox="0 0 218 100" fill="none" xmlns="http://www.w3.org/2000/svg" xmlns:xlink="http://www.w3.org/1999/xlink">
	<desc>
			Created with Pixso.
	</desc>
	<defs/>
	<path id="Vector" d="M141.354 5.62054L141.354 0L118.752 0L118.752 30.8599L141.354 30.8599L141.354 25.7696L125.041 25.7696L125.041 17.3918L139.327 17.3918L139.327 11.8773L125.041 11.8773L125.041 5.62054L141.354 5.62054ZM135.064 34.0413L135.064 45.9186L122.696 45.9186L122.696 34.0413L116.303 34.0413L116.303 64.7966L122.696 64.7966L122.696 51.0089L135.064 51.0089L135.064 64.7966L141.354 64.7966L141.354 34.0413L135.064 34.0413ZM141.354 73.4896L141.354 67.978L118.752 67.978L118.752 99.2592L141.354 99.2592L141.354 93.6416L125.041 93.6416L125.041 85.3683L139.327 85.3683L139.327 80.2795L125.041 80.2795L125.041 73.4896L141.354 73.4896ZM115.129 0L108.839 0L108.839 11.8773L96.4736 11.8773L96.4736 0L90.1841 0L90.1841 30.8599L96.4736 30.8599L96.4736 17.0737L108.839 17.0737L108.839 30.8599L115.129 30.8599L115.129 0ZM63.1074 0L63.1074 5.62054L72.7017 5.62054L72.7017 30.8599L78.9912 30.8599L78.9912 5.62054L88.5854 5.62054L88.5854 0L63.1074 0ZM43.2798 33.1929C33.3662 33.1929 28.1426 38.8135 28.1426 49.4182C28.1426 60.5532 33.3662 66.0677 43.2798 66.0677C53.1938 66.0677 58.3105 60.5532 58.3105 49.4182C58.3105 38.8135 53.1938 33.1929 43.2798 33.1929ZM34.9648 49.4182C34.9648 42.313 37.7368 38.8134 43.2798 38.8134C49.2495 38.8134 52.021 42.313 52.021 49.4182C52.021 56.9491 49.2495 60.5532 43.2798 60.5532C37.7368 60.5532 34.9648 56.9491 34.9648 49.4182ZM19.0815 34.0413L19.0815 55.7811L6.71582 34.0413L0 34.0413L0 64.7966L5.96973 64.7966L5.96973 43.1614L18.6553 64.7966L25.3711 64.7966L25.3711 34.0413L19.0815 34.0413ZM48.397 80.7023L48.397 73.4896L64.2803 73.4896L64.2803 67.978L42.1074 67.978L42.1074 99.2592L48.397 99.2592L48.397 86.2167L62.3613 86.2167L62.3613 80.7023L48.397 80.7023ZM113.958 39.5558L113.958 34.0413L88.5854 34.0413L88.5854 39.5558L98.0728 39.5558L98.0728 64.7966L104.469 64.7966L104.469 39.5558L113.958 39.5558ZM74.6206 53.0253C76.646 53.0253 78.2451 53.342 78.9912 54.1904L80.1636 64.7966L87.3062 64.7966L87.3062 64.0543C86.5596 63.6286 86.1333 61.7212 86.1333 58.1141C86.1333 53.7676 84.5342 51.4331 82.189 50.2666C85.3872 48.994 86.9863 46.6609 86.9863 42.7372C86.9863 37.2227 83.7881 34.0413 77.0723 34.0413L61.5088 34.0413L61.5088 64.7966L67.9048 64.7966L67.9048 53.0253L74.6206 53.0253ZM67.9048 47.8275L67.9048 39.5558L75.793 39.5558C78.9912 39.5558 80.5903 40.7223 80.5903 43.4796C80.5903 46.2368 78.9912 47.8275 75.4731 47.8275L67.9048 47.8275ZM78.9912 67.978L71.4224 67.978L60.3359 99.2592L67.0518 99.2592L69.5039 92.4736L81.0166 92.4736L82.9355 99.2592L89.7578 99.2592L78.9912 67.978ZM75.0469 75.0803L78.9912 87.3848L71.1025 87.3848L75.0469 75.0803ZM110.014 78.2617L116.303 78.2617C115.981 75.5059 115.129 73.1729 113.208 71.1565C110.438 68.8235 107.24 67.2327 102.87 67.2327C98.499 67.2327 95.3013 68.8235 92.5293 71.5822C90.1841 74.338 88.5854 78.2617 88.5854 83.4595C88.5854 94.4885 93.2759 100 102.443 100C110.438 100 114.808 96.0762 116.303 88.5483L110.014 88.5483C109.161 92.1525 106.388 94.0628 102.87 94.0628C97.6465 94.0628 95.3013 90.5647 95.3013 83.7762C95.3013 76.3543 97.6465 72.7472 102.87 72.7472C106.388 72.7472 108.415 74.7636 110.014 78.2617ZM31.021 98.8364C32.0869 98.8364 32.9395 98.4108 33.5806 97.882C34.1138 97.2457 34.5386 96.3973 34.5386 95.2323C34.5386 93.9583 34.1123 93.1099 33.5806 92.5796C32.9409 92.0508 32.0884 91.7312 31.021 91.7312L30.9141 91.7312C29.6348 91.7312 28.7822 92.0508 28.249 92.5796C27.7178 93.1084 27.3965 93.9583 27.3965 95.2323L27.3965 95.3354C27.3965 96.3973 27.7163 97.2457 28.249 97.882C28.7822 98.4108 29.6367 98.8364 30.9141 98.8364L31.021 98.8364ZM30.9141 99.6848C29.4219 99.6848 28.356 99.156 27.6094 98.4108C26.8633 97.6685 26.5435 96.6094 26.5435 95.3354L26.5435 95.2323C26.5435 93.7447 26.8633 92.6857 27.6094 91.9448C28.356 91.2025 29.4219 90.8829 30.9141 90.8829L31.021 90.8829C32.2998 90.8829 33.3662 91.2025 34.1123 91.9448C34.8584 92.6871 35.3916 93.7462 35.3916 95.2323C35.3916 96.6109 34.8584 97.6685 34.1123 98.4108C33.708 98.8168 33.2261 99.1385 32.6953 99.3573C32.1646 99.576 31.5952 99.6874 31.021 99.6848L30.9141 99.6848ZM31.3408 94.8066L31.4473 94.8066C31.8735 94.8066 32.0869 94.593 32.0869 94.0643L32.0869 93.9583C32.0869 93.9583 31.98 93.9583 31.98 93.8522C31.8735 93.7462 31.6606 93.7462 31.3408 93.7462L30.168 93.7462L30.168 94.8081L31.3408 94.8066ZM32.0869 95.549L32.9395 96.6109C33.0464 96.8215 32.9395 97.0336 32.833 97.1396C32.6196 97.3532 32.2998 97.2457 32.1934 97.1396L31.1274 95.655L30.168 95.655L30.168 96.8201C30.168 97.0336 29.9546 97.2457 29.7417 97.2457C29.5283 97.2457 29.3154 97.0322 29.3154 96.8201L29.3154 93.322C29.3154 93.1084 29.5283 92.8992 29.7417 92.8992L31.4473 92.8992C31.8735 92.8992 32.2998 93.0023 32.5132 93.2159C32.6196 93.322 32.7266 93.322 32.7266 93.4294C32.9395 93.6431 32.9395 93.8522 32.9395 94.0657C32.9395 94.9127 32.7266 95.3354 32.0869 95.549ZM145.723 0C165.552 0 182.714 7.21124 196.572 20.9974C210.856 35.2078 218 52.1755 218 72.0049L218 99.2592L189.004 99.2592L189.004 71.1565C189.004 60.1305 185.061 50.5847 177.065 42.7372C175.145 40.7223 173.121 39.1316 170.776 37.5409C164.38 33.1929 156.811 31.2841 148.923 31.2841L145.725 31.2841L145.725 0L145.723 0ZM186.23 99.2592L163.631 99.2592L163.631 77.5193C163.631 73.9152 162.459 71.1565 160.008 68.8235C157.663 66.3873 154.464 65.2193 151.267 65.2193L145.723 65.2193L145.723 34.0413L148.921 34.0413C157.234 34.0413 164.377 36.3743 170.774 41.1465C172.374 41.8888 173.973 43.4796 175.144 44.6461C182.714 52.1769 186.23 60.8728 186.23 71.158L186.23 99.2592ZM160.86 99.2592L145.722 99.2592L145.722 67.978L151.267 67.978C153.718 67.978 156.063 68.8235 158.087 70.7338C159.687 72.3245 160.86 74.7636 160.86 77.5193L160.86 99.2592Z" fill="#EFEFEF" fill-opacity="1.000000" fill-rule="evenodd"/>
</svg>
