<svg width="119.000000" height="30.000000" viewBox="0 0 119 30" fill="none" xmlns="http://www.w3.org/2000/svg" xmlns:xlink="http://www.w3.org/1999/xlink">
	<desc>
			Created with Pixso.
	</desc>
	<defs/>
	<rect id="Frame 513722" rx="8.000000" width="119.000000" height="30.000000" fill="#5D7EF1" fill-opacity="1.000000"/>
	<path id="Топ продаж" d="M12.7031 10.875L16.3281 10.875L16.3281 21L18.0781 21L18.0781 10.875L21.7109 10.875L21.7109 9.36328L12.7031 9.36328L12.7031 10.875ZM25.9585 21.1758C28.4194 21.1758 30.0288 19.375 30.0288 16.6758C30.0288 13.9609 28.4194 12.1602 25.9585 12.1602C23.5014 12.1602 21.892 13.9609 21.892 16.6758C21.892 19.375 23.5014 21.1758 25.9585 21.1758ZM25.9663 19.75C24.3569 19.75 23.6069 18.3477 23.6069 16.6719C23.6069 15 24.3569 13.5781 25.9663 13.5781C27.5639 13.5781 28.3139 15 28.3139 16.6719C28.3139 18.3477 27.5639 19.75 25.9663 19.75ZM31.919 21L33.5753 21L33.5753 13.7383L37.3761 13.7383L37.3761 21L39.0401 21L39.0401 12.2734L31.919 12.2734L31.919 21ZM45.5554 21L47.2117 21L47.2117 13.7383L51.0124 13.7383L51.0124 21L52.6765 21L52.6765 12.2734L45.5554 12.2734L45.5554 21ZM54.9531 24.2734L56.6523 24.2734L56.6523 19.6406L56.7539 19.6406C57.0625 20.1992 57.6875 21.1719 59.2773 21.1719C61.3906 21.1719 62.9258 19.4766 62.9258 16.6523C62.9258 13.8242 61.3711 12.1602 59.2617 12.1602C57.6406 12.1602 57.0586 13.1484 56.7539 13.6875L56.6133 13.6875L56.6133 12.2734L54.9531 12.2734L54.9531 24.2734ZM56.6211 16.6367C56.6211 14.8125 57.4141 13.6016 58.8984 13.6016C60.4375 13.6016 61.2109 14.9023 61.2109 16.6367C61.2109 18.3867 60.4141 19.7227 58.8984 19.7227C57.4375 19.7227 56.6211 18.4727 56.6211 16.6367ZM68.5039 21.1758C70.9648 21.1758 72.5742 19.375 72.5742 16.6758C72.5742 13.9609 70.9648 12.1602 68.5039 12.1602C66.0469 12.1602 64.4375 13.9609 64.4375 16.6758C64.4375 19.375 66.0469 21.1758 68.5039 21.1758ZM68.5117 19.75C66.9023 19.75 66.1523 18.3477 66.1523 16.6719C66.1523 15 66.9023 13.5781 68.5117 13.5781C70.1094 13.5781 70.8594 15 70.8594 16.6719C70.8594 18.3477 70.1094 19.75 68.5117 19.75ZM73.6129 23.5156L75.2965 23.5156L75.2965 21L81.3825 21L81.3825 23.5156L83.0387 23.5156L83.0387 19.5273L81.6989 19.5273L81.6989 12.2734L75.7653 12.2734L75.4957 15.5273C75.3121 17.7266 75.0465 18.875 74.3239 19.5273L73.6129 19.5273L73.6129 23.5156ZM76.1403 19.5273C76.7223 18.7148 76.9371 17.3633 77.109 15.5273L77.2887 13.7266L80.0387 13.7266L80.0387 19.5273L76.1403 19.5273ZM87.2347 21.1914C88.6761 21.1914 89.4886 20.4609 89.8129 19.8086L89.8793 19.8086L89.8793 21L91.5394 21L91.5394 15.2031C91.5394 12.6641 89.5394 12.1602 88.1527 12.1602C86.5746 12.1602 85.1175 12.7969 84.5511 14.3867L86.1488 14.75C86.3988 14.1289 87.0355 13.5352 88.1761 13.5352C89.2738 13.5352 89.8363 14.1094 89.8363 15.0977L89.8363 15.1367C89.8363 15.7539 89.1996 15.7461 87.6293 15.9258C85.9769 16.1211 84.2855 16.5508 84.2855 18.5352C84.2855 20.25 85.5746 21.1914 87.2347 21.1914ZM87.6019 19.8281C86.641 19.8281 85.9496 19.3984 85.9496 18.5586C85.9496 17.6484 86.7543 17.3242 87.7386 17.1914C88.2894 17.1211 89.598 16.9727 89.8402 16.7266L89.8402 17.8516C89.8402 18.8867 89.016 19.8281 87.6019 19.8281ZM93.245 21L95.2607 21L97.9989 17.3633L98.5693 17.3633L98.5693 21L100.268 21L100.268 17.3633L100.835 17.3633L103.558 21L105.573 21L102.21 16.5352L105.534 12.2734L103.558 12.2734L100.858 15.8984L100.268 15.8984L100.268 12.2734L98.5693 12.2734L98.5693 15.8984L97.9599 15.8984L95.2607 12.2734L93.2841 12.2734L96.6239 16.5352L93.245 21Z" fill="#FFFFFF" fill-opacity="1.000000" fill-rule="evenodd"/>
</svg>
