<svg width="119.000000" height="30.000000" viewBox="0 0 119 30" fill="none" xmlns="http://www.w3.org/2000/svg" xmlns:xlink="http://www.w3.org/1999/xlink">
	<desc>
			Created with Pixso.
	</desc>
	<defs/>
	<rect id="Frame 513722" rx="8.000000" width="119.000000" height="30.000000" fill="#5D7EF1" fill-opacity="1.000000"/>
	<path id="Топ продаж" d="M16.32 10.87L12.7 10.87L12.7 9.36L21.71 9.36L21.71 10.87L18.07 10.87L18.07 21L16.32 21L16.32 10.87ZM30.02 16.67C30.02 19.37 28.41 21.17 25.95 21.17C23.5 21.17 21.89 19.37 21.89 16.67C21.89 13.96 23.5 12.16 25.95 12.16C28.41 12.16 30.02 13.96 30.02 16.67ZM56.65 24.27L54.95 24.27L54.95 12.27L56.61 12.27L56.61 13.68L56.75 13.68C57.05 13.14 57.64 12.16 59.26 12.16C61.37 12.16 62.92 13.82 62.92 16.65C62.92 19.47 61.39 21.17 59.27 21.17C57.68 21.17 57.06 20.19 56.75 19.64L56.65 19.64L56.65 24.27ZM72.57 16.67C72.57 19.37 70.96 21.17 68.5 21.17C66.04 21.17 64.43 19.37 64.43 16.67C64.43 13.96 66.04 12.16 68.5 12.16C70.96 12.16 72.57 13.96 72.57 16.67ZM89.81 19.8C89.48 20.46 88.67 21.19 87.23 21.19C85.57 21.19 84.28 20.25 84.28 18.53C84.28 16.55 85.97 16.12 87.62 15.92C89.19 15.74 89.83 15.75 89.83 15.13L89.83 15.09C89.83 14.1 89.27 13.53 88.17 13.53C87.03 13.53 86.39 14.12 86.14 14.75L84.55 14.38C85.11 12.79 86.57 12.16 88.15 12.16C89.53 12.16 91.53 12.66 91.53 15.2L91.53 21L89.87 21L89.87 19.8L89.81 19.8ZM33.57 21L31.91 21L31.91 12.27L39.04 12.27L39.04 21L37.37 21L37.37 13.73L33.57 13.73L33.57 21ZM47.21 21L45.55 21L45.55 12.27L52.67 12.27L52.67 21L51.01 21L51.01 13.73L47.21 13.73L47.21 21ZM75.29 23.51L73.61 23.51L73.61 19.52L74.32 19.52C75.04 18.87 75.31 17.72 75.49 15.52L75.76 12.27L81.69 12.27L81.69 19.52L83.03 19.52L83.03 23.51L81.38 23.51L81.38 21L75.29 21L75.29 23.51ZM95.26 21L93.24 21L96.62 16.53L93.28 12.27L95.26 12.27L97.95 15.89L98.56 15.89L98.56 12.27L100.26 12.27L100.26 15.89L100.85 15.89L103.55 12.27L105.53 12.27L102.21 16.53L105.57 21L103.55 21L100.83 17.36L100.26 17.36L100.26 21L98.56 21L98.56 17.36L97.99 17.36L95.26 21ZM23.6 16.67C23.6 18.34 24.35 19.75 25.96 19.75C27.56 19.75 28.31 18.34 28.31 16.67C28.31 15 27.56 13.57 25.96 13.57C24.35 13.57 23.6 15 23.6 16.67ZM66.15 16.67C66.15 18.34 66.9 19.75 68.51 19.75C70.1 19.75 70.85 18.34 70.85 16.67C70.85 15 70.1 13.57 68.51 13.57C66.9 13.57 66.15 15 66.15 16.67ZM58.89 13.6C57.41 13.6 56.62 14.81 56.62 16.63C56.62 18.47 57.43 19.72 58.89 19.72C60.41 19.72 61.21 18.38 61.21 16.63C61.21 14.9 60.43 13.6 58.89 13.6ZM77.1 15.52C76.93 17.36 76.72 18.71 76.14 19.52L80.03 19.52L80.03 13.72L77.28 13.72L77.1 15.52ZM85.94 18.55C85.94 19.39 86.64 19.82 87.6 19.82C89.01 19.82 89.84 18.88 89.84 17.85L89.84 16.72C89.59 16.97 88.28 17.12 87.73 17.19C86.75 17.32 85.94 17.64 85.94 18.55Z" fill="#FFFFFF" fill-opacity="1.000000" fill-rule="evenodd"/>
</svg>
