<svg width="112.000000" height="30.000000" viewBox="0 0 112 30" fill="none" xmlns="http://www.w3.org/2000/svg" xmlns:xlink="http://www.w3.org/1999/xlink">
	<desc>
			Created with Pixso.
	</desc>
	<defs/>
	<rect id="Frame 513702" rx="8.000000" width="112.000000" height="30.000000" fill="#F15D5D" fill-opacity="1.000000"/>
	<path id="Хит сезона" d="M12.46 9.36L14.5 9.36L17.28 13.91L17.37 13.91L20.16 9.36L22.19 9.36L18.56 15.18L22.21 21L20.17 21L17.37 16.51L17.28 16.51L14.48 21L12.44 21L16.15 15.18L12.46 9.36ZM53 18.23C52.81 19.93 51.48 21.17 49.41 21.17C46.88 21.17 45.35 19.3 45.35 16.67C45.35 14.01 46.94 12.16 49.4 12.16C51.38 12.16 52.82 13.32 53 15.08L51.35 15.08C51.16 14.27 50.51 13.58 49.43 13.58C48.01 13.58 47.06 14.76 47.06 16.63C47.06 18.53 47.99 19.73 49.43 19.73C50.4 19.73 51.13 19.18 51.35 18.23L53 18.23ZM62.22 18.81C61.83 20.23 60.49 21.17 58.58 21.17C56.01 21.17 54.43 19.4 54.43 16.69C54.43 14.01 56.03 12.16 58.47 12.16C60.44 12.16 62.33 13.39 62.33 16.54L62.33 17.14L56.12 17.14C56.17 18.82 57.15 19.77 58.6 19.77C59.57 19.77 60.31 19.35 60.62 18.52L62.22 18.81ZM67.12 21.17C65.18 21.17 63.76 20.21 63.71 18.69L65.44 18.69C65.49 19.41 66.14 19.8 67.1 19.8C68.08 19.8 68.87 19.4 68.87 18.51C68.87 17.72 68.25 17.18 67.28 17.18L65.87 17.18L65.87 15.85L67.28 15.85C68.24 15.85 68.72 15.36 68.72 14.69C68.72 13.98 68.19 13.51 67.27 13.51C66.35 13.51 65.67 13.96 65.64 14.62L63.92 14.62C63.96 13.15 65.33 12.16 67.19 12.16C69.13 12.16 70.36 13.17 70.36 14.6C70.36 15.56 69.73 16.17 68.81 16.43L68.81 16.52C69.83 16.59 70.55 17.43 70.55 18.57C70.55 20.17 69.11 21.17 67.12 21.17ZM80.05 16.67C80.05 19.37 78.44 21.17 75.98 21.17C73.52 21.17 71.91 19.37 71.91 16.67C71.91 13.96 73.52 12.16 75.98 12.16C78.44 12.16 80.05 13.96 80.05 16.67ZM96.43 19.8C96.1 20.46 95.29 21.19 93.85 21.19C92.19 21.19 90.9 20.25 90.9 18.53C90.9 16.55 92.59 16.12 94.24 15.92C95.81 15.74 96.45 15.75 96.45 15.13L96.45 15.09C96.45 14.1 95.89 13.53 94.79 13.53C93.65 13.53 93.01 14.12 92.76 14.75L91.17 14.38C91.73 12.79 93.19 12.16 94.77 12.16C96.15 12.16 98.15 12.66 98.15 15.2L98.15 21L96.49 21L96.49 19.8L96.43 19.8ZM25.46 12.27L25.46 18.62L29.31 12.27L31.14 12.27L31.14 21L29.47 21L29.47 14.64L25.64 21L23.79 21L23.79 12.27L25.46 12.27ZM35.2 13.73L32.34 13.73L32.34 12.27L39.7 12.27L39.7 13.73L36.86 13.73L36.86 21L35.2 21L35.2 13.73ZM81.94 12.27L83.6 12.27L83.6 15.9L87.38 15.9L87.38 12.27L89.04 12.27L89.04 21L87.38 21L87.38 17.37L83.6 17.37L83.6 21L81.94 21L81.94 12.27ZM58.48 13.56C57.1 13.56 56.2 14.63 56.13 15.87L60.67 15.87C60.66 14.53 59.8 13.56 58.48 13.56ZM73.62 16.67C73.62 18.34 74.37 19.75 75.98 19.75C77.58 19.75 78.33 18.34 78.33 16.67C78.33 15 77.58 13.57 75.98 13.57C74.37 13.57 73.62 15 73.62 16.67ZM92.56 18.55C92.56 19.39 93.26 19.82 94.22 19.82C95.63 19.82 96.45 18.88 96.45 17.85L96.45 16.72C96.21 16.97 94.9 17.12 94.35 17.19C93.37 17.32 92.56 17.64 92.56 18.55Z" fill="#FFFFFF" fill-opacity="1.000000" fill-rule="evenodd"/>
</svg>
